<svg width="284" height="20" viewBox="0 0 284 20" fill="none" xmlns="http://www.w3.org/2000/svg">
<path d="M0.655566 19V1.275H3.88057L10.6806 11.55H9.15557L15.9306 1.275H19.1556V19H14.7306V8.675L15.4306 8.875L11.3556 15H8.45557L4.40557 8.875L5.10557 8.675V19H0.655566ZM22.3108 19V1.275H26.7858V19H22.3108ZM38.503 19.275C37.153 19.275 35.903 19.05 34.753 18.6C33.6197 18.1333 32.6197 17.4833 31.753 16.65C30.903 15.8167 30.2364 14.85 29.753 13.75C29.2864 12.6333 29.053 11.425 29.053 10.125C29.053 8.80833 29.2947 7.6 29.778 6.5C30.278 5.38333 30.9697 4.41667 31.853 3.6C32.7364 2.76667 33.7614 2.125 34.928 1.675C36.1114 1.20833 37.3697 0.975 38.703 0.975C40.2864 0.975 41.7197 1.25833 43.003 1.825C44.2864 2.375 45.328 3.14167 46.128 4.125L43.128 7.125C42.528 6.40833 41.8697 5.875 41.153 5.525C40.4364 5.15833 39.603 4.975 38.653 4.975C37.6864 4.975 36.8197 5.19167 36.053 5.625C35.303 6.04167 34.703 6.63333 34.253 7.4C33.803 8.16667 33.578 9.06667 33.578 10.1C33.578 11.1333 33.7864 12.0417 34.203 12.825C34.6364 13.6083 35.2197 14.2167 35.953 14.65C36.703 15.0833 37.5614 15.3 38.528 15.3C39.4947 15.3 40.3114 15.1167 40.978 14.75C41.6614 14.3833 42.178 13.85 42.528 13.15C42.8947 12.45 43.078 11.6167 43.078 10.65L46.103 12.6L38.028 12.4V8.75H47.578V9.425C47.578 11.5417 47.1947 13.3333 46.428 14.8C45.6614 16.2667 44.5947 17.3833 43.228 18.15C41.878 18.9 40.303 19.275 38.503 19.275ZM53.2534 11.825V8.625H56.6284C57.3618 8.625 57.9201 8.45 58.3034 8.1C58.7034 7.73333 58.9034 7.24167 58.9034 6.625C58.9034 6.025 58.7034 5.54167 58.3034 5.175C57.9201 4.79167 57.3618 4.6 56.6284 4.6H53.2534V1.275H57.2534C58.4534 1.275 59.5034 1.5 60.4034 1.95C61.3201 2.4 62.0368 3.01667 62.5534 3.8C63.0701 4.58333 63.3284 5.5 63.3284 6.55C63.3284 7.6 63.0618 8.525 62.5284 9.325C62.0118 10.1083 61.2868 10.725 60.3534 11.175C59.4201 11.6083 58.3284 11.825 57.0784 11.825H53.2534ZM49.7034 19V1.275H54.1784V19H49.7034ZM59.3034 19L54.1534 11.4L58.1784 10.425L64.4784 19H59.3034ZM86.1567 19V1.4H90.6317V19H86.1567ZM80.7317 5.125V1.275H96.0567V5.125H80.7317ZM114.334 19.325C112.968 19.325 111.709 19.0917 110.559 18.625C109.409 18.1583 108.401 17.5083 107.534 16.675C106.684 15.8417 106.018 14.8667 105.534 13.75C105.051 12.6167 104.809 11.4 104.809 10.1C104.809 8.8 105.043 7.6 105.509 6.5C105.993 5.38333 106.659 4.40833 107.509 3.575C108.359 2.74167 109.359 2.1 110.509 1.65C111.659 1.18333 112.918 0.949998 114.284 0.949998C115.651 0.949998 116.909 1.18333 118.059 1.65C119.209 2.1 120.209 2.74167 121.059 3.575C121.909 4.40833 122.568 5.38333 123.034 6.5C123.518 7.61667 123.759 8.825 123.759 10.125C123.759 11.425 123.518 12.6333 123.034 13.75C122.568 14.8667 121.909 15.85 121.059 16.7C120.209 17.5333 119.209 18.1833 118.059 18.65C116.926 19.1 115.684 19.325 114.334 19.325ZM114.284 15.325C115.284 15.325 116.151 15.1083 116.884 14.675C117.618 14.2417 118.184 13.6333 118.584 12.85C118.984 12.0667 119.184 11.15 119.184 10.1C119.184 9.33333 119.068 8.63333 118.834 8C118.618 7.36667 118.293 6.825 117.859 6.375C117.426 5.90833 116.909 5.55 116.309 5.3C115.709 5.05 115.034 4.925 114.284 4.925C113.284 4.925 112.418 5.14167 111.684 5.575C110.951 5.99167 110.384 6.59167 109.984 7.375C109.584 8.15833 109.384 9.06667 109.384 10.1C109.384 10.9 109.493 11.625 109.709 12.275C109.943 12.9083 110.276 13.4583 110.709 13.925C111.143 14.375 111.659 14.725 112.259 14.975C112.859 15.2083 113.534 15.325 114.284 15.325ZM125.997 19V1.275H129.122L130.472 4.9V19H125.997ZM138.222 19L127.872 5.85L129.122 1.275L139.497 14.425L138.222 19ZM138.222 19L137.072 15.275V1.275H141.547V19H138.222ZM152.863 12.65V9.325H156.363C156.796 9.325 157.188 9.24167 157.538 9.075C157.904 8.89167 158.196 8.625 158.413 8.275C158.629 7.925 158.738 7.49167 158.738 6.975C158.738 6.45833 158.629 6.025 158.413 5.675C158.196 5.30833 157.904 5.04167 157.538 4.875C157.188 4.69167 156.796 4.6 156.363 4.6H152.863V1.275H157.138C158.271 1.275 159.296 1.50833 160.213 1.975C161.129 2.425 161.854 3.075 162.388 3.925C162.921 4.75833 163.188 5.775 163.188 6.975C163.188 8.14167 162.921 9.15833 162.388 10.025C161.854 10.875 161.129 11.525 160.213 11.975C159.296 12.425 158.271 12.65 157.138 12.65H152.863ZM149.313 19V1.275H153.788V19H149.313ZM162.734 19L169.609 1.275H173.934L180.734 19H176.059L170.934 4.1H172.559L167.309 19H162.734ZM166.909 15.9V12.35H176.684V15.9H166.909ZM184.814 19V1.4H189.289V19H184.814ZM179.389 5.125V1.275H194.714V5.125H179.389ZM196.749 19V1.275H201.224V19H196.749ZM207.599 19V1.275H212.074V19H207.599ZM199.299 11.8V8.05H209.224V11.8H199.299ZM219.606 19L213.981 1.275H218.406L222.456 14.925H220.531L224.531 1.275H228.106L232.106 14.925H230.206L234.256 1.275H238.656L233.006 19H229.406L225.406 5.375H227.206L223.231 19H219.606ZM237.344 19L244.219 1.275H248.544L255.344 19H250.669L245.544 4.1H247.169L241.919 19H237.344ZM241.519 15.9V12.35H251.294V15.9H241.519ZM260.255 12.65L253.48 1.275H258.605L263.78 10.5H260.18L265.355 1.275H270.38L263.555 12.65H260.255ZM259.73 19V10.825H264.205V19H259.73ZM276.152 19.275C274.669 19.275 273.377 19.05 272.277 18.6C271.194 18.15 270.202 17.4417 269.302 16.475L272.127 13.625C272.744 14.275 273.402 14.775 274.102 15.125C274.802 15.4583 275.594 15.625 276.477 15.625C277.227 15.625 277.802 15.5 278.202 15.25C278.619 14.9833 278.827 14.625 278.827 14.175C278.827 13.7583 278.677 13.4167 278.377 13.15C278.077 12.8667 277.677 12.625 277.177 12.425C276.694 12.2083 276.152 12.0083 275.552 11.825C274.969 11.625 274.377 11.3917 273.777 11.125C273.194 10.8417 272.652 10.5 272.152 10.1C271.669 9.7 271.277 9.2 270.977 8.6C270.677 8 270.527 7.25833 270.527 6.375C270.527 5.24167 270.794 4.275 271.327 3.475C271.877 2.675 272.635 2.05833 273.602 1.625C274.569 1.19167 275.694 0.975 276.977 0.975C278.26 0.975 279.444 1.19167 280.527 1.625C281.61 2.05833 282.502 2.65833 283.202 3.425L280.352 6.25C279.819 5.71667 279.277 5.31667 278.727 5.05C278.177 4.78333 277.577 4.65 276.927 4.65C276.31 4.65 275.827 4.75833 275.477 4.975C275.127 5.19167 274.952 5.5 274.952 5.9C274.952 6.3 275.102 6.625 275.402 6.875C275.702 7.125 276.094 7.35 276.577 7.55C277.077 7.73333 277.619 7.925 278.202 8.125C278.802 8.325 279.394 8.55833 279.977 8.825C280.56 9.09167 281.094 9.43333 281.577 9.85C282.077 10.2667 282.477 10.7917 282.777 11.425C283.077 12.0583 283.227 12.825 283.227 13.725C283.227 15.4917 282.602 16.8583 281.352 17.825C280.119 18.7917 278.385 19.275 276.152 19.275Z" fill="#1A1A1A"/>
<path d="M64.0772 19L70.9522 1.275H75.2772L82.0772 19H77.4022L72.2772 4.1H73.9022L68.6522 19H64.0772ZM68.2522 15.9V12.35H78.0272V15.9H68.2522ZM98.0921 19V1.275H102.567V19H98.0921Z" fill="#FF671F"/>
</svg>
