<svg width="121" height="46" viewBox="0 0 121 46" fill="none" xmlns="http://www.w3.org/2000/svg">
<path d="M50.0611 0.385498H45.8066V29.9935H50.0611V0.385498Z" fill="white"/>
<path d="M71.7674 26.4328C65.5568 26.4328 60.2615 22.0048 60.2615 15.2738C60.2615 10.3255 63.6054 3.98467 71.8975 3.98467C79.626 3.98467 83.3601 10.1954 83.3601 15.0955C83.3601 17.6588 82.276 20.8677 80.4065 22.9106C78.3684 25.1318 74.9378 26.4328 71.7674 26.4328ZM87.7013 15.1485C87.7013 7.20324 81.5822 0 71.7241 0C61.6106 0 55.877 7.42488 55.877 15.2786C55.877 23.5274 62.2129 30.3837 71.5024 30.3837C81.1871 30.3837 87.7013 23.6575 87.7013 15.1485Z" fill="white"/>
<path d="M117.049 0.385498L107.239 12.5419L97.3811 0.385498H93.3916V29.9935H97.6461V6.9431L106.849 18.4008H107.629L116.746 6.9431V29.9935H121V0.385498H117.049Z" fill="white"/>
<path d="M7.52629 41.2104C7.52629 42.1788 7.43956 42.6992 7.24683 43.0461C6.98183 43.5231 6.27355 44.347 4.64981 44.347C3.4838 44.347 2.81889 43.9567 2.39007 43.5231C1.87452 43.0172 1.75406 42.5113 1.75406 41.2104V35.6116H0.308594V41.2104C0.308594 41.8753 0.308594 43.0172 0.867507 43.8893C1.66251 45.1324 3.22844 45.6094 4.64499 45.6094C5.79655 45.6094 6.91919 45.3203 7.8202 44.5397C8.9573 43.5424 8.9573 42.1644 8.9573 41.2104V35.6116H7.52629V41.2104Z" fill="white"/>
<path d="M20.7375 43.2677L13.9438 35.6116H12.7778V45.4793H14.1366V37.8858L20.8676 45.4793H22.1059V35.6116H20.7375V43.2677Z" fill="white"/>
<path d="M35.997 39.6637L32.6483 35.6116H31.2896V45.4793H32.735V37.799L35.8669 41.6199H36.1319L39.23 37.799V45.4793H40.6754V35.6116H39.336L35.997 39.6637Z" fill="white"/>
<path d="M46.1393 35.6116H44.6938V45.4793H46.1393V35.6116Z" fill="white"/>
<path d="M55.0867 41.8798H57.0188V43.9324C56.0599 44.2359 55.5588 44.366 54.8216 44.366C52.3884 44.366 50.7792 42.7326 50.7792 40.5451C50.7792 38.2131 52.6824 36.7388 54.6916 36.7388C55.2505 36.7388 56.6092 36.8255 58.2619 37.765V36.3196C57.1826 35.8715 56.137 35.4812 54.7205 35.4812C51.2658 35.4812 49.2759 38.03 49.2759 40.6319C49.2759 42.8723 50.8852 45.6091 54.7831 45.6091C56.4647 45.6091 57.7078 45.1321 58.4739 44.7996V40.6319H55.0915V41.8798H55.0867Z" fill="white"/>
<path d="M65.7109 39.7793C65.311 39.9238 64.5304 39.9238 64.3088 39.9238H63.7499V36.8112H64.1931C65.0652 36.8112 65.5374 36.8691 65.9036 37.0425C66.3758 37.2593 66.6697 37.7942 66.6697 38.3579C66.6745 38.8975 66.3902 39.5191 65.7109 39.7793ZM66.4673 40.7911C67.5611 40.3719 68.1489 39.5046 68.1489 38.3579C68.1489 37.3605 67.6478 36.3776 66.5685 35.9247C65.9325 35.6501 65.3158 35.6067 64.8436 35.6067H62.3188V45.4744H63.7499V41.1766H64.1353C64.8291 41.1766 65.3158 41.1766 66.3035 42.4197C66.6263 42.8388 68.0284 44.9974 68.3705 45.4744H70.081C69.3872 44.5204 69.1366 44.1879 68.7078 43.5086C67.9417 42.2992 67.3828 41.3837 66.4673 40.7911Z" fill="white"/>
<path d="M74.9523 41.2968L76.4556 37.7217L78.0793 41.2968H74.9523ZM75.9737 35.5535L71.647 45.479H73.1213L74.3885 42.5688H78.6671L80.0114 45.479H81.4858L76.9856 35.5535H75.9737Z" fill="white"/>
<path d="M82.0303 36.8547H85.4849V45.4793H86.9304V36.8547H90.4429V35.6116H82.0303V36.8547Z" fill="white"/>
<path d="M95.0636 35.6116H93.6182V45.4793H95.0636V35.6116Z" fill="white"/>
<path d="M106.401 43.1229C105.707 43.8601 104.541 44.2937 103.462 44.2937C101.351 44.2937 99.5494 42.8193 99.5494 40.5741C99.5494 38.9262 100.686 36.811 103.505 36.811C106.131 36.811 107.403 38.8829 107.403 40.5162C107.403 41.3739 107.032 42.4435 106.401 43.1229ZM103.447 35.4812C100.007 35.4812 98.0605 37.9578 98.0605 40.5741C98.0605 43.3253 100.214 45.6091 103.375 45.6091C106.666 45.6091 108.882 43.3638 108.882 40.5307C108.877 37.8855 106.796 35.4812 103.447 35.4812Z" fill="white"/>
<path d="M119.608 43.2677L112.819 35.6116H111.653V45.4793H113.012V37.8858L119.743 45.4793H120.981V35.6116H119.608V43.2677Z" fill="white"/>
<path d="M15.5339 12.3972C15.8664 12.3972 16.1362 12.1274 16.1362 11.7949C16.1362 11.4624 15.8664 11.1926 15.5339 11.1926C15.2015 11.1926 14.9316 11.4624 14.9316 11.7949C14.9316 12.1274 15.2015 12.3972 15.5339 12.3972Z" fill="white"/>
<path d="M13.2503 16.0156C13.2937 16.0445 13.3419 16.0541 13.3852 16.0541C13.4864 16.0541 13.5828 15.9963 13.6213 15.8951L14.6958 13.3656L14.7777 15.8277L14.373 18.9499C14.3585 19.0703 14.4211 19.1956 14.5416 19.2342C14.5705 19.2438 14.5994 19.2486 14.6332 19.2486C14.7632 19.2486 14.8741 19.1523 14.8885 19.0222L15.274 16.0493H15.7943L16.1798 19.0222C16.1943 19.1523 16.3099 19.2486 16.4352 19.2486C16.4641 19.2486 16.493 19.2438 16.5267 19.2342C16.6423 19.1908 16.705 19.0703 16.6953 18.9499L16.2906 15.8277L16.3677 13.3656L17.4422 15.8951C17.447 15.9096 17.4566 15.924 17.4614 15.9337C17.4614 15.9385 17.4663 15.9385 17.4711 15.9433C17.4759 15.953 17.4855 15.9626 17.4904 15.9722C17.4952 15.977 17.4952 15.977 17.5 15.9819C17.5096 15.9915 17.5193 16.0011 17.5289 16.006L17.5337 16.0108C17.5482 16.0204 17.5578 16.0252 17.5723 16.03C17.5771 16.03 17.5819 16.03 17.5819 16.0349C17.5915 16.0397 17.6012 16.0445 17.6156 16.0445C17.6204 16.0445 17.6253 16.0445 17.6301 16.0493C17.6445 16.0541 17.659 16.0541 17.6783 16.0541H17.8951L17.5482 17.8128C17.5241 17.9381 17.5578 18.0682 17.6349 18.1645C17.6831 18.2272 17.7505 18.2705 17.8228 18.2946V19.0366C17.8228 19.1571 17.9192 19.2534 18.0396 19.2534C18.1601 19.2534 18.2565 19.1571 18.2565 19.0366V18.3187C18.2661 18.3187 18.2709 18.3187 18.2757 18.3187H18.4155H18.5552C18.5648 18.3187 18.5696 18.3187 18.5745 18.3187V19.0366C18.5745 19.1571 18.6708 19.2534 18.7913 19.2534C18.9117 19.2534 19.0081 19.1571 19.0081 19.0366V18.2898C19.0804 18.2657 19.1478 18.2175 19.196 18.1597C19.2779 18.0585 19.3116 17.9332 19.2827 17.808L18.9358 16.0541H19.1526C19.1671 16.0541 19.1816 16.0541 19.2008 16.0493C19.2056 16.0493 19.2105 16.0493 19.2153 16.0445C19.2249 16.0445 19.2394 16.0397 19.249 16.0349C19.2538 16.0349 19.2586 16.03 19.2586 16.03C19.2731 16.0252 19.2876 16.0156 19.2972 16.0108L19.302 16.006C19.3116 16.0011 19.3213 15.9915 19.3309 15.9819C19.3357 15.977 19.3357 15.977 19.3406 15.9722C19.3502 15.9626 19.355 15.953 19.3598 15.9433C19.3598 15.9385 19.3646 15.9385 19.3695 15.9337C19.3791 15.9192 19.3839 15.9096 19.3887 15.8951L20.5017 13.274L20.7186 14.3389C20.7523 14.5123 20.7475 14.6954 20.7041 14.8737L19.6875 19.2534H21.0896H21.4461H22.8482L21.8316 14.8689C21.7882 14.7002 21.7834 14.5171 21.8171 14.3437L22.0388 13.2692L22.8964 15.3796C22.9349 15.4808 23.0361 15.5434 23.1373 15.5434C23.171 15.5434 23.2048 15.5386 23.2337 15.5241C23.3638 15.4711 23.4312 15.317 23.3782 15.1869L22.4146 12.8259C22.376 12.7296 22.2797 12.6621 22.1737 12.6621H22.1592H21.74H21.4413H21.0847H20.7957H20.3668H20.362C20.256 12.6621 20.1645 12.7247 20.1259 12.8211L18.9695 15.5434H17.8276L16.6713 12.8211C16.6327 12.7247 16.5363 12.6621 16.4303 12.6621H15.5052H14.5801C14.4741 12.6621 14.3826 12.7247 14.3441 12.8211L13.125 15.688C13.101 15.8036 13.1395 15.9481 13.2503 16.0156Z" fill="white"/>
<path d="M21.282 12.3972C21.6144 12.3972 21.8842 12.1274 21.8842 11.7949C21.8842 11.4624 21.6144 11.1926 21.282 11.1926C20.9495 11.1926 20.6797 11.4624 20.6797 11.7949C20.6797 12.1274 20.9495 12.3972 21.282 12.3972Z" fill="white"/>
<path d="M18.4202 15.4039C18.6707 15.4039 18.8731 15.2015 18.8731 14.951C18.8731 14.7004 18.6707 14.498 18.4202 14.498C18.1696 14.498 17.9673 14.7004 17.9673 14.951C17.9673 15.2015 18.1696 15.4039 18.4202 15.4039Z" fill="white"/>
<path d="M21.1616 23.4694C20.0727 23.5272 19.0416 23.7729 18.0876 24.168C16.6855 23.5513 15.3653 22.4913 14.3679 21.1615H21.1616V23.4694ZM21.1616 27.9263C19.2922 27.8299 17.5287 27.3095 15.958 26.4471C17.3215 25.1799 19.1428 24.3656 21.1616 24.2403V27.9263ZM10.7495 21.1615H13.3754C14.3631 22.6407 15.6929 23.8597 17.1191 24.6402C16.4301 25.0257 15.8038 25.4931 15.2497 26.0327C13.385 24.8426 11.8336 23.161 10.7495 21.1615ZM9.13535 15.847H11.6986C11.6986 15.8711 11.6986 15.8952 11.6986 15.9096C11.6986 17.437 12.1226 18.9162 12.8261 20.2364H10.2965C9.68463 18.8873 9.28471 17.4081 9.13535 15.847ZM5.67587 14.9267C5.67105 14.8111 5.66623 14.6328 5.66623 14.5316C5.66623 12.9898 6.1336 11.5009 6.90451 10.2048H22.795C23.5611 11.5009 24.0333 12.9898 24.0333 14.5316C24.0333 14.5509 24.0333 14.5701 24.0333 14.5942H24.0237L24.0092 15.5145H30.8655C30.8655 15.6302 30.8703 15.8084 30.8703 15.9096C30.8703 17.4514 30.403 18.9403 29.6321 20.2364H13.7512C12.9851 18.9403 12.5177 17.4514 12.5177 15.9096C12.5177 15.8903 12.5177 15.8711 12.5177 15.847L12.5322 14.9267H5.67587ZM2.10075 14.9267C2.22602 13.25 2.64039 11.6551 3.28603 10.2048H5.98423C5.28077 11.525 4.85677 13.0042 4.85677 14.5316C4.85677 14.6039 4.85677 14.7966 4.86159 14.9267H2.10075ZM8.34998 4.35551C8.91853 4.91924 9.56899 5.41071 10.2821 5.81062C8.85589 6.59117 7.52606 7.81018 6.53833 9.28937H3.74376C4.84713 7.24645 6.43714 5.54561 8.34998 4.35551ZM14.4547 6.98626V9.28937H7.52606C8.52825 7.95954 9.84845 6.89953 11.2505 6.2828C12.2383 6.69235 13.3176 6.93808 14.4547 6.98626ZM14.4547 2.51495V6.21535C12.3539 6.11898 10.4555 5.27098 9.06308 3.94596C10.6868 3.07387 12.5177 2.56313 14.4547 2.51495ZM15.3798 6.98144C16.4687 6.92362 17.4998 6.6779 18.4538 6.2828C19.8559 6.89953 21.1761 7.95954 22.1783 9.28937H15.3798V6.98144ZM15.3798 2.52459C17.2492 2.62095 19.0079 3.14132 20.5834 4.00378C19.2247 5.26616 17.4034 6.08526 15.3798 6.20571V2.52459ZM25.7919 9.28937H23.1612C22.1783 7.81018 20.8484 6.59117 19.4174 5.81062C20.1016 5.42516 20.7328 4.95779 21.2869 4.41815C23.1564 5.60825 24.7078 7.28499 25.7919 9.28937ZM27.406 14.5991H24.8428C24.8428 14.575 24.8428 14.5509 24.8428 14.5364C24.8428 13.009 24.4188 11.5298 23.7153 10.2097H26.2449C26.8568 11.5636 27.2567 13.0428 27.406 14.5991ZM34.4407 15.5193C34.3154 17.1961 33.901 18.7909 33.2554 20.2412H30.5572C31.2606 18.921 31.6846 17.4418 31.6846 15.9144C31.6846 15.8373 31.6846 15.6494 31.6798 15.5193H34.4407ZM28.1914 26.0905C27.6229 25.5268 26.9724 25.0353 26.2593 24.6354C27.6855 23.8549 29.0153 22.6358 30.0031 21.1567H32.7976C31.6943 23.1996 30.1042 24.9004 28.1914 26.0905ZM22.0867 23.4598V21.1567H29.0153C28.0131 22.4865 26.6929 23.5465 25.2908 24.1632C24.3031 23.7537 23.2238 23.5079 22.0867 23.4598ZM22.0867 27.9359V24.2355C24.1875 24.3319 26.081 25.1799 27.4783 26.5049C25.8546 27.377 24.0237 27.8829 22.0867 27.9359ZM36.5366 14.3244C36.5366 9.62183 34.3828 4.36033 30.8752 0.443115H27.7481C28.5672 1.19476 29.7043 2.51013 29.7043 2.51013C32.7205 5.88289 34.4792 10.4072 34.4792 14.4497C34.4792 14.4979 34.4792 14.5509 34.4792 14.5991H29.4731C28.7118 6.69717 22.4192 0.443115 14.7727 0.443115C6.61542 0.443115 0 7.46327 0 16.1264C0 20.829 2.15856 26.0905 5.66141 30.0077H8.78844C7.97416 29.2561 6.83224 27.9407 6.83224 27.9407C3.81603 24.568 2.05738 20.0436 2.05738 16.0012C2.05738 15.953 2.05738 15.9 2.05738 15.8518H7.06833C7.82961 23.7537 14.127 30.0077 21.7687 30.0077C29.926 30.0077 36.5366 22.9876 36.5366 14.3244Z" fill="white"/>
</svg>
