<svg width="34" height="34" viewBox="0 0 34 34" fill="none" xmlns="http://www.w3.org/2000/svg">
<g clip-path="url(#clip0_63_1273)">
<path d="M25.456 8.48529C23.7778 6.80706 21.6396 5.66417 19.3118 5.20114C16.984 4.73812 14.5712 4.97576 12.3785 5.88401C10.1858 6.79226 8.31165 8.33033 6.99307 10.3037C5.6745 12.2771 4.97071 14.5972 4.97071 16.9706C4.97071 19.3439 5.6745 21.664 6.99307 23.6374C8.31165 25.6108 10.1858 27.1489 12.3785 28.0571C14.5712 28.9654 16.984 29.203 19.3118 28.74C21.6396 28.277 23.7778 27.1341 25.456 25.4558C27.7032 23.2037 28.9653 20.1521 28.9653 16.9706C28.9653 13.789 27.7032 10.7374 25.456 8.48529ZM9.89964 24.0416C8.50111 22.6431 7.54871 20.8613 7.16285 18.9215C6.777 16.9817 6.97503 14.971 7.73191 13.1437C8.48879 11.3165 9.77051 9.75468 11.415 8.65587C13.0595 7.55706 14.9929 6.97057 16.9707 6.97057C18.9485 6.97057 20.8819 7.55706 22.5264 8.65587C24.1709 9.75468 25.4526 11.3165 26.2095 13.1437C26.9664 14.971 27.1644 16.9817 26.7786 18.9215C26.3927 20.8613 25.4403 22.6431 24.0418 24.0416C22.165 25.9143 19.622 26.966 16.9707 26.966C14.3194 26.966 11.7764 25.9143 9.89964 24.0416ZM20.5062 20.5061C20.3187 20.6936 20.0644 20.799 19.7991 20.799C19.5339 20.799 19.2796 20.6936 19.092 20.5061L16.9707 18.3848L14.8494 20.5061C14.6619 20.6936 14.4075 20.799 14.1423 20.799C13.8771 20.799 13.6227 20.6936 13.4352 20.5061C13.2476 20.3186 13.1423 20.0642 13.1423 19.799C13.1423 19.5338 13.2476 19.2794 13.4352 19.0919L15.5565 16.9706L13.4352 14.8492C13.2476 14.6617 13.1423 14.4074 13.1423 14.1421C13.1423 13.8769 13.2476 13.6226 13.4352 13.435C13.6227 13.2475 13.8771 13.1421 14.1423 13.1421C14.4075 13.1421 14.6619 13.2475 14.8494 13.435L16.9707 15.5564L19.092 13.435C19.2796 13.2475 19.5339 13.1421 19.7991 13.1421C20.0644 13.1421 20.3187 13.2475 20.5062 13.435C20.6938 13.6226 20.7991 13.8769 20.7991 14.1421C20.7991 14.4074 20.6938 14.6617 20.5062 14.8492L18.3849 16.9706L20.5062 19.0919C20.6938 19.2794 20.7991 19.5338 20.7991 19.799C20.7991 20.0642 20.6938 20.3186 20.5062 20.5061Z" fill="#121B20"/>
</g>
<defs>
<clipPath id="clip0_63_1273">
<rect width="24" height="24" fill="white" transform="translate(16.9707) rotate(45)"/>
</clipPath>
</defs>
</svg>
