<svg width="18" height="21" viewBox="0 0 18 21" fill="none" xmlns="http://www.w3.org/2000/svg">
<path d="M4.77652 5.1972C5.01345 4.89809 5.27462 4.62011 5.56008 4.37141L4.1455 2.9561C3.92344 2.73325 3.56299 2.73325 3.34005 2.9561C3.11793 3.17822 3.11793 3.53861 3.34005 3.76073L4.77654 5.19716L4.77652 5.1972ZM9.37722 2.92175C9.38272 2.92175 9.38736 2.92175 9.39367 2.92175C9.58048 2.92175 9.76505 2.93346 9.94646 2.95225V1.0248C9.94646 0.710479 9.69151 0.455566 9.37716 0.455566C9.06282 0.455566 8.80867 0.710458 8.80867 1.0248V2.95188C8.99008 2.93353 9.17457 2.92175 9.36147 2.92175C9.36701 2.92175 9.37243 2.92175 9.3771 2.92175H9.37722ZM13.9792 5.19646L15.4142 3.76077C15.637 3.53865 15.637 3.17827 15.4142 2.95615C15.1928 2.73329 14.8316 2.73329 14.6087 2.95615L13.1933 4.37145C13.4795 4.62007 13.7407 4.89776 13.9792 5.19642V5.19646ZM3.3783 9.23316C3.3783 8.95829 3.40024 8.68931 3.4323 8.42345H1.40854C1.095 8.42345 0.840027 8.6784 0.840027 8.99268C0.840027 9.30702 1.09502 9.56192 1.40854 9.56192H3.38535C3.38066 9.45364 3.37828 9.34492 3.37828 9.23312L3.3783 9.23316ZM17.3455 8.42351H15.3226C15.3554 8.68937 15.3766 8.95839 15.3766 9.23322C15.3766 9.34499 15.3742 9.45374 15.3703 9.56202H17.3455C17.66 9.56202 17.9141 9.30713 17.9141 8.99278C17.9141 8.67844 17.66 8.42355 17.3455 8.42355V8.42351ZM14.2787 13.0894C14.0472 13.4287 13.8025 13.7219 13.5672 13.987L14.6087 15.0294C14.8316 15.2515 15.1928 15.2515 15.4142 15.0294C15.637 14.8065 15.637 14.4469 15.4142 14.224L14.2787 13.0894H14.2787ZM3.34001 14.2239C3.11789 14.4468 3.11789 14.8064 3.34001 15.0294C3.56289 15.2515 3.92342 15.2515 4.14546 15.0294L5.18787 13.9863C4.95254 13.722 4.70774 13.428 4.47627 13.0895L3.34007 14.224L3.34001 14.2239ZM14.5867 9.23316C14.5875 8.05281 14.1943 6.9612 13.5319 6.08697C12.9509 5.31912 12.1618 4.71701 11.2477 4.36358L11.2524 4.33852L10.8622 4.22396C10.5588 4.13598 10.246 4.07497 9.92698 4.04212L9.88164 4.03707H9.8801L9.87848 4.03668C9.72215 4.02183 9.55944 4.01045 9.38978 4.01045H9.3648C9.19508 4.01045 9.03243 4.02188 8.87603 4.03668L8.87368 4.03707L8.8268 4.04212C8.50821 4.07493 8.19534 4.13594 7.89268 4.22396L7.51501 4.33417L7.51891 4.35923C6.60012 4.71225 5.8064 5.31594 5.22224 6.08689C4.5607 6.9611 4.16736 8.05264 4.16736 9.23307C4.16736 10.0795 4.31362 10.7754 4.54115 11.3513C4.88283 12.215 5.40441 12.7983 5.82357 13.2409C6.03316 13.4614 6.21773 13.6498 6.34277 13.8109C6.47102 13.9727 6.53277 14.0979 6.55074 14.1972C6.64218 14.6805 6.65157 15.2904 6.65157 15.4452V15.4898C6.65157 16.1888 7.21777 16.7534 7.91606 16.7542H10.8386C11.5378 16.7534 12.1031 16.188 12.1031 15.4898V15.4468C12.1024 15.2935 12.1125 14.682 12.204 14.198C12.2165 14.1307 12.2462 14.0541 12.3048 13.9603C12.4049 13.7968 12.5942 13.5935 12.8288 13.3487C13.1791 12.9804 13.6248 12.516 13.9791 11.8557C14.3341 11.1961 14.5882 10.3441 14.5866 9.23309L14.5867 9.23316ZM13.3927 11.0266C13.1135 11.7307 12.6943 12.2073 12.2901 12.6342C12.0883 12.8477 11.8905 13.0463 11.7177 13.2661C11.5473 13.4827 11.3948 13.7306 11.3361 14.0348C11.2259 14.6282 11.2211 15.2648 11.2205 15.447C11.2205 15.4712 11.2205 15.4844 11.2205 15.4899C11.2198 15.7011 11.05 15.8715 10.8389 15.8715H7.91633C7.80922 15.8715 7.71615 15.8293 7.64575 15.7597C7.57621 15.6893 7.53476 15.597 7.53476 15.49C7.53476 15.4845 7.53476 15.4704 7.53476 15.4454C7.534 15.2618 7.52849 14.6268 7.41824 14.0349C7.38075 13.8339 7.29859 13.654 7.19934 13.4945C7.0234 13.2154 6.79822 12.9855 6.56587 12.7392C6.21486 12.3733 5.84334 11.9779 5.55399 11.4388C5.26545 10.8992 5.0512 10.2135 5.05038 9.23336C5.05114 8.25007 5.37568 7.34767 5.92619 6.62011C6.47672 5.89327 7.25089 5.34434 8.14462 5.07698L8.25489 5.04339C8.47072 4.98785 8.69202 4.9437 8.91994 4.91981H8.92148L8.96373 4.91511C9.09742 4.90226 9.22719 4.89399 9.35549 4.89325L9.37815 4.89561L9.40083 4.89405C9.52822 4.89405 9.6588 4.90267 9.79177 4.91517H9.79015L9.83397 4.91987H9.83473C10.0622 4.94372 10.2836 4.98708 10.4986 5.04345L10.6104 5.07704C11.5042 5.3444 12.2783 5.8934 12.8288 6.62017C13.3785 7.34775 13.7038 8.25018 13.7038 9.23342C13.7039 9.98009 13.5788 10.5564 13.3927 11.0267L13.3927 11.0266ZM8.82673 4.04226C8.82673 4.04226 8.82749 4.04226 8.82827 4.04226H8.82673ZM10.827 17.1H7.92781C7.62832 17.1 7.38438 17.3424 7.38438 17.6442C7.38438 17.9429 7.6284 18.1869 7.92781 18.1869H10.827C11.1265 18.1869 11.3704 17.9429 11.3704 17.6442C11.3704 17.3423 11.1264 17.1 10.827 17.1ZM10.827 18.4715H7.92781C7.62832 18.4715 7.38438 18.7147 7.38438 19.0142C7.38438 19.3152 7.6284 19.5585 7.92781 19.5585H10.827C11.1265 19.5585 11.3704 19.3153 11.3704 19.0142C11.3704 18.7147 11.1264 18.4715 10.827 18.4715ZM9.63138 19.854H8.13831C8.13831 19.8704 8.13515 19.886 8.13515 19.9033C8.13515 20.2036 8.59653 20.4467 9.02308 20.4467H9.73154C10.1585 20.4467 10.6191 20.2035 10.6191 19.9033C10.6191 19.8861 10.6167 19.8705 10.6167 19.854H9.63142H9.63138Z" fill="#1A1A1A"/>
</svg>
