<svg width="45" height="45" viewBox="0 0 45 45" fill="none" xmlns="http://www.w3.org/2000/svg">
<rect width="45" height="45" rx="22.5" fill="#F5F5F5"/>
<g opacity="0.3">
<path fill-rule="evenodd" clip-rule="evenodd" d="M18.8428 21.214C19.0269 21.2134 19.2068 21.1567 19.3597 21.051C19.5126 20.9454 19.6316 20.7955 19.7017 20.6203C19.7718 20.4452 19.7898 20.2525 19.7536 20.0668C19.7173 19.8811 19.6283 19.7106 19.4979 19.5768C19.3675 19.4431 19.2014 19.3521 19.0208 19.3153C18.8401 19.2786 18.6529 19.2977 18.4828 19.3703C18.3127 19.443 18.1673 19.5658 18.065 19.7234C17.9628 19.8809 17.9082 20.0661 17.9082 20.2555C17.9082 20.3816 17.9324 20.5065 17.9794 20.623C18.0264 20.7394 18.0953 20.8452 18.1821 20.9343C18.2689 21.0233 18.372 21.0938 18.4853 21.1418C18.5987 21.1898 18.7202 21.2143 18.8428 21.214Z" fill="#1A1A1A"/>
<path fill-rule="evenodd" clip-rule="evenodd" d="M21.6794 21.214C21.8636 21.2134 22.0435 21.1567 22.1964 21.051C22.3492 20.9454 22.4682 20.7955 22.5383 20.6203C22.6084 20.4452 22.6265 20.2525 22.5902 20.0668C22.554 19.8811 22.465 19.7106 22.3346 19.5768C22.2041 19.4431 22.0381 19.3521 21.8574 19.3153C21.6768 19.2786 21.4896 19.2977 21.3194 19.3703C21.1493 19.443 21.004 19.5658 20.9017 19.7234C20.7995 19.8809 20.7449 20.0661 20.7449 20.2555C20.7463 20.5098 20.8454 20.7531 21.0204 20.9326C21.1954 21.1121 21.4323 21.2132 21.6794 21.214Z" fill="#1A1A1A"/>
<path fill-rule="evenodd" clip-rule="evenodd" d="M24.4195 21.2139C24.6036 21.2128 24.7832 21.1556 24.9357 21.0497C25.0882 20.9437 25.2067 20.7936 25.2764 20.6184C25.3461 20.4431 25.3638 20.2506 25.3272 20.0651C25.2906 19.8795 25.2014 19.7093 25.0709 19.5758C24.9404 19.4424 24.7743 19.3516 24.5937 19.3151C24.4131 19.2786 24.2261 19.2979 24.0561 19.3706C23.8862 19.4433 23.741 19.5662 23.6388 19.7237C23.5367 19.8811 23.4822 20.0662 23.4822 20.2555C23.4825 20.3818 23.5071 20.5067 23.5544 20.6232C23.6017 20.7397 23.6708 20.8454 23.7579 20.9344C23.8449 21.0234 23.9481 21.0939 24.0617 21.1419C24.1752 21.1898 24.2968 21.2143 24.4195 21.2139Z" fill="#1A1A1A"/>
<path d="M32.8057 20.6776C32.8057 20.9068 32.7172 21.1266 32.5596 21.2887C32.402 21.4508 32.1883 21.5418 31.9655 21.5418C31.7426 21.5418 31.5289 21.4508 31.3713 21.2887C31.2137 21.1266 31.1252 20.9068 31.1252 20.6776V18.1503C31.1281 17.6977 31.0768 17.2465 30.9726 16.8068C30.8714 16.3777 30.7196 15.9629 30.5206 15.5717C30.4683 15.473 30.4355 15.3647 30.4239 15.2529C30.4123 15.1411 30.4223 15.0281 30.4532 14.9203C30.4841 14.8125 30.5353 14.712 30.604 14.6246C30.6727 14.5371 30.7574 14.4645 30.8534 14.4107C31.0504 14.3068 31.2791 14.2859 31.4908 14.3524C31.7026 14.419 31.8808 14.5678 31.9876 14.7673C32.2551 15.2875 32.4599 15.8392 32.5977 16.4103C32.7361 16.9793 32.806 17.5637 32.8057 18.1503V20.6776ZM30.3404 12.6622C30.4228 12.7362 30.4904 12.8261 30.539 12.927C30.5877 13.0278 30.6166 13.1375 30.6241 13.2498C30.6316 13.3621 30.6174 13.4748 30.5826 13.5815C30.5477 13.6882 30.4927 13.7868 30.4208 13.8716C30.3489 13.9565 30.2614 14.0259 30.1634 14.076C30.0653 14.1261 29.9587 14.1558 29.8495 14.1635C29.7403 14.1712 29.6307 14.1566 29.527 14.1208C29.4233 14.0849 29.3274 14.0283 29.2449 13.9543L29.134 13.8659C29.0954 13.8277 29.0526 13.7942 29.0064 13.7661C28.8296 13.6276 28.7134 13.4226 28.6835 13.1961C28.6536 12.9695 28.7124 12.74 28.847 12.5581C28.9816 12.3761 29.1809 12.2566 29.4012 12.2259C29.6214 12.1951 29.8445 12.2556 30.0214 12.3941C30.063 12.4254 30.1185 12.4654 30.1823 12.5224L30.3487 12.6622H30.3404ZM27.9831 11.3044C28.0872 11.3393 28.1835 11.395 28.2666 11.4682C28.3498 11.5415 28.418 11.6309 28.4675 11.7313C28.5169 11.8317 28.5466 11.9412 28.5549 12.0535C28.5632 12.1657 28.5498 12.2786 28.5156 12.3855C28.4465 12.5998 28.2978 12.7774 28.1019 12.8794C27.9061 12.9815 27.679 12.9998 27.4701 12.9303C27.1994 12.8368 26.9209 12.769 26.6381 12.7278C26.3551 12.6775 26.0684 12.6527 25.7812 12.6536H18.0412C17.3377 12.6514 16.6408 12.7919 15.9902 13.067C15.3396 13.3422 14.7481 13.7466 14.2497 14.2572C13.7513 14.7677 13.3556 15.3744 13.0854 16.0424C12.8152 16.7105 12.6758 17.4267 12.675 18.1503V29.8824C15.4502 27.8872 18.7541 26.8168 22.14 26.816H24.7107C24.9314 26.816 25.143 26.9062 25.299 27.0666C25.4551 27.2271 25.5427 27.4448 25.5427 27.6717C25.5427 27.8987 25.4551 28.1163 25.299 28.2768C25.143 28.4373 24.9314 28.5275 24.7107 28.5275H22.14C18.5768 28.5253 15.1316 29.8415 12.4338 32.2356C12.3187 32.3596 12.1701 32.4452 12.0072 32.4813C11.8443 32.5174 11.6746 32.5024 11.5202 32.4381C11.3657 32.3739 11.2335 32.2634 11.1408 32.121C11.048 31.9786 10.999 31.8109 11 31.6395V18.1503C10.9989 17.2004 11.1805 16.2596 11.5343 15.3822C11.8882 14.5047 12.4073 13.7079 13.0617 13.0377C13.7162 12.3675 14.4931 11.837 15.3477 11.4769C16.2022 11.1167 17.1177 10.9341 18.0412 10.9393H25.7729C26.1498 10.9408 26.5261 10.9704 26.8988 11.0277C27.2667 11.0948 27.6291 11.1901 27.9831 11.313V11.3044Z" fill="#1A1A1A"/>
<path d="M25.551 27.7686C25.5374 27.9956 25.4367 28.2077 25.271 28.3583C25.1054 28.5088 24.8884 28.5856 24.6677 28.5716C24.4471 28.5576 24.2409 28.454 24.0945 28.2836C23.9481 28.1133 23.8735 27.89 23.8871 27.6631C23.9575 26.4839 24.362 25.3517 25.0507 24.4063C25.7394 23.4608 26.6821 22.7434 27.7626 22.3427C28.8431 21.9419 30.014 21.8752 31.1308 22.151C32.2477 22.4267 33.2616 23.0327 34.0475 23.8943C34.8334 24.7558 35.3569 25.8352 35.5533 26.9992C35.7497 28.1632 35.6106 29.3609 35.1529 30.4444C34.6953 31.528 33.9392 32.4501 32.9781 33.0968C32.0169 33.7436 30.8927 34.0867 29.7441 34.0839C28.5947 34.0858 27.4701 33.7412 26.509 33.0928C25.5479 32.4445 24.7926 31.5207 24.3363 30.4357C24.2481 30.2257 24.2445 29.9883 24.3264 29.7757C24.4083 29.563 24.569 29.3926 24.7731 29.3018C24.9772 29.211 25.208 29.2074 25.4148 29.2916C25.6215 29.3759 25.7872 29.5411 25.8755 29.7511C26.1976 30.5334 26.7388 31.1995 27.4302 31.6643C28.1217 32.1291 28.932 32.3717 29.758 32.361C30.8503 32.3321 31.8884 31.8655 32.651 31.0606C33.4137 30.2558 33.8405 29.1763 33.8405 28.0524C33.8405 26.9285 33.4137 25.8491 32.651 25.0442C31.8884 24.2394 30.8503 23.7727 29.758 23.7438C28.6906 23.7443 27.6626 24.1589 26.8794 24.9048C26.1038 25.6485 25.6336 26.6688 25.5649 27.7572L25.551 27.7686Z" fill="#1A1A1A"/>
<path d="M29.0869 25.5637C29.0869 25.3844 29.1562 25.2125 29.2794 25.0857C29.4027 24.9589 29.5698 24.8877 29.7442 24.8877C29.9185 24.8877 30.0856 24.9589 30.2089 25.0857C30.3322 25.2125 30.4014 25.3844 30.4014 25.5637V30.5412C30.4014 30.7205 30.3322 30.8925 30.2089 31.0193C30.0856 31.146 29.9185 31.2173 29.7442 31.2173C29.5698 31.2173 29.4027 31.146 29.2794 31.0193C29.1562 30.8925 29.0869 30.7205 29.0869 30.5412V25.5637Z" fill="#1A1A1A"/>
<path d="M31.7021 27.5805C31.7626 27.5168 31.8348 27.4661 31.9146 27.4316C31.9944 27.397 32.0801 27.3792 32.1666 27.3792C32.2532 27.3792 32.3389 27.397 32.4187 27.4316C32.4984 27.4661 32.5707 27.5168 32.6311 27.5805C32.7527 27.7075 32.8209 27.8786 32.8209 28.0569C32.8209 28.2351 32.7527 28.4062 32.6311 28.5332L30.2046 31.0206C30.0803 31.1452 29.9136 31.2149 29.7401 31.2149C29.5665 31.2149 29.3998 31.1452 29.2756 31.0206L26.8518 28.5332C26.7295 28.4066 26.6609 28.2354 26.6609 28.0569C26.6609 27.8784 26.7295 27.7072 26.8518 27.5805C26.912 27.5169 26.984 27.4663 27.0635 27.4317C27.1431 27.3972 27.2286 27.3794 27.3149 27.3794C27.4013 27.3794 27.4867 27.3972 27.5663 27.4317C27.6458 27.4663 27.7178 27.5169 27.778 27.5805L29.7442 29.5772L31.7021 27.5805Z" fill="#1A1A1A"/>
</g>
</svg>
