<svg width="719" height="886" viewBox="0 0 719 886" fill="none" xmlns="http://www.w3.org/2000/svg">
<mask id="mask0_190_820" style="mask-type:alpha" maskUnits="userSpaceOnUse" x="0" y="0" width="719" height="886">
<rect width="719" height="886" fill="#D9D9D9"/>
</mask>
<g mask="url(#mask0_190_820)">
<path d="M196 30C196 13.4315 209.431 0 226 0H719V796C719 812.569 705.569 826 689 826H226C209.431 826 196 812.569 196 796V30Z" fill="#FFC649"/>
<path d="M0 394C0 377.431 13.4315 364 30 364H623C639.569 364 653 377.431 653 394V856C653 872.569 639.569 886 623 886H30C13.4315 886 0 872.569 0 856V394Z" fill="#0033AE"/>
<path d="M373 302C373 285.431 386.431 272 403 272H689C705.569 272 719 285.431 719 302V886H403C386.431 886 373 872.569 373 856V302Z" fill="#FF671F"/>
<path d="M36 60C36 43.4315 49.4315 30 66 30H659C675.569 30 689 43.4315 689 60V826C689 842.569 675.569 856 659 856H66C49.4315 856 36 842.569 36 826V60Z" fill="#FFF7E5"/>
<circle cx="371" cy="527" r="260" fill="url(#paint0_linear_190_820)"/>
<g clip-path="url(#clip0_190_820)">
<path d="M587.14 576.534C586.305 576.446 585.452 576.401 584.589 576.401C573.008 576.401 563.62 584.591 563.62 594.694V622.837C563.62 623.513 563.673 624.176 563.775 624.827C559.574 624.028 555.818 622.186 552.883 619.627C548.888 616.142 546.417 611.325 546.417 606.006L533.808 606.243L546.417 592.954V582.686C546.417 577.633 548.764 573.06 552.559 569.749C556.352 566.438 561.594 564.39 567.385 564.39C576.493 564.39 584.246 569.456 587.14 576.534Z" fill="#0033AE"/>
<path d="M588.354 582.684V610.828C588.354 618.803 580.944 625.267 571.801 625.267H568.495C566.875 625.267 565.295 625.115 563.774 624.826C563.672 624.176 563.619 623.512 563.619 622.836V594.693C563.619 584.59 573.007 576.4 584.588 576.4C585.451 576.4 586.303 576.446 587.139 576.533C587.925 578.455 588.354 580.526 588.354 582.683V582.684Z" fill="#FFC649"/>
<path d="M618.165 618.253L605.556 618.016C605.556 623.335 603.085 628.151 599.09 631.635C595.094 635.121 589.575 637.277 583.478 637.277H580.17C571.802 637.277 564.885 631.86 563.773 624.827C565.293 625.116 566.873 625.268 568.493 625.268H571.8C580.943 625.268 588.352 618.804 588.352 610.829V582.686C588.352 580.528 587.924 578.457 587.138 576.536C591.909 577.04 596.185 578.943 599.414 581.76C603.209 585.07 605.555 589.644 605.555 594.695V604.963L618.164 618.253H618.165Z" fill="#FF671F"/>
<ellipse cx="570.451" cy="597.239" rx="3.57593" ry="3.57593" fill="white"/>
<ellipse cx="582.568" cy="596.986" rx="3.57593" ry="3.57593" fill="white"/>
</g>
<path d="M130.221 776.248C130.221 779.421 240.309 782 376.111 782C511.912 782 622 779.429 622 776.248C622 773.067 511.912 770.496 376.111 770.496C240.309 770.496 130.221 773.067 130.221 776.248Z" fill="#EDD9CC"/>
<path d="M478.156 470.695C477.761 433.541 456.24 427.334 433.974 425.824C424.581 425.189 394.553 425.375 374.805 425.594C355.057 425.386 325.029 425.189 315.637 425.824C293.37 427.334 267.7 435.052 267.306 472.206C267.306 472.206 268.192 739.203 271.925 755.481C275.658 771.759 285.259 779.641 310.842 780.167H438.768C464.362 779.641 473.952 771.759 477.685 755.481C481.418 739.203 478.145 470.695 478.145 470.695H478.156Z" fill="#280101"/>
<path d="M468.741 470.181C468.446 442.989 456.065 437.022 433.328 435.523C430.558 435.337 423.837 435.118 407.537 435.118C398.396 435.118 387.427 435.183 374.904 435.315H374.696C362.183 435.183 351.203 435.118 342.063 435.118C325.774 435.118 319.052 435.337 316.272 435.523C288.795 437.34 276.961 448.145 276.698 471.527C277.049 574.725 278.515 732.591 281.088 744.523C283.288 753.828 286.89 760.988 311.017 761.469H438.56C462.698 760.988 466.289 753.828 468.478 744.556C471.007 732.405 469.967 569.82 468.719 470.181H468.741Z" fill="white"/>
<path d="M347.744 442.616C345.489 442.616 343.376 443.897 342.544 445.955C342.238 446.711 342.117 447.543 342.336 448.429C343.135 451.593 344.471 451.856 350.36 451.593C355.473 451.363 395.977 451.921 406.081 451.987C408.379 451.998 408.894 450.4 409.748 448.298C410.076 447.488 410.23 446.557 410 445.539C409.201 441.85 403.442 442.901 401.297 442.638C399.425 442.408 358.68 442.584 347.722 442.638L347.744 442.616Z" fill="#4A1434"/>
<path d="M523.9 606.044C523.9 606.044 312.675 602.914 311.557 606.044C307.289 618.115 306.639 695.074 308.692 698.305C310.744 701.536 520.751 701.922 522.803 694.16C524.856 686.397 523.9 624.577 523.9 624.577C523.9 624.577 534.143 605.597 533.797 606.044C533.452 606.491 523.9 606.044 523.9 606.044Z" fill="#BBF1E4"/>
<path opacity="0.2" d="M500.815 639.148H338.788C338.788 639.148 337.752 633.641 338.788 632.442C339.825 631.243 500.002 631.812 500.815 633.275C501.607 634.738 500.815 639.148 500.815 639.148Z" fill="#357968"/>
<path opacity="0.2" d="M501.749 658.433H339.723C339.723 658.433 338.686 652.926 339.723 651.727C340.759 650.528 500.936 651.097 501.749 652.56C502.562 654.024 501.749 658.433 501.749 658.433Z" fill="#357968"/>
<path opacity="0.2" d="M500.815 675.118H338.788C338.788 675.118 337.752 669.611 338.788 668.412C339.825 667.213 500.002 667.782 500.815 669.245C501.607 670.708 500.815 675.118 500.815 675.118Z" fill="#357968"/>
<path d="M345.642 486.547C345.642 486.547 459.425 484.861 460.027 486.547C462.326 493.049 461.22 532.229 460.115 533.969C459.009 535.71 347.339 538.195 346.233 534.013C345.128 529.831 345.642 496.531 345.642 496.531C345.642 496.531 340.125 486.306 340.311 486.547C340.497 486.788 345.642 486.547 345.642 486.547Z" fill="#FAF4EC"/>
<path opacity="0.2" d="M358.078 504.369H445.358C445.358 504.369 445.917 501.402 445.358 500.756C444.8 500.11 358.516 500.417 358.078 501.205C357.651 501.993 358.078 504.369 358.078 504.369Z" fill="#9F7D50"/>
<path opacity="0.2" d="M357.574 514.768H444.855C444.855 514.768 445.413 511.802 444.855 511.156C444.297 510.51 358.012 510.816 357.574 511.605C357.137 512.393 357.574 514.768 357.574 514.768Z" fill="#9F7D50"/>
<path opacity="0.2" d="M358.078 523.756H404.953C404.953 523.756 405.511 520.789 404.953 520.143C404.395 519.497 358.516 519.804 358.078 520.592C357.64 521.38 358.078 523.756 358.078 523.756Z" fill="#9F7D50"/>
<path d="M343.289 549.514C343.289 549.514 457.072 547.828 457.674 549.514C459.973 556.016 458.867 586.613 457.761 588.354C456.656 590.094 344.985 592.579 343.88 588.398C342.774 584.216 343.289 559.498 343.289 559.498C343.289 559.498 337.771 549.273 337.957 549.514C338.144 549.755 343.289 549.514 343.289 549.514Z" fill="#FAF4EC"/>
<path opacity="0.2" d="M355.724 567.346H443.005C443.005 567.346 443.563 564.38 443.005 563.734C442.446 563.088 356.162 563.395 355.724 564.183C355.297 564.971 355.724 567.346 355.724 567.346Z" fill="#9F7D50"/>
<path opacity="0.2" d="M355.221 577.735H442.501C442.501 577.735 443.06 574.768 442.501 574.123C441.943 573.477 355.659 573.783 355.221 574.571C354.783 575.36 355.221 577.735 355.221 577.735Z" fill="#9F7D50"/>
<path d="M334.575 499.059C334.575 506.109 328.171 511.604 321.121 511.604C314.071 511.604 308.576 505.551 308.576 498.512C308.576 491.462 314.531 486.503 321.581 486.503C328.631 486.503 334.575 492.009 334.575 499.059Z" fill="#0033AE"/>
<path d="M317.18 503.132C318.516 505.77 323.913 505.321 325.85 503.427C325.85 503.427 325.796 500.461 322.139 500.143C320.486 500.001 317.706 500.603 317.18 503.132Z" fill="white"/>
<path d="M324.898 496.158C324.712 498.501 323.037 499.026 321.275 499.026C319.512 499.026 318.658 497.757 318.658 496.158C318.658 494.56 319.939 493.257 321.702 493.257C323.464 493.257 325.019 494.56 324.898 496.158Z" fill="white"/>
<path d="M376.852 752.088C380.842 752.088 384.077 748.853 384.077 744.863C384.077 740.872 380.842 737.638 376.852 737.638C372.862 737.638 369.627 740.872 369.627 744.863C369.627 748.853 372.862 752.088 376.852 752.088Z" fill="#560505"/>
<path d="M331.685 737.758C332.802 737.441 333.01 738.349 333.075 739.52C333.261 742.936 333.546 750.489 332.462 751.901C331.565 753.062 321.045 746.614 321.274 745.169C321.45 744.063 328.083 738.787 331.685 737.769V737.758Z" fill="#560505"/>
<path d="M432.912 737.112H421.352C420.856 737.112 420.454 737.514 420.454 738.01V749.57C420.454 750.066 420.856 750.468 421.352 750.468H432.912C433.407 750.468 433.809 750.066 433.809 749.57V738.01C433.809 737.514 433.407 737.112 432.912 737.112Z" fill="#560505"/>
<g clip-path="url(#clip1_190_820)">
<path d="M189.684 518.478C190.268 520.356 192.142 522.396 194.796 523.785C198.738 525.825 202.897 525.64 204.078 523.361C205.442 520.724 202.8 518.316 201.034 516.71C199.929 515.7 199.182 514.8 198.684 513.346C198.164 511.816 197.98 510.177 197.828 508.571C197.763 507.909 197.731 507.247 197.655 506.596C197.655 506.553 197.46 505.652 197.417 505.706L190.972 513.194L190.517 515.06C190.225 515.31 189.976 515.603 189.792 515.939C189.413 516.688 189.391 517.567 189.673 518.478H189.684Z" fill="#2C2A2B"/>
<path d="M160.202 481.975C163.928 484.905 169.322 484.254 172.257 480.521C175.181 476.788 174.531 471.384 170.806 468.443C167.08 465.514 161.686 466.165 158.751 469.897C155.827 473.63 156.477 479.034 160.202 481.975Z" fill="#000001"/>
<path d="M196.269 538.466C196.344 538.596 199.42 549.469 202.572 560.635C203.742 564.791 204.911 568.98 205.951 572.68C206.189 573.505 206.699 574.21 206.904 575.002C208.529 581.209 212.32 584.931 217.768 582.815L228.003 578.377L209.32 527.203C209.32 527.203 203.103 522.493 199.204 523.98C193.94 526.009 193.193 533.724 196.269 538.455V538.466Z" fill="#0033AE"/>
<path d="M202.572 560.635C203.742 564.791 204.911 568.98 205.951 572.68C206.189 573.505 206.504 574.286 206.904 575.002C206.612 568.394 210.197 561.047 209.991 560.798L205.529 558.421L202.572 560.635Z" fill="#2C2A2B"/>
<path d="M182.091 514.832C181.528 515.093 181.203 515.245 181.203 515.245L183.813 524.837L191.514 527.637L200.265 526.345C200.373 525.922 193.593 523.622 196.041 515.277C196.041 515.277 196.041 515.255 196.041 515.245C196.041 514.811 196.496 514.105 196.637 513.682C196.843 513.107 197.005 512.51 197.168 511.913C197.482 510.644 197.72 509.352 197.872 508.039C198.467 502.798 197.872 496.939 195.554 492.132C195.532 492.088 195.5 492.023 195.456 491.936C195.207 491.361 194.547 489.864 193.788 488.442C192.998 486.923 192.088 485.491 191.471 485.328C190.951 485.187 190.518 485.946 190.063 486.554C189.781 486.934 189.478 487.259 189.164 487.259C188.146 487.259 187.171 487.585 186.261 488.182C186.142 488.258 186.023 488.345 185.914 488.42C182.589 490.916 180.25 497.123 180.25 504.383C180.25 508.311 180.943 511.935 182.102 514.832H182.091Z" fill="#000001"/>
<path d="M157.018 529.449C162.304 534.256 165.185 543.685 164.513 549.61L163.842 558.845L163.82 559.029C163.766 559.593 163.712 560.168 163.657 560.754C163.582 561.536 163.517 562.436 163.43 563.402C162.899 563.402 161.448 584.421 158.61 594.87C167.643 595.033 176.698 594.903 185.73 594.458C186.803 594.892 187.918 595.304 189.066 595.684C199.464 599.07 210.273 595.196 210.273 595.196C210.749 593.72 210.11 591.094 208.865 589.217C206.959 586.341 205.637 584.084 205.237 581.079C204.738 577.313 204.478 573.526 204.413 569.696C204.619 568.437 204.814 567.135 205.031 565.8C205.031 565.746 205.031 565.681 205.052 565.627C205.139 565.594 205.182 565.583 205.182 565.583C209.157 563.847 210.858 561.297 210.966 558.313C210.858 556.251 210.045 553.202 208.518 550.446C208.475 550.359 208.421 550.283 208.377 550.207C208.15 549.816 207.912 549.426 207.652 549.035C207.013 548.069 206.309 547.082 205.529 546.105C205.312 539.736 209.58 529.091 209.352 527.42C209.341 527.376 209.32 527.311 209.309 527.268C209.006 526.584 208.572 526.085 207.998 525.835C204.338 524.24 199.94 522.721 197.103 521.712L184.409 537.891L165.878 522.927C165.304 522.2 164.567 521.625 163.647 521.234C163.647 521.234 154.007 525.38 153.162 526.834C152.74 527.919 154.343 527.051 157.007 529.47L157.018 529.449Z" fill="white"/>
<path d="M191.491 496.034C195.176 491.979 193.761 484.676 188.33 479.721C182.898 474.766 175.508 474.036 171.823 478.091C168.138 482.145 169.554 489.449 174.985 494.404C180.416 499.358 187.806 500.088 191.491 496.034Z" fill="#000001"/>
<path d="M159.552 557.249C159.552 557.325 159.574 557.401 159.585 557.477C159.704 558.194 159.823 558.877 159.931 559.593C160.397 562.501 163.69 582.63 163.69 582.63C165.672 584.225 169.896 590.563 177.445 590.617C181.16 582.023 180.044 568.22 176.199 567.894C162.867 566.777 165.044 548.742 164.892 548.525L159.747 556.121L159.531 557.249H159.552Z" fill="#2C2A2B"/>
<path d="M166.04 481.291C162.553 482.93 161.751 488.583 164.253 493.922C166.755 499.261 171.607 502.256 175.095 500.617C178.582 498.979 179.384 493.325 176.882 487.986C174.38 482.648 169.528 479.653 166.04 481.291Z" fill="#000001"/>
<path d="M178.409 525.195C185.276 525.195 191.265 523.567 194.482 521.137C194.644 521.017 194.785 520.898 194.937 520.779L197.417 521.788L197.319 521.896L184.409 538.726L164.892 523.708C167.242 524.186 175.625 525.195 178.398 525.195H178.409Z" fill="#0033AE"/>
<path d="M157.668 595.142C157.668 595.587 158.047 596.021 158.762 596.433C159.087 596.628 159.498 596.802 159.964 596.986C164.08 598.56 173.275 599.667 183.976 599.667C185.839 599.667 187.669 599.634 189.424 599.569C197.742 599.265 204.608 598.278 207.998 596.986C209.471 596.422 210.294 595.793 210.294 595.142C210.294 594.274 208.854 593.449 206.363 592.765C202.356 591.648 195.63 590.866 187.777 590.671C186.532 590.638 185.275 590.617 183.976 590.617C174.521 590.617 166.224 591.474 161.589 592.765C161.09 592.906 160.636 593.047 160.224 593.188C158.578 593.785 157.668 594.447 157.668 595.142Z" fill="#2C2A2B"/>
<path d="M168.163 521.777L170.643 524.446C172.993 524.924 175.625 525.195 178.409 525.195C185.611 525.195 191.86 523.394 194.936 520.779L193.55 520.214C191.362 519.314 189.759 517.458 189.142 515.255C188.947 514.594 188.86 513.899 188.86 513.183V498.74H173.925V514.018C173.925 516.666 172.549 519.118 170.286 520.497L168.174 521.788L168.163 521.777Z" fill="#FFB287"/>
<path d="M177.131 507.573C177.131 507.573 180.098 513.009 189.131 515.245C188.936 514.583 188.839 513.888 188.839 513.172V508.983L177.131 507.573Z" fill="#2C2A2B"/>
<path d="M153.758 582.023L159.661 577.661C160.711 576.022 161.459 574.166 162 572.257C163.191 568.057 163.397 563.641 163.668 560.7C163.722 560.114 163.776 559.539 163.831 558.975L163.852 558.79L164.524 549.556C165.195 543.631 163.246 533.713 158.014 528.841C155.458 526.454 153.585 526.356 153.184 526.758C152.816 527.398 147.205 542.676 143.718 572.832C143.046 578.615 147.292 581.979 153.769 582.001L153.758 582.023Z" fill="#0033AE"/>
<path d="M185.542 510.526L185.295 510.556C179.585 511.245 174.392 507.16 173.706 501.439L171.508 483.135L190.96 480.79L193.335 500.57C193.924 505.472 190.433 509.926 185.541 510.516L185.542 510.526Z" fill="#FFB287"/>
<path d="M185.709 488.92C187.376 486.695 191.936 486.597 192.824 489.516C192.846 489.603 192.749 489.679 192.662 489.647C191.579 489.223 190.647 489.299 189.586 489.451C188.525 489.571 187.485 489.961 186.467 490.146C185.784 490.298 185.275 489.44 185.698 488.909L185.709 488.92Z" fill="#2C2A2B"/>
<path d="M180.77 490.699C179.405 491.014 177.9 491.307 176.632 491.98C176.199 492.218 175.734 492.522 175.333 493C175.289 493.054 175.214 493.054 175.17 493.011C174.878 492.316 175.149 491.502 175.528 490.895C176.752 489.126 179.156 488.247 181.192 489.169C181.983 489.636 181.647 490.591 180.781 490.71L180.77 490.699Z" fill="#2C2A2B"/>
<path d="M177.64 496.157C177.64 496.157 177.586 496.157 177.553 496.146C177.412 496.103 177.337 495.951 177.38 495.81C177.402 495.756 177.802 494.508 178.788 493.813C178.961 493.683 179.134 493.596 179.319 493.531C179.838 493.325 180.38 493.314 180.867 493.488C181.376 493.651 181.745 493.965 181.918 494.117L181.983 494.172C182.124 494.215 182.167 494.356 182.124 494.497C182.08 494.638 181.896 494.703 181.755 494.66C181.69 494.638 181.647 494.595 181.56 494.53C181.409 494.399 181.106 494.139 180.694 493.998C180.315 493.857 179.914 493.879 179.503 494.041C179.362 494.096 179.221 494.161 179.091 494.269C178.257 494.855 177.889 495.973 177.878 495.984C177.846 496.092 177.737 496.168 177.618 496.168L177.64 496.157Z" fill="#2C2A2B"/>
<path d="M186.488 495.083C186.488 495.083 186.434 495.083 186.402 495.072C186.261 495.029 186.185 494.877 186.228 494.736C186.25 494.682 186.651 493.434 187.636 492.75C187.81 492.62 187.983 492.533 188.167 492.457C188.698 492.251 189.229 492.24 189.716 492.414C190.225 492.576 190.582 492.891 190.767 493.043L190.832 493.097C190.972 493.141 191.026 493.282 190.972 493.423C190.929 493.564 190.745 493.629 190.604 493.586C190.539 493.564 190.496 493.521 190.409 493.455C190.268 493.325 189.954 493.065 189.543 492.924C189.164 492.793 188.763 492.804 188.351 492.967C188.21 493.021 188.081 493.086 187.94 493.195C187.106 493.781 186.738 494.899 186.727 494.909C186.694 495.018 186.586 495.094 186.467 495.094L186.488 495.083Z" fill="#2C2A2B"/>
<path d="M188.525 494.074C188.6 494.66 189.12 495.083 189.694 495.018C190.268 494.953 190.68 494.41 190.615 493.824C190.539 493.238 190.019 492.815 189.445 492.88C188.871 492.945 188.46 493.488 188.525 494.074Z" fill="#2C2A2B"/>
<path d="M179.817 495.127C179.893 495.712 180.412 496.136 180.987 496.071C181.561 496.005 181.972 495.463 181.907 494.877C181.831 494.291 181.311 493.868 180.737 493.933C180.163 493.998 179.752 494.541 179.817 495.127Z" fill="#2C2A2B"/>
<path d="M184.138 499.369C184.138 499.369 184.052 499.369 184.03 499.369C183.878 499.369 183.759 499.25 183.77 499.098C183.77 498.946 183.889 498.838 184.041 498.838C184.073 498.838 184.117 498.838 184.149 498.838C184.745 498.838 185.665 498.773 186.109 498.599C186.001 497.828 185.21 494.356 184.691 492.186C184.658 492.045 184.745 491.893 184.886 491.86C185.026 491.828 185.178 491.915 185.21 492.056C186.813 498.805 186.727 498.859 186.521 498.99C185.947 499.337 184.561 499.369 184.138 499.369Z" fill="#A55930"/>
<path d="M174.954 568.231C174.824 568.231 174.705 568.231 174.575 568.231C174.423 568.231 174.304 568.112 174.315 567.96C174.315 567.808 174.455 567.678 174.585 567.699C178.82 567.743 181.766 566.777 181.788 566.766C187.182 564.411 188.698 560.32 186.283 554.624C186.228 554.482 186.283 554.331 186.423 554.276C186.564 554.222 186.716 554.276 186.77 554.417C189.294 560.364 187.626 564.802 181.972 567.276C181.831 567.319 179.069 568.253 174.943 568.253L174.954 568.231Z" fill="#2C2A2B"/>
<path d="M184.452 487.335C184.636 487.477 184.82 487.628 185.048 487.802C185.319 488.008 185.611 488.214 185.893 488.421C188.47 490.233 191.46 491.817 195.445 491.947C195.196 491.372 194.536 489.875 193.777 488.453C192.402 487.628 190.983 486.956 190.041 486.565C189.911 486.5 189.792 486.457 189.694 486.413C188.882 486.098 188.048 485.968 187.225 486.077C186.207 486.196 185.286 486.641 184.441 487.346L184.452 487.335Z" fill="#2C2A2B"/>
<path d="M171.575 480.249L178.734 477.927L181.896 479.642C181.896 479.642 181.994 479.533 182.059 479.49L180.737 475.735C182.839 476.137 184.951 476.549 187.052 476.951C190.442 477.602 193.994 478.036 197.092 479.653C199.334 480.825 201.695 483.733 200.677 486.163C199.323 489.397 195.749 491.025 189.954 489.777C187.604 489.267 185.525 488.366 183.933 487.248C183.933 487.248 183.911 487.227 183.868 487.194C183.196 486.728 177.737 483.06 174.401 485.903C170.849 488.941 174.477 496.852 174.477 496.852C174.477 496.852 171.358 499.239 171.239 498.903C171.12 498.566 165.25 486.608 165.25 486.608L171.596 480.239L171.575 480.249Z" fill="#000001"/>
<path d="M158.394 535.688C158.285 536.079 157.809 537.12 157.495 538.01H161.773C162.271 536.415 162.639 534.646 162.802 532.682C162.834 532.324 163.127 534.668 163.04 538.01H170.827C172.268 535.504 173.719 531.999 174.076 527.636C174.12 527.116 174.726 532.324 173.892 538.01H179.362C181.387 531.315 180.358 523.806 177.488 517.523C175.809 513.856 174.672 510.285 174.575 506.205L174.824 496.939L162.823 488.377C163.007 492.566 162.628 496.917 162.412 497.861C161.372 502.408 160.506 504.968 158.729 509.114C158.48 509.71 158.231 510.307 158.004 510.915C155.989 516.221 158.296 520.42 159 525.651C159.455 528.993 159.184 532.509 158.404 535.699L158.394 535.688Z" fill="#000001"/>
<path d="M171.055 500.975C172.885 502.418 175.159 502.581 176.134 501.344C177.109 500.107 176.405 497.926 174.575 496.483C172.744 495.04 170.47 494.877 169.495 496.114C168.52 497.351 169.224 499.532 171.055 500.975Z" fill="#FFB287"/>
<path d="M158.35 522.222C158.491 522.862 158.664 523.47 158.892 524.056C159.119 524.642 159.368 525.217 159.661 525.749C159.466 525.043 159.26 524.381 159.011 523.741C158.805 523.209 158.599 522.699 158.35 522.222Z" fill="#6B3217"/>
<path d="M172.679 483.071C172.625 483.071 172.56 483.049 172.517 483.017C172.473 482.984 168.369 479.815 165.704 481.78C165.585 481.866 165.423 481.845 165.325 481.725C165.239 481.606 165.26 481.443 165.379 481.345C168.358 479.143 172.658 482.452 172.831 482.593C172.95 482.68 172.972 482.854 172.874 482.973C172.82 483.038 172.744 483.082 172.668 483.082L172.679 483.071Z" fill="#2C2A2B"/>
<path d="M154.917 610.051H213.045L208.009 596.997L206.363 592.765C202.355 591.648 195.63 590.866 187.777 590.671C186.532 590.638 185.275 590.617 183.976 590.617C174.52 590.617 166.224 591.474 161.589 592.765L159.953 596.997L154.906 610.051H154.917Z" fill="#FFC649"/>
<path d="M165.553 648.898C174.932 650.526 185.254 636.148 188.59 616.779C188.99 614.489 189.272 612.243 189.434 610.04C189.716 606.362 189.705 602.846 189.434 599.569C189.153 596.314 188.59 593.319 187.777 590.66C186.532 590.628 185.275 590.606 183.976 590.606C174.52 590.606 166.224 591.463 161.589 592.754C161.09 592.896 160.635 593.037 160.224 593.178C159.704 594.219 159.217 595.305 158.762 596.433C156.975 600.73 155.556 605.613 154.646 610.876C151.289 630.245 156.173 647.26 165.553 648.888V648.898Z" fill="#FFC649"/>
<path d="M147.454 585.376C145.527 583.303 143.393 579.863 143.707 575.946C144.357 567.764 153.054 562.718 160.538 566.929C166.278 569.305 173.177 571.714 173.177 571.746C173.513 571.768 173.502 572.083 173.827 572.17C179.676 573.841 180.033 584.583 177.098 594.089C174.401 602.803 168.91 611.256 163.506 611.31C163.018 611.31 162.52 611.256 162.033 611.115C160.57 610.702 159.477 609.704 158.697 608.293C156.498 605.049 155.372 599.276 154.516 595.326C153.725 591.724 150.628 588.36 148.808 586.623C148.332 586.255 147.888 585.853 147.476 585.419C147.476 585.419 147.454 585.397 147.454 585.386V585.376Z" fill="#0033AE"/>
<path d="M212.601 565.182L223.995 557.966C230.212 554.027 236.429 550.088 242.646 546.16C244.021 545.281 250.184 541.19 250.184 541.19C253.509 541.428 258.827 554.84 260.213 560.657C261.437 565.8 263.322 573.016 260.646 577.986C259.163 580.742 256.043 581.089 253.249 580.547C251.191 580.145 249.307 579.201 247.335 578.539C245.191 577.812 243.079 577.693 240.848 578.084L219.468 583.954C214.702 584.996 210.879 583.14 208.94 580.167C206.601 576.575 208.172 567.905 212.59 565.192L212.601 565.182Z" fill="#0033AE"/>
<path d="M247.325 561.037C247.357 561.427 247.401 561.818 247.455 562.23C248.884 573.548 254.343 581.176 258.491 580.037C262.672 578.854 262.964 570.781 260.289 560.581C259.683 558.118 259 555.698 258.275 553.462C256.877 549.144 255.296 545.465 253.704 543.273C252.718 541.906 251.744 541.103 250.801 541.081C249.339 541.027 248.18 543.317 247.541 546.952C246.892 550.619 246.762 555.644 247.336 561.058L247.325 561.037Z" fill="#2C2A2B"/>
<path d="M164.026 611.245C167.719 611.744 173.589 605.299 177.315 594.447C178.69 590.389 179.254 586.439 179.167 583.01C179.059 578.67 177.9 575.165 176.048 573.277C175.409 572.626 174.705 572.17 173.914 571.931C173.47 571.801 173.048 571.736 172.614 571.736C169.343 571.736 166.549 575.555 164.621 581.6C163.993 583.564 163.473 585.766 163.051 588.143C160.993 598.701 156.65 610.247 164.026 611.245Z" fill="#2C2A2B"/>
<path d="M167.415 538.097C167.351 538.097 167.296 538.075 167.242 538.032C167.134 537.934 167.112 537.771 167.21 537.652C168.888 535.634 171.282 529.677 167.935 524.11C167.86 523.98 167.903 523.817 168.022 523.741C168.152 523.665 168.314 523.708 168.39 523.828C171.889 529.633 169.387 535.873 167.621 537.988C167.567 538.054 167.491 538.086 167.415 538.086V538.097Z" fill="#2C2A2B"/>
<path d="M158.383 608.044C158.296 608.044 158.22 608 158.166 607.935C154.765 603.226 154.635 596.9 154.549 592.288C154.494 589.749 154.451 587.546 153.834 586.689C153.747 586.569 153.769 586.407 153.888 586.309C154.007 586.222 154.169 586.244 154.267 586.363C154.993 587.351 155.036 589.521 155.09 592.266C155.177 596.813 155.307 603.031 158.61 607.61C158.697 607.729 158.675 607.892 158.545 607.979C158.502 608.011 158.448 608.033 158.383 608.033V608.044Z" fill="#2C2A2B"/>
<path d="M177.207 610.127L178.095 611.809L180.358 616.085L200.59 654.357L207.598 667.617L207.273 672.478L201.457 758.745L206.114 761.382L245.743 758.745L239.364 664.101C239.158 661.171 238.389 658.306 237.079 655.67L207.858 596.65L177.196 610.127H177.207Z" fill="#FFC649"/>
<path d="M200.59 654.357L207.597 667.617L207.273 672.478L207.337 672.456C207.922 665.956 208.431 664.177 209.341 662.473C207.912 661.779 204.034 660.867 192.889 633.49C188.286 622.161 189.261 614.229 189.164 613.947L180.358 616.084L200.59 654.357Z" fill="#2C2A2B"/>
<path d="M201.457 758.745C201.901 760.763 205.291 762.098 211.377 762.662C214.323 762.923 217.908 763.031 222.1 762.944C223.627 762.912 225.089 762.879 226.486 762.814C228.804 762.727 230.916 762.619 232.855 762.478C235.281 762.282 237.393 762.054 239.169 761.751C243.166 761.067 245.44 760.101 245.754 758.734C246.187 756.781 242.018 754.784 231.945 756.217C229.844 756.51 227.494 756.965 224.873 757.584C221.374 758.419 218.385 759.005 215.829 759.385C214.962 759.526 214.139 759.635 213.381 759.711C212.71 759.797 212.081 759.863 211.475 759.906C203.146 760.611 201.478 758.723 201.478 758.723L201.457 758.745Z" fill="#2C2A2B"/>
<path d="M160.917 771.625L164.816 772.96C166.473 773.535 168.282 773.503 169.928 772.895L173.968 771.397C175.777 770.725 176.957 768.988 176.925 767.068L176.838 761.848C177.585 759.331 175.149 757.041 172.69 757.953C172.69 757.953 160.614 759.678 158.837 761.371L157.841 766.232C157.365 768.544 158.686 770.855 160.917 771.614V771.625Z" fill="#2C2A2B"/>
<path d="M167.686 765.212C174.109 762.358 176.654 760.438 176.654 760.438L160.159 760.524L167.686 765.212Z" fill="#FFB287"/>
<path d="M144.108 759.06C144.075 759.136 144.032 759.212 144.032 759.298C144.032 761.327 153.92 762.988 166.105 762.988C178.29 762.988 187.225 761.49 188.091 759.591H188.221L187.062 662.202L189.651 607.371L153.585 623.138L153.79 627.261L153.823 627.88C153.823 627.977 153.823 628.075 153.823 628.173L153.899 629.583V629.638L155.361 659.142C155.491 661.714 155.393 664.296 155.09 666.857L154.321 673.249C154.321 673.249 154.321 673.281 154.321 673.292L144.032 759.049H144.108V759.06Z" fill="#FFC649"/>
<path d="M187.756 647.868C187.604 647.868 187.496 647.737 187.496 647.596C187.593 644.384 188.449 616.215 189.066 614.717C189.716 613.144 193.128 611.57 193.268 611.505C193.398 611.44 193.561 611.505 193.626 611.635C193.691 611.766 193.626 611.928 193.496 611.994C192.564 612.417 190.03 613.784 189.564 614.923C189.12 615.987 188.405 635.052 188.037 647.607C188.037 647.748 187.918 647.868 187.766 647.868H187.756Z" fill="#2C2A2B"/>
<path d="M189.402 604.615C189.25 604.615 189.142 604.485 189.142 604.333C189.185 603.15 189.218 601.794 189.24 600.394C189.294 596.954 189.25 593.058 189.196 590.725C189.196 590.573 189.305 590.454 189.456 590.454C189.597 590.454 189.716 590.573 189.727 590.715C189.781 593.058 189.824 596.954 189.77 600.405C189.749 601.804 189.716 603.172 189.673 604.354C189.673 604.496 189.554 604.615 189.402 604.615Z" fill="#2C2A2B"/>
<path d="M209.341 599.895H209.027C207.305 599.895 204.218 599.84 202.139 599.797H201.337C200.536 599.764 200.027 599.753 200.016 599.753C199.886 599.753 199.778 599.656 199.756 599.526L198.456 591.431C198.435 591.29 198.532 591.148 198.673 591.127C198.825 591.105 198.955 591.203 198.976 591.355L200.243 599.233C200.471 599.233 200.85 599.243 201.337 599.254H202.139C204.207 599.298 207.294 599.352 209.016 599.363H209.33C209.482 599.363 209.601 599.482 209.601 599.634C209.601 599.786 209.482 599.905 209.33 599.905L209.341 599.895Z" fill="#2C2A2B"/>
<path d="M168.704 599.895C168.141 599.895 167.773 599.895 167.697 599.873C167.556 599.84 167.459 599.699 167.481 599.558C167.513 599.417 167.654 599.319 167.795 599.341C168.141 599.395 173.882 599.298 177.781 599.222L179.167 590.628C179.189 590.476 179.329 590.389 179.47 590.4C179.611 590.422 179.719 590.563 179.687 590.704L178.268 599.515C178.246 599.645 178.138 599.743 178.008 599.743C176.676 599.764 171.033 599.873 168.694 599.873L168.704 599.895Z" fill="#2C2A2B"/>
<path d="M206.753 680.551C206.753 680.551 206.742 680.551 206.731 680.551C206.579 680.551 206.471 680.41 206.482 680.269C206.699 677.079 206.883 674.518 207.067 672.435C207.652 665.978 208.161 664.101 209.103 662.354C209.222 662.126 209.352 661.898 209.493 661.648C209.569 661.518 209.731 661.475 209.861 661.551C209.991 661.627 210.034 661.79 209.959 661.92C209.829 662.148 209.699 662.365 209.59 662.593C208.681 664.285 208.182 666.108 207.608 672.478C207.424 674.561 207.24 677.122 207.023 680.302C207.023 680.443 206.894 680.551 206.753 680.551Z" fill="#2C2A2B"/>
<path d="M155.372 659.153C155.502 661.724 155.404 664.307 155.101 666.868L154.332 673.259C154.57 672.5 158.123 664.459 157.137 655.518C156.217 647.206 154.386 636.756 153.91 629.648L155.372 659.153Z" fill="#2C2A2B"/>
<path d="M213.359 759.732C215.764 760.372 220.854 761.696 226.486 762.825C232.151 763.975 238.454 764.919 243.003 764.691C243.003 764.691 241.368 763.443 239.158 761.761C236.981 760.09 234.241 757.985 231.934 756.227C229.833 756.52 227.483 756.976 224.862 757.595C220.172 758.723 216.392 759.385 213.359 759.732Z" fill="#FFB287"/>
<path d="M225.317 770.29V766.666L236.396 770.29H254.105C255.827 770.29 257.506 769.867 259.022 769.043C259.867 768.576 259.65 767.285 258.697 767.144L232.855 762.488L215.818 759.407C214.952 759.548 214.128 759.656 213.37 759.732C212.699 759.819 212.071 759.884 211.464 759.928L211.388 762.673L211.193 770.29H225.327H225.317Z" fill="#2C2A2B"/>
<path d="M169.896 573.081C168.878 573.602 174.001 578.073 175.246 576.836C180.401 571.725 184.95 566.191 184.647 564.563C184.669 564.238 184.301 564.042 184.041 564.238C184.041 564.238 177.434 569.24 169.896 573.092V573.081Z" fill="#FFB287"/>
<path d="M178.983 581.751C178.831 582.576 179.026 583.412 179.524 584.084L179.719 584.345L185.34 555.557C185.265 553.43 185.915 552.909 186.662 552.92L212.406 552.963L211.637 552.28C211.237 551.704 210.587 551.368 209.883 551.357L185.709 551.238C185.005 551.238 184.398 551.737 184.268 552.431L178.961 581.74L178.983 581.751Z" fill="#2C2A2B"/>
<path d="M184.81 553.701L179.373 583.379C179.254 584.03 179.752 584.638 180.423 584.638H205.074C205.767 584.638 206.363 584.149 206.504 583.477L212.645 553.875C212.785 553.213 212.276 552.594 211.605 552.594L186.25 552.507C185.546 552.507 184.94 553.006 184.81 553.701Z" fill="#FF671F"/>
<path d="M195.251 563.684C195.326 564.813 196.518 565.659 197.904 565.572C199.29 565.474 200.363 564.487 200.287 563.348C200.211 562.208 199.02 561.373 197.633 561.46C196.247 561.557 195.175 562.545 195.251 563.684Z" fill="#2C2A2B"/>
<path d="M247.325 561.037L258.264 553.452L260.711 551.748L254.82 542.579L253.682 543.262L247.52 546.941C246.87 550.609 246.74 555.633 247.314 561.048L247.325 561.037Z" fill="#FFB287"/>
<path d="M254.841 543.1L258.264 553.397C258.264 553.397 269.344 551.553 271.629 549.48C273.329 547.928 267.99 541.005 267.99 541.005L254.841 543.1Z" fill="#FFB287"/>
<path d="M250.834 545.161C249.989 545.943 256.141 548.84 257.007 547.31C260.571 540.984 263.43 534.419 262.704 532.921C262.639 532.607 262.228 532.509 262.033 532.769C262.033 532.769 257.04 539.399 250.845 545.161H250.834Z" fill="#FFB287"/>
<path d="M267.827 544.033C267.99 543.989 268.185 543.913 268.326 543.848L268.553 543.718C268.715 543.62 268.802 543.555 268.932 543.469C269.16 543.306 269.376 543.143 269.582 542.98C269.994 542.655 270.373 542.318 270.752 541.982C271.499 541.298 272.214 540.593 272.896 539.855C274.001 538.662 275.593 536.665 276.73 535.048C277.001 534.657 276.676 534.137 276.21 534.213C275.366 534.354 274.597 534.798 274.033 535.439C273.178 536.415 272.29 537.218 271.239 538.184C270.546 538.813 269.831 539.421 269.095 539.985C268.726 540.267 268.358 540.539 267.979 540.788C267.795 540.919 267.611 541.027 267.437 541.136C267.362 541.179 267.253 541.244 267.199 541.266L267.113 541.309C267.113 541.309 267.21 541.255 267.275 541.255L267.827 544.022V544.033Z" fill="#FFB287"/>
<path d="M267.935 545.964C268.098 545.921 268.293 545.856 268.423 545.791L268.661 545.671C268.834 545.584 268.954 545.509 269.105 545.433C269.387 545.27 269.647 545.107 269.907 544.955C270.427 544.63 270.936 544.293 271.434 543.946C272.43 543.251 273.394 542.524 274.336 541.743C276.026 540.333 278.095 538.184 279.503 536.22C279.687 535.97 279.503 535.612 279.189 535.612C278.127 535.601 277.098 536.025 276.383 536.817C275.365 537.956 274.282 538.889 272.896 539.888C271.975 540.56 271.011 541.19 270.037 541.776C269.549 542.069 269.051 542.351 268.553 542.622C268.304 542.752 268.055 542.883 267.816 543.002C267.697 543.056 267.567 543.121 267.47 543.165L267.318 543.23C267.318 543.23 267.361 543.208 267.383 543.208L267.935 545.975V545.964Z" fill="#FFB287"/>
<path d="M268.477 548.786C268.618 548.731 268.77 548.677 268.878 548.623L269.127 548.493C269.3 548.406 269.43 548.319 269.582 548.243C269.874 548.07 270.156 547.907 270.427 547.733C270.979 547.386 271.521 547.028 272.04 546.648C273.091 545.899 274.12 545.118 275.095 544.272C276.795 542.807 279.091 540.561 280.618 538.564C280.878 538.228 280.608 537.739 280.174 537.772H280.012C279.026 537.869 278.127 538.358 277.467 539.096C276.329 540.354 275.138 541.309 273.633 542.449C272.669 543.176 271.651 543.859 270.622 544.5C270.102 544.814 269.582 545.118 269.062 545.411C268.802 545.552 268.531 545.693 268.271 545.823C268.141 545.878 268.001 545.954 267.892 546.008L267.719 546.084C267.719 546.084 267.697 546.084 267.687 546.095L268.466 548.807L268.477 548.786Z" fill="#FFB287"/>
<path d="M268.629 550.858L268.975 550.761L269.203 550.674L269.636 550.5C269.82 550.424 269.994 550.348 270.178 550.261C270.535 550.099 270.892 549.936 271.239 549.762C272.539 549.1 273.795 548.384 274.986 547.549C276.654 546.398 278.821 544.358 280.239 542.503C280.499 542.166 280.272 541.678 279.849 541.646C279.048 541.591 278.257 541.895 277.705 542.481C276.579 543.686 275.192 544.695 273.73 545.563C272.571 546.257 271.347 546.843 270.113 547.364C269.799 547.494 269.474 547.614 269.16 547.733C268.997 547.787 268.835 547.852 268.683 547.907L268.326 548.015L268.152 548.069C268.152 548.069 268.109 548.069 268.098 548.08L268.651 550.847L268.629 550.858Z" fill="#FFB287"/>
<path d="M182.47 576.293C182.654 576.337 182.882 576.369 183.044 576.38H183.337C183.553 576.38 183.672 576.348 183.846 576.337C184.16 576.304 184.441 576.261 184.734 576.207C185.308 576.109 185.849 575.99 186.402 575.859C187.496 575.599 188.557 575.284 189.608 574.937C191.319 574.362 193.929 573.288 195.889 572.322C196.366 572.094 196.323 571.41 195.825 571.237C194.926 570.922 193.951 570.944 193.052 571.269C191.698 571.758 190.409 572.072 188.882 572.441C187.875 572.68 186.857 572.886 185.849 573.049C185.34 573.125 182.687 573.483 182.741 573.515L182.481 576.293H182.47Z" fill="#FFB287"/>
<path d="M183.651 578.127C183.824 578.16 184.03 578.182 184.171 578.182H184.452C184.647 578.171 184.788 578.149 184.961 578.138C185.297 578.116 185.6 578.073 185.914 578.04C186.532 577.965 187.149 577.867 187.755 577.758C188.979 577.552 190.182 577.292 191.384 576.966C193.55 576.391 196.388 575.295 198.532 574.091C198.814 573.939 198.792 573.526 198.5 573.396C197.525 572.93 196.388 572.875 195.391 573.298C193.961 573.917 192.564 574.308 190.853 574.633C189.716 574.861 188.557 575.024 187.398 575.143C186.824 575.208 186.239 575.252 185.665 575.284C185.384 575.295 185.091 575.317 184.82 575.317C184.69 575.317 184.539 575.317 184.43 575.317H184.257C184.257 575.317 184.311 575.317 184.333 575.317L183.661 578.116L183.651 578.127Z" fill="#FFB287"/>
<path d="M181.885 580.818C182.037 580.829 182.21 580.84 182.329 580.84H182.611C182.806 580.818 182.957 580.807 183.142 580.786C183.488 580.753 183.813 580.721 184.149 580.677C184.81 580.59 185.459 580.493 186.109 580.373C187.409 580.135 188.687 579.853 189.954 579.494C192.153 578.876 195.24 577.791 197.514 576.597C197.904 576.391 197.861 575.827 197.449 575.675L197.287 575.621C196.333 575.273 195.294 575.338 194.373 575.729C192.781 576.402 191.265 576.771 189.391 577.172C188.178 577.433 186.954 577.617 185.73 577.769C185.113 577.845 184.506 577.899 183.889 577.932C183.586 577.954 183.282 577.964 182.99 577.975C182.849 577.975 182.687 577.975 182.568 577.975H182.373C182.373 577.975 182.351 577.964 182.34 577.975L181.896 580.818H181.885Z" fill="#FFB287"/>
<path d="M180.856 582.229L181.214 582.272H181.463L181.929 582.305C182.134 582.305 182.329 582.305 182.524 582.305C182.925 582.305 183.315 582.305 183.716 582.272C185.2 582.186 186.662 582.034 188.124 581.752C190.149 581.361 193.009 580.352 195.088 579.202C195.467 578.995 195.456 578.442 195.077 578.247C194.352 577.867 193.485 577.823 192.738 578.149C191.189 578.811 189.489 579.191 187.766 579.397C186.402 579.57 185.026 579.614 183.651 579.581C183.304 579.581 182.958 579.549 182.611 579.527C182.438 579.516 182.264 579.505 182.091 579.484L181.712 579.44L181.539 579.419C181.539 579.419 181.495 579.408 181.474 579.408L180.856 582.218V582.229Z" fill="#FFB287"/>
<path d="M164.621 581.599L169.69 582.771C171.629 583.216 173.621 583.401 175.614 583.281C176.665 583.216 177.91 583.129 179.178 583.021C182.351 582.75 185.709 582.283 186.954 581.578C188.882 580.46 184.745 573.429 184.745 573.429L176.058 573.287L175.04 573.266L175.17 572.636C175.17 572.636 174.141 572.267 172.625 571.747C169.354 571.747 166.56 575.566 164.632 581.61L164.621 581.599Z" fill="#FFB287"/>
<path d="M184.658 578.594C184.517 578.594 184.409 578.485 184.387 578.344C184.376 578.192 184.485 578.062 184.625 578.051C191.806 577.432 196.929 574.709 198.337 573.895L198.521 574.101L198.608 574.362C197.178 575.197 191.969 577.964 184.68 578.594C184.68 578.594 184.669 578.594 184.658 578.594Z" fill="#A55930"/>
<path d="M184.864 581.111C184.734 581.111 184.615 581.013 184.593 580.872C184.582 580.72 184.68 580.59 184.831 580.579C191.048 579.928 197.308 576.413 197.363 576.369C197.492 576.293 197.655 576.337 197.731 576.467C197.807 576.597 197.763 576.76 197.633 576.836C197.568 576.868 191.211 580.449 184.886 581.111C184.886 581.111 184.864 581.111 184.853 581.111H184.864Z" fill="#A55930"/>
<path d="M184.658 576.25C184.517 576.25 184.398 576.141 184.387 576C184.376 575.848 184.485 575.729 184.636 575.707C187.593 575.479 190.442 574.394 190.474 574.383C190.615 574.329 190.767 574.405 190.821 574.535C190.875 574.676 190.799 574.828 190.669 574.883C190.55 574.926 187.712 576 184.68 576.239C184.68 576.239 184.669 576.239 184.658 576.239V576.25Z" fill="#A55930"/>
<path d="M257.235 546.756C257.159 546.756 257.083 546.724 257.029 546.659C256.932 546.539 256.953 546.377 257.062 546.279C257.906 545.584 259.033 543.512 260.159 540.604C260.192 540.528 260.213 540.473 260.213 540.463C260.278 540.332 260.441 540.267 260.571 540.332C260.701 540.398 260.766 540.549 260.701 540.691L260.657 540.799C259.975 542.557 258.654 545.66 257.408 546.691C257.354 546.735 257.3 546.756 257.235 546.756Z" fill="#A55930"/>
<path d="M261.134 548.536C261.08 548.536 261.026 548.514 260.971 548.482C259.661 547.494 256.834 547.255 255.643 548.351C255.534 548.449 255.361 548.438 255.264 548.33C255.166 548.221 255.177 548.048 255.285 547.95C256.693 546.669 259.823 546.93 261.296 548.048C261.415 548.134 261.437 548.308 261.35 548.427C261.296 548.492 261.221 548.536 261.134 548.536Z" fill="#A55930"/>
<path d="M173.947 498.534C173.86 498.534 173.773 498.49 173.719 498.414C173.665 498.328 172.409 496.407 170.351 497.318C170.21 497.373 170.058 497.318 169.993 497.177C169.939 497.036 169.993 496.884 170.134 496.819C172.614 495.734 174.152 498.1 174.174 498.121C174.25 498.241 174.217 498.414 174.087 498.49C174.044 498.523 173.99 498.534 173.947 498.534Z" fill="#A55930"/>
<path d="M186.239 502.928C186.239 503.015 186.239 503.113 186.207 503.189C185.99 504.035 184.68 504.415 183.293 504.046C181.907 503.688 180.965 502.701 181.181 501.854C181.214 501.767 181.236 501.691 181.279 501.615C181.929 501.974 182.752 502.31 183.683 502.549C184.615 502.787 185.492 502.907 186.239 502.928Z" fill="#2C2A2B"/>
<path d="M186.239 502.928C185.492 502.918 184.615 502.787 183.683 502.549C182.752 502.31 181.939 501.974 181.279 501.615C181.669 500.932 182.849 500.661 184.095 500.986C185.329 501.301 186.218 502.125 186.228 502.918L186.239 502.928Z" fill="white"/>
</g>
<path opacity="0.5" fill-rule="evenodd" clip-rule="evenodd" d="M542.013 19.9373C542.931 11.2312 544.709 2.59863 547.346 -5.82294L634.177 -92.654C642.599 -95.291 651.231 -97.0685 659.937 -97.9867L542.013 19.9373ZM582.879 130.402C586.432 133.759 590.124 136.882 593.937 139.771L779.771 -46.0625C776.882 -49.8757 773.759 -53.5683 770.402 -57.1209L582.879 130.402ZM621.03 155.618C616.406 153.609 611.873 151.325 607.457 148.764L788.764 -32.5435C791.325 -28.1267 793.609 -23.5938 795.618 -18.9698L621.03 155.618ZM637.618 161.542C643.155 163.112 648.773 164.315 654.436 165.152L805.152 14.4358C804.315 8.77347 803.112 3.15485 801.542 -2.38168L637.618 161.542ZM698.163 164.364C690.683 165.747 683.107 166.484 675.525 166.574L806.574 35.5254C806.484 43.1074 805.747 50.6831 804.364 58.1628L698.163 164.364ZM731.613 153.427C744.666 147.125 756.902 138.56 767.731 127.731C778.56 116.902 787.125 104.666 793.427 91.6127L731.613 153.427ZM758.8 -68.0312L571.969 118.8C568.819 115.025 565.912 111.116 563.247 107.094L747.094 -76.7529C751.116 -74.0881 755.025 -71.1808 758.8 -68.0312ZM555.02 92.8093L732.809 -84.9798C728.126 -87.2996 723.333 -89.3257 718.46 -91.058L548.942 78.4603C550.674 83.3335 552.7 88.1257 555.02 92.8093ZM544.026 60.8647C542.8 54.9239 541.984 48.9153 541.578 42.8843L682.884 -98.4217C688.915 -98.0162 694.924 -97.2004 700.865 -95.9745L544.026 60.8647Z" fill="white"/>
<path d="M117.621 116.277L121.928 107.015H129.242L121.022 122.242V132H114.22V122.447L106 107.015H113.349L117.621 116.277ZM155.321 119.473C155.321 121.399 155.088 123.153 154.621 124.737C154.165 126.309 153.447 127.665 152.467 128.804C151.487 129.944 150.229 130.821 148.69 131.436C147.152 132.04 145.312 132.342 143.17 132.342C141.074 132.342 139.257 132.04 137.719 131.436C136.192 130.821 134.933 129.949 133.942 128.821C132.951 127.682 132.216 126.32 131.737 124.737C131.259 123.153 131.02 121.387 131.02 119.439C131.02 116.841 131.447 114.585 132.301 112.671C133.167 110.746 134.5 109.259 136.3 108.211C138.1 107.151 140.402 106.622 143.205 106.622C146.053 106.622 148.366 107.151 150.143 108.211C151.932 109.271 153.242 110.763 154.074 112.688C154.905 114.614 155.321 116.875 155.321 119.473ZM138.129 119.473C138.129 120.977 138.3 122.27 138.642 123.353C138.983 124.435 139.525 125.267 140.265 125.848C141.006 126.429 141.974 126.719 143.17 126.719C144.412 126.719 145.398 126.429 146.127 125.848C146.868 125.267 147.397 124.435 147.716 123.353C148.047 122.27 148.212 120.977 148.212 119.473C148.212 117.217 147.836 115.434 147.084 114.124C146.332 112.814 145.039 112.159 143.205 112.159C141.986 112.159 141 112.455 140.248 113.047C139.507 113.64 138.966 114.483 138.625 115.577C138.294 116.67 138.129 117.969 138.129 119.473ZM181.076 107.015V122.054C181.076 124.15 180.677 125.973 179.879 127.522C179.082 129.061 177.886 130.251 176.291 131.094C174.695 131.926 172.696 132.342 170.292 132.342C166.851 132.342 164.225 131.459 162.414 129.693C160.602 127.927 159.696 125.432 159.696 122.208V107.015H166.481V121.678C166.481 123.444 166.811 124.725 167.472 125.523C168.133 126.32 169.107 126.719 170.395 126.719C171.317 126.719 172.069 126.548 172.65 126.207C173.231 125.853 173.653 125.301 173.915 124.549C174.188 123.797 174.325 122.828 174.325 121.644V107.015H181.076ZM194.508 107.015C196.776 107.015 198.661 107.294 200.165 107.852C201.669 108.399 202.797 109.219 203.549 110.313C204.312 111.407 204.694 112.768 204.694 114.397C204.694 115.411 204.523 116.334 204.181 117.166C203.839 117.998 203.349 118.744 202.711 119.405C202.085 120.054 201.333 120.624 200.456 121.114L207.736 132H200.08L194.782 122.908H193.073V132H186.322V107.015H194.508ZM194.406 112.125H193.073V117.833H194.337C195.374 117.833 196.223 117.605 196.884 117.149C197.545 116.693 197.875 115.879 197.875 114.705C197.875 113.896 197.602 113.264 197.055 112.808C196.508 112.352 195.625 112.125 194.406 112.125ZM217.135 139.844C216.372 139.844 215.705 139.804 215.136 139.725C214.555 139.656 214.053 139.576 213.632 139.485V134.239C213.996 134.307 214.384 134.381 214.794 134.461C215.204 134.552 215.648 134.598 216.127 134.598C216.936 134.598 217.562 134.432 218.007 134.102C218.463 133.772 218.782 133.276 218.964 132.615C219.146 131.954 219.237 131.128 219.237 130.137V107.015H226.022V129.556C226.022 132.063 225.646 134.068 224.894 135.572C224.142 137.076 223.1 138.164 221.767 138.836C220.434 139.508 218.89 139.844 217.135 139.844ZM254.818 119.473C254.818 121.399 254.585 123.153 254.118 124.737C253.662 126.309 252.944 127.665 251.964 128.804C250.985 129.944 249.726 130.821 248.188 131.436C246.649 132.04 244.809 132.342 242.667 132.342C240.571 132.342 238.754 132.04 237.216 131.436C235.689 130.821 234.43 129.949 233.439 128.821C232.448 127.682 231.713 126.32 231.234 124.737C230.756 123.153 230.517 121.387 230.517 119.439C230.517 116.841 230.944 114.585 231.798 112.671C232.664 110.746 233.997 109.259 235.797 108.211C237.597 107.151 239.899 106.622 242.702 106.622C245.55 106.622 247.863 107.151 249.64 108.211C251.429 109.271 252.739 110.763 253.571 112.688C254.403 114.614 254.818 116.875 254.818 119.473ZM237.626 119.473C237.626 120.977 237.797 122.27 238.139 123.353C238.48 124.435 239.022 125.267 239.762 125.848C240.503 126.429 241.471 126.719 242.667 126.719C243.909 126.719 244.895 126.429 245.624 125.848C246.365 125.267 246.894 124.435 247.213 123.353C247.544 122.27 247.709 120.977 247.709 119.473C247.709 117.217 247.333 115.434 246.581 114.124C245.829 112.814 244.536 112.159 242.702 112.159C241.483 112.159 240.497 112.455 239.745 113.047C239.005 113.64 238.463 114.483 238.122 115.577C237.791 116.67 237.626 117.969 237.626 119.473ZM280.573 107.015V122.054C280.573 124.15 280.174 125.973 279.376 127.522C278.579 129.061 277.383 130.251 275.788 131.094C274.193 131.926 272.193 132.342 269.789 132.342C266.348 132.342 263.722 131.459 261.911 129.693C260.099 127.927 259.193 125.432 259.193 122.208V107.015H265.978V121.678C265.978 123.444 266.308 124.725 266.969 125.523C267.63 126.32 268.604 126.719 269.892 126.719C270.814 126.719 271.566 126.548 272.147 126.207C272.729 125.853 273.15 125.301 273.412 124.549C273.686 123.797 273.822 122.828 273.822 121.644V107.015H280.573ZM294.005 107.015C296.273 107.015 298.158 107.294 299.662 107.852C301.166 108.399 302.294 109.219 303.046 110.313C303.809 111.407 304.191 112.768 304.191 114.397C304.191 115.411 304.02 116.334 303.678 117.166C303.336 117.998 302.847 118.744 302.208 119.405C301.582 120.054 300.83 120.624 299.953 121.114L307.233 132H299.577L294.279 122.908H292.57V132H285.819V107.015H294.005ZM293.903 112.125H292.57V117.833H293.834C294.871 117.833 295.72 117.605 296.381 117.149C297.042 116.693 297.372 115.879 297.372 114.705C297.372 113.896 297.099 113.264 296.552 112.808C296.005 112.352 295.122 112.125 293.903 112.125ZM333.295 132H324.442L315.316 114.397H315.163C315.22 114.933 315.271 115.577 315.316 116.329C315.362 117.081 315.402 117.85 315.436 118.636C315.47 119.41 315.487 120.111 315.487 120.738V132H309.506V107.015H318.324L327.416 124.378H327.519C327.484 123.831 327.45 123.199 327.416 122.481C327.382 121.752 327.348 121.017 327.313 120.276C327.291 119.536 327.279 118.881 327.279 118.311V107.015H333.295V132ZM353.529 132H338.695V107.015H353.529V112.432H345.446V116.363H352.931V121.78H345.446V126.497H353.529V132ZM366.825 116.277L371.132 107.015H378.446L370.226 122.242V132H363.424V122.447L355.204 107.015H362.553L366.825 116.277ZM386.957 126.89L387.196 127.283C386.991 128.115 386.723 129.118 386.393 130.291C386.074 131.453 385.721 132.621 385.333 133.794C384.958 134.979 384.576 136.005 384.188 136.871H379.42C379.648 135.8 379.87 134.672 380.087 133.487C380.303 132.302 380.503 131.14 380.685 130C380.867 128.861 381.01 127.824 381.112 126.89H386.957ZM117.621 151.277L121.928 142.015H129.242L121.022 157.242V167H114.22V157.447L106 142.015H113.349L117.621 151.277ZM155.321 154.473C155.321 156.399 155.088 158.153 154.621 159.737C154.165 161.309 153.447 162.665 152.467 163.804C151.487 164.944 150.229 165.821 148.69 166.436C147.152 167.04 145.312 167.342 143.17 167.342C141.074 167.342 139.257 167.04 137.719 166.436C136.192 165.821 134.933 164.949 133.942 163.821C132.951 162.682 132.216 161.32 131.737 159.737C131.259 158.153 131.02 156.387 131.02 154.439C131.02 151.841 131.447 149.585 132.301 147.671C133.167 145.746 134.5 144.259 136.3 143.211C138.1 142.151 140.402 141.622 143.205 141.622C146.053 141.622 148.366 142.151 150.143 143.211C151.932 144.271 153.242 145.763 154.074 147.688C154.905 149.614 155.321 151.875 155.321 154.473ZM138.129 154.473C138.129 155.977 138.3 157.27 138.642 158.353C138.983 159.435 139.525 160.267 140.265 160.848C141.006 161.429 141.974 161.719 143.17 161.719C144.412 161.719 145.398 161.429 146.127 160.848C146.868 160.267 147.397 159.435 147.716 158.353C148.047 157.27 148.212 155.977 148.212 154.473C148.212 152.217 147.836 150.434 147.084 149.124C146.332 147.814 145.039 147.159 143.205 147.159C141.986 147.159 141 147.455 140.248 148.047C139.507 148.64 138.966 149.483 138.625 150.577C138.294 151.67 138.129 152.969 138.129 154.473ZM181.076 142.015V157.054C181.076 159.15 180.677 160.973 179.879 162.522C179.082 164.061 177.886 165.251 176.291 166.094C174.695 166.926 172.696 167.342 170.292 167.342C166.851 167.342 164.225 166.459 162.414 164.693C160.602 162.927 159.696 160.432 159.696 157.208V142.015H166.481V156.678C166.481 158.444 166.811 159.725 167.472 160.523C168.133 161.32 169.107 161.719 170.395 161.719C171.317 161.719 172.069 161.548 172.65 161.207C173.231 160.853 173.653 160.301 173.915 159.549C174.188 158.797 174.325 157.828 174.325 156.644V142.015H181.076ZM194.508 142.015C196.776 142.015 198.661 142.294 200.165 142.852C201.669 143.399 202.797 144.219 203.549 145.313C204.312 146.407 204.694 147.768 204.694 149.397C204.694 150.411 204.523 151.334 204.181 152.166C203.839 152.998 203.349 153.744 202.711 154.405C202.085 155.054 201.333 155.624 200.456 156.114L207.736 167H200.08L194.782 157.908H193.073V167H186.322V142.015H194.508ZM194.406 147.125H193.073V152.833H194.337C195.374 152.833 196.223 152.605 196.884 152.149C197.545 151.693 197.875 150.879 197.875 149.705C197.875 148.896 197.602 148.264 197.055 147.808C196.508 147.352 195.625 147.125 194.406 147.125ZM225.749 167H219.101V142.015H233.866V147.432H225.749V152.2H233.234V157.618H225.749V167ZM259.21 142.015V157.054C259.21 159.15 258.812 160.973 258.014 162.522C257.217 164.061 256.02 165.251 254.425 166.094C252.83 166.926 250.831 167.342 248.427 167.342C244.986 167.342 242.36 166.459 240.548 164.693C238.737 162.927 237.831 160.432 237.831 157.208V142.015H244.616V156.678C244.616 158.444 244.946 159.725 245.607 160.523C246.268 161.32 247.242 161.719 248.529 161.719C249.452 161.719 250.204 161.548 250.785 161.207C251.366 160.853 251.788 160.301 252.05 159.549C252.323 158.797 252.46 157.828 252.46 156.644V142.015H259.21ZM275.48 167H268.729V147.535H262.628V142.015H281.564V147.535H275.48V167ZM306.378 142.015V157.054C306.378 159.15 305.98 160.973 305.182 162.522C304.385 164.061 303.188 165.251 301.593 166.094C299.998 166.926 297.999 167.342 295.595 167.342C292.154 167.342 289.528 166.459 287.716 164.693C285.905 162.927 284.999 160.432 284.999 157.208V142.015H291.784V156.678C291.784 158.444 292.114 159.725 292.775 160.523C293.436 161.32 294.41 161.719 295.697 161.719C296.62 161.719 297.372 161.548 297.953 161.207C298.534 160.853 298.956 160.301 299.218 159.549C299.491 158.797 299.628 157.828 299.628 156.644V142.015H306.378ZM319.811 142.015C322.078 142.015 323.964 142.294 325.468 142.852C326.972 143.399 328.1 144.219 328.852 145.313C329.615 146.407 329.997 147.768 329.997 149.397C329.997 150.411 329.826 151.334 329.484 152.166C329.142 152.998 328.652 153.744 328.014 154.405C327.388 155.054 326.636 155.624 325.758 156.114L333.039 167H325.382L320.084 157.908H318.375V167H311.625V142.015H319.811ZM319.708 147.125H318.375V152.833H319.64C320.677 152.833 321.526 152.605 322.187 152.149C322.847 151.693 323.178 150.879 323.178 149.705C323.178 148.896 322.904 148.264 322.357 147.808C321.811 147.352 320.928 147.125 319.708 147.125ZM350.146 167H335.312V142.015H350.146V147.432H342.062V151.363H349.547V156.78H342.062V161.497H350.146V167ZM108.7 202V177.015H115.451V196.548H125.072V202H108.7ZM143.905 202H129.071V177.015H143.905V182.432H135.822V186.363H143.307V191.78H135.822V196.497H143.905V202ZM159.303 202H152.553V182.535H146.452V177.015H165.387V182.535H159.303V202ZM174.411 177.049L174.667 177.425C174.462 178.268 174.194 179.276 173.864 180.45C173.533 181.612 173.174 182.78 172.787 183.953C172.411 185.127 172.029 186.146 171.642 187.012H166.891C167.062 186.215 167.227 185.383 167.387 184.517C167.558 183.64 167.717 182.763 167.865 181.885C168.013 181.008 168.144 180.159 168.258 179.339C168.384 178.507 168.486 177.744 168.566 177.049H174.411ZM194.047 194.412C194.047 195.768 193.705 197.055 193.021 198.274C192.338 199.482 191.273 200.462 189.826 201.214C188.39 201.966 186.533 202.342 184.254 202.342C183.115 202.342 182.112 202.291 181.247 202.188C180.392 202.085 179.595 201.92 178.854 201.692C178.113 201.453 177.344 201.146 176.547 200.77V194.754C177.903 195.438 179.27 195.962 180.648 196.326C182.027 196.679 183.275 196.856 184.391 196.856C185.063 196.856 185.61 196.776 186.032 196.617C186.465 196.457 186.784 196.241 186.989 195.967C187.194 195.682 187.296 195.358 187.296 194.993C187.296 194.56 187.143 194.196 186.835 193.899C186.539 193.592 186.06 193.273 185.399 192.942C184.739 192.612 183.867 192.202 182.785 191.712C181.862 191.279 181.024 190.835 180.272 190.379C179.532 189.923 178.894 189.405 178.358 188.824C177.834 188.231 177.43 187.542 177.145 186.756C176.86 185.97 176.718 185.041 176.718 183.97C176.718 182.364 177.111 181.019 177.897 179.937C178.694 178.843 179.8 178.023 181.212 177.476C182.637 176.929 184.277 176.656 186.134 176.656C187.764 176.656 189.228 176.838 190.526 177.203C191.837 177.567 193.01 177.983 194.047 178.45L191.979 183.663C190.908 183.173 189.854 182.785 188.817 182.5C187.781 182.204 186.818 182.056 185.929 182.056C185.348 182.056 184.87 182.13 184.494 182.278C184.129 182.415 183.856 182.603 183.673 182.842C183.502 183.082 183.417 183.355 183.417 183.663C183.417 184.05 183.565 184.397 183.861 184.705C184.169 185.013 184.676 185.349 185.382 185.713C186.1 186.067 187.074 186.528 188.305 187.098C189.524 187.645 190.561 188.237 191.415 188.875C192.27 189.502 192.919 190.259 193.363 191.148C193.819 192.025 194.047 193.113 194.047 194.412ZM443.08 199.163C443.08 197.955 443.433 197.107 444.14 196.617C444.857 196.127 445.718 195.882 446.72 195.882C447.666 195.882 448.486 196.127 449.181 196.617C449.876 197.107 450.224 197.955 450.224 199.163C450.224 200.314 449.876 201.146 449.181 201.658C448.486 202.171 447.666 202.427 446.72 202.427C445.718 202.427 444.857 202.171 444.14 201.658C443.433 201.146 443.08 200.314 443.08 199.163Z" fill="#1A1A1A"/>
<path d="M217.887 202L212.777 184.004H212.624C212.669 184.472 212.715 185.104 212.76 185.901C212.817 186.699 212.868 187.559 212.914 188.482C212.96 189.405 212.982 190.293 212.982 191.148V202H207.001V177.015H215.99L221.203 194.754H221.339L226.449 177.015H235.456V202H229.252V191.045C229.252 190.259 229.263 189.416 229.286 188.516C229.32 187.605 229.354 186.75 229.389 185.953C229.434 185.144 229.474 184.506 229.508 184.039H229.354L224.313 202H217.887ZM256.168 202L254.938 197.317H246.82L245.556 202H238.139L246.291 176.912H255.297L263.551 202H256.168ZM253.537 191.78L252.46 187.679C252.346 187.234 252.181 186.602 251.964 185.782C251.748 184.95 251.531 184.096 251.315 183.218C251.11 182.33 250.95 181.6 250.836 181.031C250.734 181.6 250.586 182.307 250.392 183.15C250.21 183.982 250.016 184.808 249.811 185.628C249.617 186.448 249.446 187.132 249.298 187.679L248.222 191.78H253.537ZM287.614 202H279.992L275.053 192.447L273.053 193.643V202H266.269V177.015H273.053V187.867C273.338 187.32 273.663 186.773 274.027 186.226C274.403 185.679 274.768 185.161 275.121 184.671L280.368 177.015H287.75L279.872 188.208L287.614 202ZM305.165 202H290.331V177.015H305.165V182.432H297.082V186.363H304.567V191.78H297.082V196.497H305.165V202ZM318.632 202V177.015H325.417V202H318.632ZM341.857 202H335.106V182.535H329.005V177.015H347.941V182.535H341.857V202ZM376.942 194.412C376.942 195.768 376.601 197.055 375.917 198.274C375.233 199.482 374.168 200.462 372.721 201.214C371.286 201.966 369.429 202.342 367.15 202.342C366.011 202.342 365.008 202.291 364.142 202.188C363.288 202.085 362.49 201.92 361.75 201.692C361.009 201.453 360.24 201.146 359.442 200.77V194.754C360.798 195.438 362.165 195.962 363.544 196.326C364.923 196.679 366.17 196.856 367.287 196.856C367.959 196.856 368.506 196.776 368.927 196.617C369.36 196.457 369.679 196.241 369.884 195.967C370.089 195.682 370.192 195.358 370.192 194.993C370.192 194.56 370.038 194.196 369.73 193.899C369.434 193.592 368.956 193.273 368.295 192.942C367.634 192.612 366.763 192.202 365.68 191.712C364.757 191.279 363.92 190.835 363.168 190.379C362.427 189.923 361.789 189.405 361.254 188.824C360.73 188.231 360.325 187.542 360.041 186.756C359.756 185.97 359.613 185.041 359.613 183.97C359.613 182.364 360.006 181.019 360.792 179.937C361.59 178.843 362.695 178.023 364.108 177.476C365.532 176.929 367.173 176.656 369.03 176.656C370.659 176.656 372.123 176.838 373.422 177.203C374.732 177.567 375.906 177.983 376.942 178.45L374.875 183.663C373.804 183.173 372.75 182.785 371.713 182.5C370.676 182.204 369.713 182.056 368.825 182.056C368.244 182.056 367.765 182.13 367.389 182.278C367.025 182.415 366.751 182.603 366.569 182.842C366.398 183.082 366.312 183.355 366.312 183.663C366.312 184.05 366.461 184.397 366.757 184.705C367.064 185.013 367.571 185.349 368.278 185.713C368.996 186.067 369.97 186.528 371.2 187.098C372.419 187.645 373.456 188.237 374.311 188.875C375.165 189.502 375.814 190.259 376.259 191.148C376.715 192.025 376.942 193.113 376.942 194.412ZM396.134 202L394.904 197.317H386.786L385.521 202H378.104L386.256 176.912H395.263L403.517 202H396.134ZM393.502 191.78L392.426 187.679C392.312 187.234 392.147 186.602 391.93 185.782C391.714 184.95 391.497 184.096 391.281 183.218C391.076 182.33 390.916 181.6 390.802 181.031C390.7 181.6 390.552 182.307 390.358 183.15C390.176 183.982 389.982 184.808 389.777 185.628C389.583 186.448 389.412 187.132 389.264 187.679L388.188 191.78H393.502ZM412.882 202H406.234V177.015H421V182.432H412.882V187.2H420.368V192.618H412.882V202ZM439.936 202H425.102V177.015H439.936V182.432H431.852V186.363H439.337V191.78H431.852V196.497H439.936V202Z" fill="#FF671F"/>
<path d="M600.277 777.088C600.277 778.456 591.346 779.563 580.325 779.563C569.304 779.563 560.374 778.456 560.374 777.088C560.374 775.72 569.304 774.614 580.325 774.614C591.346 774.614 600.277 775.72 600.277 777.088Z" fill="#EDD9CC"/>
<path d="M583.684 733.831C583.255 733.831 582.905 733.486 582.9 733.058C582.749 724.878 589.305 721.336 589.583 721.191C589.967 720.991 590.445 721.136 590.645 721.519C590.846 721.903 590.701 722.376 590.317 722.581C590.317 722.581 588.788 723.404 587.315 725.106C585.374 727.358 584.412 730.022 584.468 733.03C584.473 733.464 584.128 733.82 583.695 733.831C583.695 733.831 583.684 733.831 583.678 733.831H583.684Z" fill="#0A705C"/>
<path d="M581.148 713.523C581.148 713.523 572.023 696.312 604.758 684.24C606.449 683.617 608.156 685.107 607.75 686.865C605.687 695.823 598.909 716.776 581.148 713.523Z" fill="#004238"/>
<path d="M572.168 732.274C572.129 732.274 572.09 732.274 572.057 732.268C571.628 732.207 571.328 731.807 571.389 731.379C573.658 715.719 585.324 708.435 586.648 707.656C587.02 707.434 587.51 707.556 587.732 707.929C587.954 708.301 587.838 708.779 587.465 709.002L587.448 709.013C586.898 709.336 583.984 711.137 580.853 714.652C576.533 719.501 573.875 725.206 572.946 731.607C572.891 731.996 572.551 732.279 572.168 732.279V732.274Z" fill="#004238"/>
<path d="M576.978 732.274C576.978 732.274 576.955 732.274 576.939 732.274C576.505 732.252 576.171 731.885 576.188 731.451C576.505 724.75 572.251 718.639 572.207 718.578C571.956 718.222 572.04 717.732 572.396 717.482C572.752 717.232 573.241 717.315 573.491 717.671C573.68 717.938 578.095 724.288 577.756 731.523C577.734 731.946 577.389 732.274 576.972 732.274H576.978Z" fill="#004238"/>
<path d="M579.235 733.425C579.235 733.425 579.218 733.425 579.213 733.425C578.779 733.414 578.434 733.052 578.445 732.619L579.113 707.133C579.124 706.7 579.485 706.36 579.919 706.366C580.353 706.377 580.697 706.739 580.686 707.172L580.019 732.658C580.008 733.086 579.658 733.425 579.235 733.425Z" fill="#0A705C"/>
<path d="M573.769 719.011C573.769 719.011 555.202 724.911 549.18 690.546C548.869 688.772 550.642 687.359 552.294 688.071C560.74 691.708 580.141 702.118 573.763 719.011H573.769Z" fill="#004238"/>
<path d="M585.797 725.629C585.797 725.629 602.484 735.677 616.319 703.641C617.031 701.99 615.635 700.205 613.861 700.511C604.803 702.084 583.511 707.712 585.797 725.623V725.629Z" fill="#0A705C"/>
<path d="M582.738 715.947C581.448 718.622 577.545 718.327 576.655 715.491C572.696 702.852 566.062 676.054 579.797 672.979C595.205 669.531 590.045 700.827 582.733 715.947H582.738Z" fill="#0A705C"/>
<path d="M579.575 717.66C579.575 717.66 579.564 717.66 579.558 717.66C579.319 717.649 579.135 717.449 579.146 717.215L580.598 681.387C580.609 681.148 580.809 680.964 581.043 680.976C581.282 680.987 581.465 681.187 581.454 681.42L580.003 717.249C579.992 717.477 579.803 717.66 579.575 717.66Z" fill="#004238"/>
<path d="M586.258 725.679C586.136 725.679 586.013 725.623 585.924 725.523C585.774 725.34 585.802 725.067 585.986 724.923L605.826 708.685C606.009 708.535 606.282 708.563 606.426 708.746C606.577 708.93 606.549 709.202 606.365 709.347L586.525 725.584C586.447 725.651 586.347 725.679 586.252 725.679H586.258Z" fill="#004238"/>
<path d="M600.571 730.589L599.465 735.661L599.148 737.123L599.103 737.318L598.475 740.209L598.341 740.815L598.152 741.666L597.98 742.473L593.231 764.16L592.909 765.622L592.236 768.708L591.913 770.165L590.423 776.977H570.171L568.681 770.165L568.359 768.708L567.686 765.622L567.363 764.16L562.614 742.473L562.436 741.666L562.253 740.815L562.119 740.209L561.486 737.318L561.447 737.123L561.124 735.661L560.018 730.589H600.571Z" fill="#FF671F"/>
<path d="M599.465 735.66L599.148 737.123H561.447L561.124 735.66H599.465Z" fill="#FFC649"/>
<path d="M598.475 740.209L598.342 740.815L598.152 741.666H562.437L562.253 740.815L562.12 740.209H598.475Z" fill="#FFC649"/>
<path d="M593.231 764.159L592.909 765.622H567.686L567.363 764.159H593.231Z" fill="#FFC649"/>
<path d="M592.236 768.708L591.913 770.165H568.681L568.358 768.708H592.236Z" fill="#FFC649"/>
<path d="M126.983 776.977C126.983 778.065 116.244 778.946 102.991 778.946C89.7391 778.946 79 778.065 79 776.977C79 775.888 89.7391 775.008 102.991 775.008C116.244 775.008 126.983 775.888 126.983 776.977Z" fill="#EDD9CC"/>
<path d="M117.496 757.75H87.5932C87.4026 757.75 87.248 757.905 87.248 758.096V759.83C87.248 760.021 87.4026 760.175 87.5932 760.175H117.496C117.687 760.175 117.841 760.021 117.841 759.83V758.096C117.841 757.905 117.687 757.75 117.496 757.75Z" fill="#531F00"/>
<path d="M116.558 730.9H88.5888C88.1244 730.9 87.748 731.276 87.748 731.74V735.179C87.748 735.643 88.1244 736.019 88.5888 736.019H116.558C117.022 736.019 117.399 735.643 117.399 735.179V731.74C117.399 731.276 117.022 730.9 116.558 730.9Z" fill="#1A1A1A"/>
<path d="M102.337 704.022C102.337 704.022 87.2081 670.64 102.12 668.043C113.518 666.06 112.257 689.053 102.337 704.022Z" fill="#0A705C"/>
<path d="M102.084 725.506C101.947 725.506 101.837 725.39 101.837 725.253C101.956 713.846 102.792 681.827 102.801 681.504C102.801 681.366 102.916 681.256 103.058 681.26C103.195 681.26 103.306 681.38 103.301 681.517C103.292 681.84 102.456 713.85 102.337 725.258C102.337 725.395 102.226 725.506 102.089 725.506H102.084Z" fill="#004238"/>
<path d="M98.8899 712.908C98.8899 712.908 76.1196 691.301 84.3277 682.787C93.3809 673.401 100.293 697.54 98.8899 712.908Z" fill="#0A705C"/>
<path d="M101.323 723.559C101.195 723.559 101.084 723.461 101.075 723.328C100.354 714.178 91.2435 694.137 91.1506 693.938C91.0931 693.814 91.1506 693.663 91.2745 693.606C91.3984 693.548 91.5488 693.606 91.6019 693.73C91.6948 693.933 100.845 714.054 101.571 723.289C101.58 723.426 101.478 723.545 101.341 723.554C101.332 723.554 101.328 723.554 101.323 723.554V723.559Z" fill="#004238"/>
<path d="M105.912 712.337C105.912 712.337 129.704 691.858 121.917 682.96C113.332 673.145 105.253 696.92 105.912 712.337Z" fill="#0A705C"/>
<path d="M102.978 722.859C102.978 722.859 102.956 722.859 102.947 722.859C102.81 722.842 102.713 722.718 102.731 722.581C103.903 713.39 114.023 693.739 114.125 693.54C114.186 693.416 114.337 693.371 114.461 693.433C114.585 693.495 114.629 693.646 114.567 693.77C114.465 693.964 104.39 713.54 103.226 722.647C103.208 722.771 103.102 722.864 102.978 722.864V722.859Z" fill="#004238"/>
<path d="M115.376 717.293L115.022 718.226L114.801 718.819L114.164 720.514L113.943 721.107L113.288 722.846L113.067 723.435L110.257 730.9H94.8983L92.0886 723.435L91.8673 722.846L91.2124 721.107L90.9912 720.514L90.354 718.819L90.1328 718.226L89.7788 717.293C89.5354 716.651 90.0089 715.97 90.6947 715.97H114.469C115.151 715.97 115.624 716.651 115.385 717.293H115.376Z" fill="#FF671F"/>
<path d="M115.023 718.227L114.801 718.82H90.3453L90.124 718.227H115.023Z" fill="#FFC649"/>
<path d="M114.164 720.514L113.943 721.103H91.2081L90.9824 720.514H114.164Z" fill="#FFC649"/>
<path d="M113.288 722.846L113.062 723.435H92.0843L91.863 722.846H113.288Z" fill="#FFC649"/>
<path d="M98.4606 736.019L97.6066 738.763L85.7524 776.977H83.4382L90.956 739.546L91.664 736.019H98.4606Z" fill="#1A1A1A"/>
<path d="M91.664 736.019H98.4606L97.6066 738.763L90.9561 739.546L91.664 736.019Z" fill="#531F00"/>
<path d="M121.779 776.977H119.465L107.257 737.634L106.757 736.019H113.554L113.726 736.873L121.779 776.977Z" fill="#1A1A1A"/>
<path d="M113.726 736.873L107.257 737.634L106.757 736.019H113.554L113.726 736.873Z" fill="#531F00"/>
<path d="M116.939 752.48H88.1507C87.6522 752.48 87.248 752.885 87.248 753.383V754.003C87.248 754.501 87.6522 754.905 88.1507 754.905H116.939C117.437 754.905 117.841 754.501 117.841 754.003V753.383C117.841 752.885 117.437 752.48 116.939 752.48Z" fill="#1A1A1A"/>
<path d="M370.921 383.006C382.69 383.006 392.231 373.465 392.231 361.696C392.231 349.927 382.69 340.386 370.921 340.386C359.152 340.386 349.612 349.927 349.612 361.696C349.612 373.465 359.152 383.006 370.921 383.006Z" fill="#EDD9CC"/>
<path d="M379.214 378.554C390.056 373.974 395.132 361.472 390.552 350.631C385.973 339.789 373.471 334.713 362.63 339.292C351.789 343.872 346.712 356.374 351.292 367.215C355.872 378.057 368.373 383.133 379.214 378.554Z" fill="#FF671F"/>
<path d="M370.921 376.247C361.372 376.247 353.596 368.48 353.596 358.922C353.596 349.364 361.372 341.596 370.921 341.596C380.471 341.596 388.247 349.364 388.247 358.922C388.247 368.48 380.479 376.247 370.921 376.247Z" fill="white"/>
<path d="M388.247 358.922C388.247 359.384 388.23 359.838 388.196 360.292C387.498 351.373 380.017 344.337 370.93 344.337C361.843 344.337 354.361 351.381 353.664 360.292C353.63 359.838 353.613 359.384 353.613 358.922C353.613 349.372 361.381 341.596 370.938 341.596C380.496 341.596 388.263 349.364 388.263 358.922H388.247Z" fill="#EDD9CC"/>
<path d="M370.922 360.729C370.787 360.729 370.661 360.67 370.577 360.553L362.078 349.111C361.935 348.918 361.977 348.649 362.171 348.506C362.364 348.363 362.633 348.405 362.776 348.599L371.064 359.762L380.488 355.626C380.706 355.534 380.967 355.626 381.059 355.845C381.152 356.063 381.059 356.316 380.841 356.417L371.098 360.695C371.039 360.721 370.98 360.729 370.922 360.729Z" fill="#F4AB8C"/>
</g>
<defs>
<linearGradient id="paint0_linear_190_820" x1="371" y1="267" x2="371" y2="787" gradientUnits="userSpaceOnUse">
<stop stop-color="white"/>
<stop offset="1" stop-color="white" stop-opacity="0"/>
</linearGradient>
<clipPath id="clip0_190_820">
<rect width="84.3597" height="72.8868" fill="white" transform="translate(533.806 564.39)"/>
</clipPath>
<clipPath id="clip1_190_820">
<rect width="137.085" height="306.763" fill="white" transform="translate(143.642 466.61)"/>
</clipPath>
</defs>
</svg>
