<svg width="375" height="297" viewBox="0 0 375 297" fill="none" xmlns="http://www.w3.org/2000/svg">
<mask id="mask0_324_820" style="mask-type:alpha" maskUnits="userSpaceOnUse" x="0" y="0" width="375" height="297">
<path d="M0 0H375V267C375 283.569 361.569 297 345 297H30C13.4315 297 0 283.569 0 267V0Z" fill="#FFF7E5"/>
</mask>
<g mask="url(#mask0_324_820)">
<path d="M0 0H375V267C375 283.569 361.569 297 345 297H30C13.4315 297 0 283.569 0 267V0Z" fill="#FFF7E5"/>
<circle cx="195" cy="177" r="72" fill="url(#paint0_linear_324_820)"/>
<g clip-path="url(#clip0_324_820)">
<path d="M280.069 188.277C279.735 188.242 279.395 188.224 279.05 188.224C274.422 188.224 270.67 191.497 270.67 195.534V206.781C270.67 207.051 270.691 207.316 270.732 207.577C269.053 207.257 267.552 206.521 266.379 205.498C264.782 204.106 263.795 202.181 263.795 200.055L258.756 200.15L263.795 194.839V190.735C263.795 188.716 264.733 186.889 266.249 185.565C267.765 184.242 269.86 183.424 272.174 183.424C275.814 183.424 278.913 185.449 280.069 188.277Z" fill="#0033AE"/>
<path d="M280.554 190.735V201.982C280.554 205.169 277.593 207.752 273.939 207.752H272.618C271.97 207.752 271.339 207.692 270.731 207.576C270.69 207.316 270.669 207.051 270.669 206.781V195.534C270.669 191.496 274.421 188.223 279.049 188.223C279.394 188.223 279.734 188.242 280.069 188.277C280.383 189.045 280.554 189.872 280.554 190.734V190.735Z" fill="#FFC649"/>
<path d="M292.467 204.949L287.428 204.855C287.428 206.98 286.441 208.905 284.844 210.297C283.247 211.69 281.042 212.552 278.605 212.552H277.283C273.939 212.552 271.175 210.387 270.73 207.577C271.338 207.692 271.969 207.753 272.617 207.753H273.938C277.592 207.753 280.553 205.169 280.553 201.982V190.735C280.553 189.873 280.382 189.046 280.068 188.278C281.974 188.479 283.683 189.24 284.974 190.365C286.49 191.688 287.428 193.516 287.428 195.535V199.638L292.467 204.949H292.467Z" fill="#FF671F"/>
<ellipse cx="273.4" cy="196.551" rx="1.42906" ry="1.42905" fill="white"/>
<ellipse cx="278.243" cy="196.45" rx="1.42906" ry="1.42905" fill="white"/>
</g>
<path d="M97.4697 268.089C97.4697 269.357 141.464 270.388 195.735 270.388C250.006 270.388 294 269.361 294 268.089C294 266.818 250.006 265.791 195.735 265.791C141.464 265.791 97.4697 266.818 97.4697 268.089Z" fill="#EDD9CC"/>
<path d="M236.517 145.98C236.36 131.132 227.759 128.652 218.861 128.048C215.107 127.794 203.107 127.869 195.215 127.956C187.323 127.873 175.323 127.794 171.569 128.048C162.671 128.652 152.412 131.736 152.255 146.584C152.255 146.584 152.609 253.284 154.101 259.79C155.593 266.295 159.429 269.445 169.653 269.655H220.777C231.005 269.445 234.837 266.295 236.329 259.79C237.821 253.284 236.513 145.98 236.513 145.98H236.517Z" fill="#280101"/>
<path d="M232.754 145.774C232.636 134.908 227.688 132.523 218.602 131.924C217.495 131.85 214.809 131.762 208.295 131.762C204.642 131.762 200.259 131.788 195.254 131.841H195.171C190.17 131.788 185.782 131.762 182.13 131.762C175.62 131.762 172.934 131.85 171.823 131.924C160.842 132.65 156.113 136.968 156.008 146.313C156.148 187.553 156.734 250.642 157.762 255.41C158.641 259.129 160.081 261.99 169.723 262.183H220.693C230.339 261.99 231.774 259.129 232.649 255.424C233.66 250.568 233.244 185.594 232.746 145.774H232.754Z" fill="white"/>
<path d="M184.401 134.759C183.5 134.759 182.656 135.271 182.323 136.094C182.201 136.395 182.152 136.728 182.24 137.082C182.559 138.347 183.093 138.452 185.447 138.347C187.49 138.255 203.676 138.478 207.714 138.504C208.633 138.508 208.839 137.87 209.18 137.03C209.311 136.706 209.372 136.334 209.28 135.927C208.961 134.453 206.66 134.873 205.802 134.768C205.054 134.676 188.771 134.746 184.392 134.768L184.401 134.759Z" fill="#4A1434"/>
<path d="M254.796 200.07C254.796 200.07 170.383 198.819 169.937 200.07C168.231 204.894 167.971 235.649 168.792 236.94C169.612 238.232 253.537 238.386 254.357 235.284C255.178 232.181 254.796 207.476 254.796 207.476C254.796 207.476 258.889 199.891 258.751 200.07C258.613 200.248 254.796 200.07 254.796 200.07Z" fill="#BBF1E4"/>
<path opacity="0.2" d="M245.57 213.299H180.819C180.819 213.299 180.405 211.098 180.819 210.619C181.233 210.14 245.245 210.367 245.57 210.952C245.887 211.537 245.57 213.299 245.57 213.299Z" fill="#357968"/>
<path opacity="0.2" d="M245.944 221.007H181.193C181.193 221.007 180.779 218.806 181.193 218.327C181.607 217.848 245.619 218.075 245.944 218.66C246.269 219.244 245.944 221.007 245.944 221.007Z" fill="#357968"/>
<path opacity="0.2" d="M245.57 227.675H180.819C180.819 227.675 180.405 225.474 180.819 224.995C181.233 224.515 245.245 224.743 245.57 225.328C245.887 225.912 245.57 227.675 245.57 227.675Z" fill="#357968"/>
<path d="M183.559 152.315C183.559 152.315 229.03 151.642 229.271 152.315C230.19 154.914 229.748 170.571 229.306 171.267C228.864 171.962 184.237 172.955 183.795 171.284C183.353 169.613 183.559 156.305 183.559 156.305C183.559 156.305 181.354 152.219 181.429 152.315C181.503 152.412 183.559 152.315 183.559 152.315Z" fill="#FAF4EC"/>
<path opacity="0.2" d="M188.528 159.437H223.408C223.408 159.437 223.631 158.252 223.408 157.994C223.185 157.735 188.703 157.858 188.528 158.173C188.357 158.488 188.528 159.437 188.528 159.437Z" fill="#9F7D50"/>
<path opacity="0.2" d="M188.329 163.594H223.209C223.209 163.594 223.432 162.408 223.209 162.15C222.986 161.892 188.504 162.014 188.329 162.329C188.154 162.644 188.329 163.594 188.329 163.594Z" fill="#9F7D50"/>
<path opacity="0.2" d="M188.529 167.185H207.262C207.262 167.185 207.485 166 207.262 165.741C207.039 165.483 188.704 165.606 188.529 165.921C188.354 166.236 188.529 167.185 188.529 167.185Z" fill="#9F7D50"/>
<path d="M182.619 177.479C182.619 177.479 228.09 176.805 228.331 177.479C229.249 180.077 228.807 192.305 228.366 193C227.924 193.696 183.297 194.689 182.855 193.018C182.413 191.347 182.619 181.469 182.619 181.469C182.619 181.469 180.414 177.383 180.488 177.479C180.563 177.575 182.619 177.479 182.619 177.479Z" fill="#FAF4EC"/>
<path opacity="0.2" d="M187.59 184.606H222.47C222.47 184.606 222.693 183.42 222.47 183.162C222.246 182.904 187.764 183.026 187.59 183.341C187.419 183.656 187.59 184.606 187.59 184.606Z" fill="#9F7D50"/>
<path opacity="0.2" d="M187.387 188.757H222.267C222.267 188.757 222.49 187.572 222.267 187.314C222.044 187.055 187.562 187.178 187.387 187.493C187.212 187.808 187.387 188.757 187.387 188.757Z" fill="#9F7D50"/>
<path d="M179.135 157.315C179.135 160.133 176.576 162.329 173.759 162.329C170.941 162.329 168.745 159.91 168.745 157.097C168.745 154.279 171.125 152.297 173.942 152.297C176.76 152.297 179.135 154.498 179.135 157.315Z" fill="#0033AE"/>
<path d="M172.185 158.943C172.718 159.997 174.875 159.818 175.649 159.061C175.649 159.061 175.628 157.875 174.166 157.749C173.506 157.692 172.395 157.932 172.185 158.943Z" fill="white"/>
<path d="M175.268 156.156C175.194 157.093 174.524 157.303 173.82 157.303C173.116 157.303 172.774 156.795 172.774 156.156C172.774 155.518 173.286 154.997 173.991 154.997C174.695 154.997 175.316 155.518 175.268 156.156Z" fill="white"/>
<path d="M196.032 258.434C197.627 258.434 198.919 257.141 198.919 255.547C198.919 253.952 197.627 252.659 196.032 252.659C194.437 252.659 193.145 253.952 193.145 255.547C193.145 257.141 194.437 258.434 196.032 258.434Z" fill="#560505"/>
<path d="M177.982 252.708C178.428 252.581 178.512 252.944 178.538 253.412C178.612 254.777 178.726 257.796 178.293 258.36C177.934 258.824 173.73 256.247 173.822 255.67C173.892 255.228 176.543 253.119 177.982 252.712V252.708Z" fill="#560505"/>
<path d="M218.436 252.449H213.817C213.619 252.449 213.458 252.61 213.458 252.808V257.427C213.458 257.626 213.619 257.786 213.817 257.786H218.436C218.635 257.786 218.795 257.626 218.795 257.427V252.808C218.795 252.61 218.635 252.449 218.436 252.449Z" fill="#560505"/>
<g clip-path="url(#clip1_324_820)">
<path d="M121.234 165.076C121.468 165.826 122.217 166.642 123.277 167.197C124.852 168.012 126.515 167.938 126.986 167.027C127.532 165.974 126.476 165.011 125.77 164.369C125.329 163.966 125.03 163.606 124.831 163.025C124.623 162.413 124.549 161.759 124.489 161.117C124.463 160.852 124.45 160.588 124.42 160.328C124.42 160.31 124.342 159.95 124.324 159.972L121.749 162.964L121.567 163.71C121.45 163.81 121.351 163.927 121.277 164.061C121.126 164.361 121.117 164.712 121.23 165.076H121.234Z" fill="#2C2A2B"/>
<path d="M109.452 150.488C110.941 151.659 113.096 151.399 114.269 149.907C115.438 148.415 115.178 146.256 113.689 145.081C112.2 143.91 110.045 144.17 108.872 145.662C107.703 147.153 107.963 149.313 109.452 150.488Z" fill="#000001"/>
<path d="M123.865 173.064C123.896 173.116 125.125 177.461 126.384 181.923C126.852 183.584 127.319 185.258 127.735 186.737C127.83 187.066 128.033 187.348 128.116 187.665C128.765 190.145 130.28 191.632 132.457 190.787L136.547 189.013L129.081 168.562C129.081 168.562 126.596 166.68 125.038 167.275C122.935 168.085 122.636 171.169 123.865 173.059V173.064Z" fill="#0033AE"/>
<path d="M126.385 181.923C126.852 183.584 127.32 185.258 127.735 186.737C127.83 187.066 127.956 187.378 128.116 187.665C127.999 185.024 129.432 182.088 129.35 181.988L127.566 181.039L126.385 181.923Z" fill="#2C2A2B"/>
<path d="M118.2 163.619C117.975 163.723 117.845 163.784 117.845 163.784L118.888 167.617L121.965 168.736L125.463 168.22C125.506 168.051 122.796 167.132 123.775 163.797C123.775 163.797 123.775 163.788 123.775 163.784C123.775 163.61 123.956 163.328 124.013 163.159C124.095 162.929 124.16 162.691 124.225 162.452C124.35 161.945 124.445 161.429 124.506 160.904C124.744 158.81 124.506 156.468 123.58 154.547C123.571 154.53 123.558 154.504 123.541 154.469C123.441 154.239 123.177 153.641 122.874 153.073C122.558 152.466 122.195 151.893 121.948 151.828C121.74 151.772 121.567 152.075 121.385 152.318C121.273 152.47 121.152 152.6 121.026 152.6C120.619 152.6 120.23 152.73 119.866 152.969C119.818 152.999 119.771 153.034 119.728 153.064C118.399 154.061 117.464 156.542 117.464 159.443C117.464 161.013 117.741 162.461 118.204 163.619H118.2Z" fill="#000001"/>
<path d="M108.179 169.46C110.291 171.381 111.443 175.15 111.174 177.517L110.906 181.208L110.897 181.281C110.876 181.507 110.854 181.737 110.832 181.971C110.802 182.283 110.776 182.643 110.741 183.029C110.529 183.029 109.949 191.429 108.815 195.605C112.425 195.67 116.044 195.618 119.653 195.44C120.082 195.613 120.528 195.778 120.987 195.93C125.142 197.283 129.461 195.735 129.461 195.735C129.652 195.145 129.396 194.096 128.899 193.345C128.137 192.196 127.609 191.294 127.449 190.093C127.25 188.588 127.146 187.075 127.12 185.544C127.202 185.041 127.28 184.521 127.366 183.987C127.366 183.966 127.366 183.94 127.375 183.918C127.41 183.905 127.427 183.901 127.427 183.901C129.016 183.207 129.695 182.188 129.738 180.995C129.695 180.171 129.37 178.953 128.76 177.851C128.743 177.817 128.721 177.786 128.704 177.756C128.613 177.6 128.518 177.444 128.414 177.288C128.159 176.902 127.877 176.507 127.566 176.117C127.479 173.571 129.184 169.317 129.093 168.649C129.089 168.632 129.08 168.606 129.076 168.589C128.955 168.315 128.782 168.116 128.552 168.016C127.089 167.379 125.332 166.772 124.198 166.368L119.125 172.834L111.72 166.854C111.49 166.563 111.196 166.334 110.828 166.177C110.828 166.177 106.976 167.834 106.638 168.415C106.469 168.849 107.11 168.502 108.175 169.469L108.179 169.46Z" fill="white"/>
<path d="M121.956 156.107C123.429 154.486 122.863 151.567 120.693 149.587C118.522 147.607 115.569 147.316 114.096 148.936C112.623 150.556 113.189 153.475 115.36 155.455C117.53 157.435 120.483 157.727 121.956 156.107Z" fill="#000001"/>
<path d="M109.192 180.57C109.192 180.601 109.201 180.631 109.205 180.661C109.253 180.948 109.3 181.221 109.344 181.507C109.53 182.669 110.846 190.713 110.846 190.713C111.638 191.351 113.326 193.883 116.343 193.905C117.827 190.47 117.381 184.954 115.845 184.824C110.517 184.378 111.387 177.17 111.326 177.084L109.27 180.119L109.184 180.57H109.192Z" fill="#2C2A2B"/>
<path d="M111.785 150.215C110.391 150.87 110.071 153.129 111.07 155.263C112.07 157.396 114.009 158.593 115.403 157.938C116.797 157.283 117.117 155.024 116.117 152.89C115.117 150.757 113.178 149.56 111.785 150.215Z" fill="#000001"/>
<path d="M116.728 167.76C119.472 167.76 121.866 167.11 123.151 166.138C123.216 166.091 123.272 166.043 123.333 165.995L124.324 166.399L124.285 166.442L119.126 173.168L111.326 167.166C112.265 167.357 115.616 167.76 116.724 167.76H116.728Z" fill="#0033AE"/>
<path d="M108.439 195.713C108.439 195.891 108.591 196.064 108.877 196.229C109.006 196.307 109.171 196.377 109.357 196.45C111.002 197.079 114.677 197.522 118.953 197.522C119.697 197.522 120.429 197.509 121.13 197.482C124.454 197.361 127.198 196.966 128.553 196.45C129.142 196.225 129.471 195.973 129.471 195.713C129.471 195.366 128.895 195.037 127.9 194.764C126.298 194.317 123.61 194.005 120.472 193.927C119.974 193.914 119.472 193.905 118.953 193.905C115.174 193.905 111.859 194.247 110.006 194.764C109.807 194.82 109.625 194.876 109.461 194.933C108.803 195.171 108.439 195.436 108.439 195.713Z" fill="#2C2A2B"/>
<path d="M112.633 166.394L113.624 167.461C114.563 167.652 115.615 167.76 116.727 167.76C119.606 167.76 122.103 167.04 123.332 165.995L122.778 165.77C121.904 165.41 121.263 164.668 121.017 163.788C120.939 163.524 120.904 163.246 120.904 162.96V157.188H114.935V163.294C114.935 164.352 114.386 165.332 113.481 165.883L112.637 166.399L112.633 166.394Z" fill="#FFB287"/>
<path d="M116.217 160.718C116.217 160.718 117.403 162.89 121.013 163.784C120.935 163.519 120.896 163.242 120.896 162.956V161.282L116.217 160.718Z" fill="#2C2A2B"/>
<path d="M106.877 190.47L109.236 188.727C109.656 188.072 109.955 187.331 110.171 186.568C110.647 184.889 110.729 183.124 110.837 181.949C110.859 181.715 110.881 181.485 110.902 181.26L110.911 181.186L111.179 177.496C111.448 175.128 110.669 171.164 108.578 169.217C107.557 168.263 106.808 168.224 106.648 168.385C106.501 168.641 104.258 174.746 102.865 186.797C102.596 189.109 104.293 190.453 106.881 190.462L106.877 190.47Z" fill="#0033AE"/>
<path d="M119.578 161.898L119.479 161.91C117.197 162.185 115.122 160.553 114.848 158.267L113.97 150.952L121.743 150.015L122.693 157.919C122.928 159.878 121.533 161.658 119.578 161.894L119.578 161.898Z" fill="#FFB287"/>
<path d="M119.645 153.263C120.312 152.375 122.134 152.335 122.489 153.502C122.497 153.537 122.458 153.567 122.424 153.554C121.991 153.385 121.619 153.415 121.195 153.476C120.77 153.524 120.355 153.68 119.948 153.754C119.675 153.814 119.472 153.472 119.641 153.259L119.645 153.263Z" fill="#2C2A2B"/>
<path d="M117.672 153.975C117.126 154.1 116.525 154.217 116.018 154.486C115.845 154.582 115.659 154.703 115.499 154.894C115.482 154.916 115.451 154.916 115.434 154.898C115.317 154.621 115.425 154.296 115.577 154.053C116.066 153.346 117.027 152.995 117.841 153.363C118.157 153.55 118.022 153.931 117.676 153.979L117.672 153.975Z" fill="#2C2A2B"/>
<path d="M116.42 156.156C116.42 156.156 116.399 156.156 116.386 156.151C116.329 156.134 116.299 156.073 116.316 156.017C116.325 155.995 116.485 155.497 116.879 155.219C116.948 155.167 117.018 155.132 117.091 155.106C117.299 155.024 117.515 155.02 117.71 155.089C117.914 155.154 118.061 155.28 118.13 155.341L118.156 155.362C118.212 155.38 118.229 155.436 118.212 155.492C118.195 155.549 118.121 155.575 118.065 155.557C118.039 155.549 118.022 155.531 117.987 155.505C117.927 155.453 117.805 155.349 117.641 155.293C117.489 155.237 117.329 155.245 117.165 155.31C117.108 155.332 117.052 155.358 117 155.401C116.667 155.635 116.52 156.082 116.515 156.086C116.503 156.13 116.459 156.16 116.412 156.16L116.42 156.156Z" fill="#2C2A2B"/>
<path d="M119.956 155.727C119.956 155.727 119.935 155.727 119.922 155.722C119.866 155.705 119.835 155.644 119.853 155.588C119.861 155.566 120.021 155.067 120.415 154.794C120.484 154.742 120.554 154.707 120.627 154.677C120.839 154.595 121.051 154.59 121.246 154.66C121.45 154.725 121.592 154.851 121.666 154.911L121.692 154.933C121.748 154.95 121.77 155.007 121.748 155.063C121.731 155.119 121.657 155.145 121.601 155.128C121.575 155.119 121.558 155.102 121.523 155.076C121.467 155.024 121.341 154.92 121.177 154.864C121.025 154.812 120.865 154.816 120.701 154.881C120.645 154.903 120.593 154.929 120.536 154.972C120.203 155.206 120.056 155.653 120.052 155.657C120.039 155.7 119.995 155.731 119.948 155.731L119.956 155.727Z" fill="#2C2A2B"/>
<path d="M120.77 155.323C120.801 155.557 121.008 155.727 121.238 155.701C121.467 155.675 121.632 155.458 121.606 155.224C121.575 154.989 121.368 154.82 121.138 154.846C120.909 154.872 120.744 155.089 120.77 155.323Z" fill="#2C2A2B"/>
<path d="M117.291 155.744C117.321 155.978 117.529 156.147 117.758 156.121C117.988 156.095 118.152 155.878 118.126 155.644C118.096 155.41 117.888 155.241 117.659 155.267C117.429 155.293 117.265 155.51 117.291 155.744Z" fill="#2C2A2B"/>
<path d="M119.018 157.439C119.018 157.439 118.983 157.439 118.974 157.439C118.914 157.439 118.866 157.392 118.87 157.331C118.87 157.27 118.918 157.227 118.979 157.227C118.992 157.227 119.009 157.227 119.022 157.227C119.26 157.227 119.628 157.201 119.805 157.132C119.762 156.824 119.446 155.436 119.238 154.569C119.225 154.512 119.26 154.452 119.316 154.439C119.372 154.426 119.433 154.46 119.446 154.517C120.087 157.214 120.052 157.236 119.97 157.288C119.74 157.426 119.186 157.439 119.018 157.439Z" fill="#A55930"/>
<path d="M115.347 184.959C115.296 184.959 115.248 184.959 115.196 184.959C115.135 184.959 115.088 184.911 115.092 184.85C115.092 184.79 115.148 184.738 115.2 184.746C116.893 184.764 118.07 184.378 118.079 184.373C120.234 183.432 120.84 181.797 119.875 179.521C119.853 179.464 119.875 179.404 119.931 179.382C119.987 179.36 120.048 179.382 120.07 179.438C121.078 181.815 120.412 183.588 118.152 184.577C118.096 184.594 116.992 184.967 115.343 184.967L115.347 184.959Z" fill="#2C2A2B"/>
<path d="M119.143 152.63C119.217 152.687 119.29 152.747 119.381 152.817C119.489 152.899 119.606 152.982 119.719 153.064C120.749 153.788 121.943 154.421 123.536 154.473C123.437 154.243 123.173 153.645 122.87 153.077C122.32 152.747 121.753 152.478 121.376 152.322C121.324 152.296 121.277 152.279 121.238 152.262C120.913 152.136 120.58 152.084 120.251 152.127C119.844 152.175 119.476 152.353 119.139 152.635L119.143 152.63Z" fill="#2C2A2B"/>
<path d="M113.996 149.799L116.857 148.871L118.121 149.556C118.121 149.556 118.16 149.512 118.186 149.495L117.658 147.995C118.498 148.155 119.342 148.32 120.182 148.48C121.536 148.741 122.956 148.914 124.194 149.56C125.09 150.028 126.033 151.191 125.627 152.162C125.086 153.454 123.657 154.105 121.342 153.606C120.402 153.402 119.571 153.042 118.935 152.596C118.935 152.596 118.926 152.587 118.909 152.574C118.641 152.387 116.459 150.922 115.126 152.058C113.706 153.272 115.156 156.433 115.156 156.433C115.156 156.433 113.91 157.387 113.862 157.253C113.815 157.119 111.469 152.34 111.469 152.34L114.005 149.794L113.996 149.799Z" fill="#000001"/>
<path d="M108.729 171.954C108.686 172.11 108.496 172.526 108.37 172.882H110.08C110.279 172.244 110.426 171.537 110.491 170.752C110.504 170.609 110.621 171.546 110.586 172.882H113.698C114.274 171.88 114.854 170.479 114.997 168.736C115.014 168.528 115.256 170.609 114.923 172.882H117.109C117.918 170.206 117.507 167.205 116.36 164.694C115.689 163.229 115.235 161.802 115.196 160.171L115.295 156.468L110.5 153.047C110.573 154.721 110.422 156.459 110.335 156.837C109.92 158.654 109.573 159.677 108.863 161.334C108.764 161.572 108.664 161.811 108.573 162.053C107.768 164.174 108.69 165.852 108.972 167.942C109.153 169.278 109.045 170.683 108.734 171.958L108.729 171.954Z" fill="#000001"/>
<path d="M113.789 158.081C114.52 158.658 115.429 158.723 115.819 158.229C116.209 157.734 115.927 156.863 115.196 156.286C114.464 155.709 113.555 155.644 113.166 156.139C112.776 156.633 113.057 157.505 113.789 158.081Z" fill="#FFB287"/>
<path d="M108.712 166.572C108.768 166.828 108.837 167.071 108.928 167.305C109.019 167.539 109.119 167.769 109.236 167.981C109.158 167.7 109.075 167.435 108.976 167.179C108.894 166.967 108.811 166.763 108.712 166.572Z" fill="#6B3217"/>
<path d="M114.438 150.926C114.417 150.926 114.391 150.917 114.374 150.904C114.356 150.891 112.716 149.625 111.651 150.41C111.603 150.445 111.539 150.436 111.5 150.388C111.465 150.341 111.474 150.276 111.521 150.237C112.712 149.356 114.43 150.679 114.499 150.735C114.547 150.77 114.555 150.839 114.516 150.887C114.495 150.913 114.464 150.93 114.434 150.93L114.438 150.926Z" fill="#2C2A2B"/>
<path d="M107.339 201.672H130.569L128.557 196.455L127.899 194.764C126.297 194.317 123.609 194.005 120.471 193.927C119.974 193.914 119.472 193.905 118.952 193.905C115.174 193.905 111.858 194.247 110.006 194.764L109.352 196.455L107.335 201.672H107.339Z" fill="#FFC649"/>
<path d="M111.59 217.196C115.338 217.847 119.463 212.101 120.796 204.36C120.956 203.445 121.069 202.547 121.134 201.667C121.246 200.197 121.242 198.792 121.134 197.482C121.021 196.181 120.796 194.985 120.471 193.922C119.974 193.909 119.472 193.901 118.952 193.901C115.174 193.901 111.858 194.243 110.006 194.759C109.807 194.816 109.625 194.872 109.46 194.928C109.252 195.345 109.058 195.778 108.876 196.229C108.162 197.946 107.595 199.898 107.231 202.001C105.889 209.742 107.841 216.541 111.59 217.192V217.196Z" fill="#FFC649"/>
<path d="M104.358 191.81C103.587 190.982 102.735 189.607 102.86 188.042C103.12 184.772 106.595 182.756 109.586 184.438C111.88 185.388 114.637 186.351 114.637 186.364C114.772 186.372 114.767 186.498 114.897 186.533C117.234 187.201 117.377 191.494 116.204 195.293C115.126 198.775 112.932 202.153 110.772 202.175C110.577 202.175 110.378 202.153 110.184 202.097C109.599 201.932 109.162 201.533 108.85 200.969C107.972 199.672 107.522 197.365 107.18 195.787C106.864 194.347 105.626 193.003 104.899 192.309C104.708 192.162 104.531 192.001 104.366 191.828C104.366 191.828 104.358 191.819 104.358 191.815V191.81Z" fill="#0033AE"/>
<path d="M130.393 183.74L134.946 180.856C137.43 179.282 139.915 177.708 142.399 176.138C142.949 175.787 145.412 174.152 145.412 174.152C146.741 174.248 148.866 179.608 149.42 181.932C149.909 183.987 150.662 186.871 149.593 188.857C149 189.959 147.753 190.097 146.637 189.881C145.814 189.72 145.061 189.343 144.274 189.078C143.417 188.788 142.573 188.74 141.681 188.896L133.137 191.242C131.232 191.659 129.704 190.917 128.93 189.729C127.995 188.293 128.622 184.829 130.388 183.744L130.393 183.74Z" fill="#0033AE"/>
<path d="M144.269 182.084C144.282 182.24 144.3 182.396 144.321 182.561C144.893 187.084 147.074 190.132 148.732 189.677C150.403 189.204 150.519 185.978 149.45 181.902C149.208 180.917 148.935 179.95 148.645 179.057C148.087 177.331 147.455 175.861 146.819 174.985C146.425 174.438 146.035 174.118 145.659 174.109C145.074 174.087 144.611 175.002 144.356 176.455C144.096 177.921 144.044 179.928 144.274 182.092L144.269 182.084Z" fill="#2C2A2B"/>
<path d="M110.98 202.148C112.456 202.348 114.802 199.772 116.291 195.436C116.841 193.814 117.066 192.235 117.031 190.865C116.988 189.13 116.525 187.73 115.785 186.975C115.529 186.715 115.248 186.533 114.932 186.437C114.755 186.385 114.586 186.359 114.413 186.359C113.105 186.359 111.989 187.886 111.218 190.301C110.967 191.086 110.76 191.966 110.591 192.916C109.768 197.136 108.033 201.75 110.98 202.148Z" fill="#2C2A2B"/>
<path d="M112.335 172.916C112.309 172.916 112.287 172.908 112.265 172.89C112.222 172.851 112.213 172.786 112.252 172.739C112.923 171.932 113.88 169.551 112.542 167.327C112.512 167.275 112.529 167.21 112.577 167.179C112.629 167.149 112.694 167.166 112.724 167.214C114.122 169.534 113.122 172.027 112.417 172.873C112.395 172.899 112.365 172.912 112.335 172.912V172.916Z" fill="#2C2A2B"/>
<path d="M108.725 200.869C108.69 200.869 108.66 200.852 108.638 200.826C107.279 198.944 107.227 196.416 107.192 194.573C107.171 193.558 107.154 192.678 106.907 192.335C106.872 192.287 106.881 192.222 106.928 192.183C106.976 192.149 107.041 192.157 107.08 192.205C107.37 192.6 107.387 193.467 107.409 194.564C107.444 196.381 107.495 198.866 108.816 200.696C108.85 200.744 108.842 200.809 108.79 200.843C108.772 200.856 108.751 200.865 108.725 200.865V200.869Z" fill="#2C2A2B"/>
<path d="M116.247 201.702L116.602 202.374L117.507 204.083L125.592 219.377L128.393 224.676L128.263 226.619L125.939 261.094L127.8 262.148L143.637 261.094L141.088 223.271C141.005 222.101 140.698 220.956 140.174 219.902L128.497 196.316L116.243 201.702H116.247Z" fill="#FFC649"/>
<path d="M125.592 219.377L128.393 224.676L128.263 226.619L128.289 226.611C128.522 224.013 128.726 223.302 129.089 222.621C128.518 222.343 126.969 221.979 122.515 211.038C120.675 206.511 121.065 203.341 121.026 203.228L117.507 204.083L125.592 219.377Z" fill="#2C2A2B"/>
<path d="M125.938 261.094C126.116 261.901 127.471 262.434 129.903 262.66C131.081 262.764 132.513 262.807 134.188 262.772C134.799 262.759 135.383 262.746 135.941 262.72C136.867 262.686 137.711 262.642 138.486 262.586C139.456 262.508 140.3 262.417 141.01 262.295C142.607 262.022 143.516 261.636 143.641 261.09C143.814 260.309 142.148 259.511 138.123 260.084C137.283 260.201 136.344 260.383 135.296 260.63C133.898 260.964 132.704 261.198 131.682 261.35C131.336 261.406 131.007 261.45 130.704 261.48C130.436 261.515 130.185 261.541 129.942 261.558C126.614 261.84 125.947 261.086 125.947 261.086L125.938 261.094Z" fill="#2C2A2B"/>
<path d="M109.738 266.242L111.296 266.775C111.958 267.005 112.681 266.992 113.339 266.749L114.953 266.151C115.676 265.882 116.148 265.188 116.135 264.42L116.1 262.334C116.399 261.328 115.425 260.413 114.443 260.778C114.443 260.778 109.617 261.467 108.907 262.144L108.508 264.086C108.318 265.01 108.846 265.934 109.738 266.237V266.242Z" fill="#2C2A2B"/>
<path d="M112.443 263.679C115.009 262.538 116.027 261.771 116.027 261.771L109.435 261.805L112.443 263.679Z" fill="#FFB287"/>
<path d="M103.021 261.22C103.008 261.25 102.99 261.281 102.99 261.315C102.99 262.126 106.942 262.79 111.811 262.79C116.681 262.79 120.252 262.191 120.598 261.432H120.65L120.187 222.513L121.221 200.6L106.808 206.901L106.89 208.549L106.903 208.796C106.903 208.835 106.903 208.874 106.903 208.913L106.933 209.477V209.499L107.518 221.29C107.57 222.317 107.531 223.349 107.409 224.373L107.102 226.927C107.102 226.927 107.102 226.94 107.102 226.944L102.99 261.216H103.021V261.22Z" fill="#FFC649"/>
<path d="M120.463 216.784C120.403 216.784 120.359 216.732 120.359 216.676C120.398 215.392 120.74 204.135 120.987 203.536C121.247 202.907 122.61 202.279 122.666 202.253C122.718 202.227 122.783 202.253 122.809 202.305C122.835 202.357 122.809 202.422 122.757 202.448C122.385 202.617 121.372 203.163 121.186 203.619C121.009 204.044 120.723 211.663 120.576 216.68C120.576 216.736 120.528 216.784 120.468 216.784H120.463Z" fill="#2C2A2B"/>
<path d="M121.121 199.499C121.061 199.499 121.018 199.447 121.018 199.386C121.035 198.914 121.048 198.371 121.057 197.812C121.078 196.437 121.061 194.881 121.039 193.948C121.039 193.888 121.083 193.84 121.143 193.84C121.199 193.84 121.247 193.888 121.251 193.944C121.273 194.881 121.29 196.437 121.269 197.816C121.26 198.376 121.247 198.922 121.23 199.395C121.23 199.451 121.182 199.499 121.121 199.499Z" fill="#2C2A2B"/>
<path d="M129.089 197.612H128.964C128.276 197.612 127.042 197.591 126.211 197.573H125.891C125.571 197.56 125.367 197.556 125.363 197.556C125.311 197.556 125.268 197.517 125.259 197.465L124.739 194.23C124.731 194.174 124.77 194.117 124.826 194.109C124.887 194.1 124.939 194.139 124.947 194.2L125.454 197.348C125.545 197.348 125.696 197.352 125.891 197.357H126.211C127.038 197.374 128.271 197.396 128.96 197.4H129.085C129.146 197.4 129.193 197.448 129.193 197.508C129.193 197.569 129.146 197.617 129.085 197.617L129.089 197.612Z" fill="#2C2A2B"/>
<path d="M112.85 197.613C112.625 197.613 112.477 197.613 112.447 197.604C112.391 197.591 112.352 197.534 112.361 197.478C112.374 197.422 112.43 197.383 112.486 197.391C112.625 197.413 114.919 197.374 116.477 197.344L117.031 193.909C117.039 193.848 117.096 193.814 117.152 193.818C117.208 193.827 117.252 193.883 117.239 193.94L116.672 197.461C116.663 197.513 116.62 197.552 116.568 197.552C116.035 197.56 113.78 197.604 112.845 197.604L112.85 197.613Z" fill="#2C2A2B"/>
<path d="M128.055 229.846C128.055 229.846 128.05 229.846 128.046 229.846C127.986 229.846 127.942 229.789 127.947 229.733C128.033 228.458 128.107 227.434 128.18 226.602C128.414 224.022 128.617 223.271 128.994 222.573C129.042 222.482 129.094 222.391 129.15 222.291C129.18 222.239 129.245 222.222 129.297 222.252C129.349 222.283 129.366 222.348 129.336 222.4C129.284 222.491 129.232 222.578 129.189 222.669C128.825 223.345 128.626 224.074 128.397 226.619C128.323 227.452 128.25 228.475 128.163 229.746C128.163 229.802 128.111 229.846 128.055 229.846Z" fill="#2C2A2B"/>
<path d="M107.522 221.294C107.574 222.322 107.535 223.354 107.414 224.377L107.106 226.931C107.202 226.628 108.621 223.415 108.227 219.841C107.859 216.52 107.128 212.344 106.938 209.503L107.522 221.294Z" fill="#2C2A2B"/>
<path d="M130.695 261.489C131.656 261.745 133.69 262.274 135.941 262.725C138.205 263.184 140.724 263.562 142.542 263.471C142.542 263.471 141.888 262.972 141.005 262.3C140.135 261.632 139.04 260.791 138.118 260.088C137.279 260.205 136.339 260.387 135.292 260.635C133.418 261.086 131.907 261.35 130.695 261.489Z" fill="#FFB287"/>
<path d="M135.474 265.708V264.26L139.902 265.708H146.979C147.667 265.708 148.338 265.539 148.944 265.209C149.281 265.023 149.195 264.507 148.814 264.451L138.487 262.59L131.678 261.359C131.332 261.415 131.003 261.458 130.7 261.489C130.432 261.523 130.181 261.549 129.938 261.567L129.908 262.664L129.83 265.708H135.479H135.474Z" fill="#2C2A2B"/>
<path d="M113.326 186.897C112.919 187.105 114.966 188.892 115.464 188.398C117.524 186.355 119.342 184.143 119.221 183.493C119.229 183.363 119.082 183.285 118.978 183.363C118.978 183.363 116.338 185.362 113.326 186.901V186.897Z" fill="#FFB287"/>
<path d="M116.958 190.362C116.897 190.692 116.975 191.025 117.174 191.294L117.252 191.398L119.498 179.894C119.468 179.044 119.728 178.836 120.026 178.84L130.315 178.857L130.007 178.584C129.847 178.354 129.588 178.22 129.306 178.216L119.645 178.168C119.364 178.168 119.122 178.367 119.07 178.645L116.949 190.358L116.958 190.362Z" fill="#2C2A2B"/>
<path d="M119.286 179.152L117.114 191.012C117.066 191.273 117.265 191.515 117.533 191.515H127.385C127.662 191.515 127.9 191.32 127.956 191.051L130.41 179.222C130.466 178.957 130.263 178.71 129.995 178.71L119.862 178.675C119.581 178.675 119.338 178.875 119.286 179.152Z" fill="#FF671F"/>
<path d="M123.459 183.142C123.489 183.593 123.965 183.931 124.519 183.896C125.073 183.857 125.502 183.463 125.471 183.007C125.441 182.552 124.965 182.218 124.411 182.253C123.857 182.292 123.428 182.686 123.459 183.142Z" fill="#2C2A2B"/>
<path d="M144.269 182.084L148.641 179.052L149.619 178.372L147.264 174.707L146.81 174.98L144.347 176.451C144.087 177.916 144.035 179.924 144.265 182.088L144.269 182.084Z" fill="#FFB287"/>
<path d="M147.273 174.915L148.641 179.031C148.641 179.031 153.069 178.294 153.982 177.465C154.662 176.845 152.528 174.078 152.528 174.078L147.273 174.915Z" fill="#FFB287"/>
<path d="M145.671 175.739C145.334 176.052 147.792 177.209 148.139 176.598C149.563 174.07 150.705 171.446 150.415 170.848C150.389 170.722 150.225 170.683 150.147 170.787C150.147 170.787 148.152 173.437 145.676 175.739H145.671Z" fill="#FFB287"/>
<path d="M152.462 175.288C152.527 175.271 152.605 175.241 152.662 175.215L152.752 175.163C152.817 175.124 152.852 175.098 152.904 175.063C152.995 174.998 153.081 174.933 153.164 174.868C153.328 174.738 153.48 174.603 153.631 174.469C153.93 174.196 154.215 173.914 154.488 173.619C154.93 173.142 155.566 172.344 156.02 171.698C156.128 171.542 155.999 171.333 155.813 171.364C155.475 171.42 155.168 171.598 154.943 171.854C154.601 172.244 154.246 172.565 153.826 172.951C153.549 173.202 153.263 173.445 152.969 173.671C152.822 173.784 152.675 173.892 152.523 173.992C152.449 174.044 152.376 174.087 152.307 174.13C152.276 174.148 152.233 174.174 152.211 174.183L152.177 174.2C152.177 174.2 152.216 174.178 152.242 174.178L152.462 175.284V175.288Z" fill="#FFB287"/>
<path d="M152.506 176.06C152.57 176.043 152.648 176.017 152.7 175.991L152.795 175.943C152.865 175.909 152.912 175.878 152.973 175.848C153.085 175.783 153.189 175.718 153.293 175.657C153.501 175.527 153.704 175.392 153.904 175.254C154.302 174.976 154.687 174.686 155.064 174.373C155.739 173.81 156.565 172.951 157.128 172.166C157.202 172.066 157.128 171.923 157.003 171.923C156.578 171.919 156.167 172.088 155.882 172.405C155.475 172.86 155.042 173.233 154.488 173.632C154.12 173.901 153.735 174.152 153.345 174.386C153.15 174.503 152.951 174.616 152.752 174.725C152.653 174.777 152.553 174.829 152.458 174.876C152.41 174.898 152.358 174.924 152.319 174.941L152.259 174.968C152.259 174.968 152.276 174.959 152.285 174.959L152.506 176.065V176.06Z" fill="#FFB287"/>
<path d="M152.722 177.188C152.778 177.166 152.839 177.144 152.882 177.123L152.982 177.071C153.051 177.036 153.103 177.001 153.164 176.971C153.281 176.902 153.393 176.837 153.501 176.767C153.722 176.628 153.938 176.485 154.146 176.333C154.566 176.034 154.977 175.722 155.367 175.384C156.046 174.798 156.964 173.901 157.574 173.103C157.678 172.968 157.57 172.773 157.397 172.786H157.332C156.938 172.825 156.579 173.02 156.315 173.315C155.86 173.818 155.384 174.2 154.782 174.655C154.397 174.946 153.99 175.219 153.579 175.475C153.371 175.601 153.164 175.722 152.956 175.839C152.852 175.896 152.744 175.952 152.64 176.004C152.588 176.026 152.532 176.056 152.488 176.078L152.419 176.108C152.419 176.108 152.411 176.108 152.406 176.112L152.718 177.196L152.722 177.188Z" fill="#FFB287"/>
<path d="M152.783 178.016L152.922 177.977L153.013 177.942L153.186 177.873C153.259 177.843 153.329 177.812 153.402 177.778C153.545 177.712 153.688 177.647 153.826 177.578C154.346 177.314 154.848 177.027 155.324 176.693C155.991 176.234 156.856 175.419 157.423 174.677C157.527 174.543 157.436 174.347 157.267 174.334C156.947 174.313 156.631 174.434 156.41 174.668C155.96 175.15 155.406 175.553 154.822 175.9C154.359 176.177 153.87 176.412 153.376 176.62C153.251 176.672 153.121 176.719 152.995 176.767C152.931 176.789 152.866 176.815 152.805 176.837L152.662 176.88L152.593 176.902C152.593 176.902 152.576 176.902 152.571 176.906L152.792 178.012L152.783 178.016Z" fill="#FFB287"/>
<path d="M118.351 188.181C118.424 188.198 118.515 188.211 118.58 188.215H118.697C118.783 188.215 118.831 188.202 118.9 188.198C119.026 188.185 119.138 188.168 119.255 188.146C119.485 188.107 119.701 188.059 119.922 188.007C120.359 187.903 120.783 187.777 121.203 187.639C121.887 187.409 122.93 186.98 123.713 186.594C123.904 186.503 123.886 186.229 123.687 186.16C123.328 186.034 122.939 186.043 122.579 186.173C122.038 186.368 121.523 186.494 120.913 186.641C120.51 186.737 120.104 186.819 119.701 186.884C119.498 186.914 118.437 187.058 118.459 187.071L118.355 188.181H118.351Z" fill="#FFB287"/>
<path d="M118.822 188.914C118.892 188.927 118.974 188.935 119.03 188.935H119.143C119.22 188.931 119.277 188.922 119.346 188.918C119.48 188.909 119.601 188.892 119.727 188.879C119.974 188.849 120.22 188.809 120.463 188.766C120.952 188.684 121.432 188.58 121.913 188.45C122.778 188.22 123.912 187.782 124.769 187.3C124.882 187.24 124.873 187.075 124.756 187.023C124.367 186.836 123.912 186.815 123.514 186.984C122.943 187.231 122.384 187.387 121.701 187.517C121.246 187.608 120.783 187.673 120.32 187.721C120.09 187.747 119.857 187.764 119.627 187.777C119.515 187.782 119.398 187.79 119.29 187.79C119.238 187.79 119.177 187.79 119.134 187.79H119.065C119.065 187.79 119.086 187.79 119.095 187.79L118.827 188.909L118.822 188.914Z" fill="#FFB287"/>
<path d="M118.117 189.989C118.178 189.993 118.247 189.998 118.295 189.998H118.407C118.485 189.989 118.546 189.985 118.619 189.976C118.758 189.963 118.888 189.95 119.022 189.933C119.286 189.898 119.546 189.859 119.805 189.811C120.325 189.716 120.835 189.603 121.342 189.46C122.22 189.213 123.454 188.779 124.363 188.302C124.519 188.22 124.501 187.994 124.337 187.934L124.272 187.912C123.891 187.773 123.476 187.799 123.108 187.955C122.471 188.224 121.865 188.371 121.117 188.532C120.632 188.636 120.143 188.71 119.654 188.77C119.407 188.801 119.165 188.822 118.918 188.836C118.797 188.844 118.676 188.849 118.559 188.853C118.502 188.853 118.437 188.853 118.39 188.853H118.312C118.312 188.853 118.303 188.849 118.299 188.853L118.122 189.989H118.117Z" fill="#FFB287"/>
<path d="M117.706 190.553L117.849 190.57H117.948L118.135 190.583C118.217 190.583 118.295 190.583 118.373 190.583C118.533 190.583 118.689 190.583 118.849 190.57C119.442 190.535 120.026 190.475 120.61 190.362C121.42 190.206 122.562 189.803 123.393 189.343C123.545 189.26 123.541 189.039 123.389 188.961C123.099 188.809 122.753 188.792 122.454 188.922C121.835 189.187 121.156 189.339 120.468 189.421C119.922 189.49 119.372 189.508 118.823 189.495C118.684 189.495 118.546 189.482 118.407 189.473C118.338 189.469 118.269 189.464 118.199 189.456L118.048 189.438L117.979 189.43C117.979 189.43 117.961 189.425 117.953 189.425L117.706 190.548V190.553Z" fill="#FFB287"/>
<path d="M111.218 190.301L113.243 190.77C114.018 190.947 114.815 191.021 115.611 190.973C116.031 190.947 116.529 190.913 117.035 190.869C118.303 190.761 119.645 190.574 120.143 190.293C120.913 189.846 119.26 187.036 119.26 187.036L115.788 186.98L115.382 186.971L115.434 186.719C115.434 186.719 115.022 186.572 114.416 186.364C113.109 186.364 111.993 187.89 111.222 190.306L111.218 190.301Z" fill="#FFB287"/>
<path d="M119.226 189.1C119.169 189.1 119.126 189.057 119.117 189C119.113 188.94 119.156 188.888 119.213 188.883C122.082 188.636 124.13 187.548 124.692 187.222L124.766 187.305L124.801 187.409C124.229 187.743 122.147 188.849 119.234 189.1C119.234 189.1 119.23 189.1 119.226 189.1Z" fill="#A55930"/>
<path d="M119.308 190.106C119.256 190.106 119.208 190.067 119.2 190.011C119.195 189.95 119.234 189.898 119.295 189.894C121.779 189.633 124.281 188.228 124.303 188.211C124.355 188.181 124.419 188.198 124.45 188.25C124.48 188.302 124.463 188.367 124.411 188.398C124.385 188.411 121.844 189.842 119.316 190.106C119.316 190.106 119.308 190.106 119.303 190.106H119.308Z" fill="#A55930"/>
<path d="M119.226 188.163C119.169 188.163 119.122 188.12 119.117 188.064C119.113 188.003 119.156 187.955 119.217 187.947C120.399 187.855 121.537 187.422 121.55 187.417C121.606 187.396 121.667 187.426 121.688 187.478C121.71 187.535 121.68 187.595 121.628 187.617C121.58 187.634 120.446 188.064 119.234 188.159C119.234 188.159 119.23 188.159 119.226 188.159V188.163Z" fill="#A55930"/>
<path d="M148.229 176.377C148.199 176.377 148.169 176.364 148.147 176.338C148.108 176.29 148.117 176.225 148.16 176.186C148.498 175.908 148.948 175.08 149.398 173.918C149.411 173.888 149.419 173.866 149.419 173.862C149.445 173.81 149.51 173.784 149.562 173.81C149.614 173.836 149.64 173.896 149.614 173.953L149.597 173.996C149.324 174.699 148.796 175.939 148.298 176.351C148.277 176.368 148.255 176.377 148.229 176.377Z" fill="#A55930"/>
<path d="M149.788 177.088C149.766 177.088 149.744 177.079 149.723 177.066C149.199 176.672 148.069 176.576 147.593 177.014C147.55 177.053 147.481 177.049 147.442 177.006C147.403 176.962 147.407 176.893 147.45 176.854C148.013 176.342 149.264 176.446 149.853 176.893C149.9 176.928 149.909 176.997 149.874 177.045C149.853 177.071 149.822 177.088 149.788 177.088Z" fill="#A55930"/>
<path d="M114.945 157.106C114.91 157.106 114.875 157.088 114.854 157.058C114.832 157.023 114.33 156.256 113.508 156.62C113.451 156.642 113.391 156.62 113.365 156.563C113.343 156.507 113.365 156.446 113.421 156.42C114.412 155.987 115.027 156.932 115.035 156.941C115.066 156.988 115.053 157.058 115.001 157.088C114.983 157.101 114.962 157.106 114.945 157.106Z" fill="#A55930"/>
<path d="M119.857 158.862C119.857 158.897 119.857 158.936 119.844 158.966C119.757 159.304 119.234 159.456 118.68 159.309C118.126 159.165 117.749 158.771 117.836 158.433C117.849 158.398 117.857 158.368 117.875 158.337C118.134 158.48 118.463 158.615 118.835 158.71C119.208 158.805 119.558 158.853 119.857 158.862Z" fill="#2C2A2B"/>
<path d="M119.857 158.862C119.559 158.857 119.208 158.805 118.836 158.71C118.464 158.615 118.139 158.48 117.875 158.337C118.031 158.064 118.503 157.955 119 158.086C119.494 158.211 119.849 158.541 119.853 158.857L119.857 158.862Z" fill="white"/>
</g>
<path d="M285.318 268.424C285.318 268.971 281.749 269.413 277.344 269.413C272.94 269.413 269.371 268.971 269.371 268.424C269.371 267.878 272.94 267.436 277.344 267.436C281.749 267.436 285.318 267.878 285.318 268.424Z" fill="#EDD9CC"/>
<path d="M278.685 251.138C278.514 251.138 278.374 251 278.372 250.829C278.312 247.56 280.932 246.144 281.043 246.086C281.197 246.006 281.388 246.064 281.468 246.218C281.548 246.371 281.49 246.56 281.337 246.642C281.337 246.642 280.725 246.971 280.137 247.651C279.361 248.551 278.977 249.615 278.999 250.818C279.001 250.991 278.863 251.133 278.69 251.138C278.69 251.138 278.685 251.138 278.683 251.138H278.685Z" fill="#0A705C"/>
<path d="M277.673 243.022C277.673 243.022 274.027 236.144 287.109 231.319C287.784 231.07 288.467 231.666 288.304 232.368C287.48 235.948 284.771 244.322 277.673 243.022Z" fill="#004238"/>
<path d="M274.084 250.515C274.068 250.515 274.053 250.515 274.039 250.513C273.868 250.489 273.748 250.329 273.773 250.157C274.679 243.899 279.342 240.988 279.87 240.677C280.019 240.588 280.215 240.637 280.304 240.786C280.393 240.935 280.346 241.126 280.197 241.215L280.19 241.219C279.97 241.348 278.806 242.068 277.555 243.473C275.828 245.411 274.766 247.691 274.395 250.249C274.373 250.404 274.237 250.517 274.084 250.517V250.515Z" fill="#004238"/>
<path d="M276.005 250.515C276.005 250.515 275.996 250.515 275.99 250.515C275.816 250.506 275.683 250.36 275.69 250.186C275.816 247.509 274.116 245.066 274.099 245.042C273.999 244.9 274.032 244.704 274.174 244.604C274.316 244.504 274.512 244.537 274.612 244.68C274.688 244.786 276.452 247.324 276.316 250.215C276.308 250.384 276.17 250.515 276.003 250.515H276.005Z" fill="#004238"/>
<path d="M276.906 250.975C276.906 250.975 276.9 250.975 276.898 250.975C276.724 250.971 276.586 250.826 276.591 250.653L276.858 240.468C276.862 240.295 277.006 240.159 277.18 240.162C277.353 240.166 277.491 240.311 277.486 240.484L277.22 250.669C277.215 250.84 277.075 250.975 276.906 250.975Z" fill="#0A705C"/>
<path d="M274.724 245.216C274.724 245.216 267.304 247.574 264.897 233.84C264.773 233.131 265.482 232.567 266.142 232.851C269.517 234.304 277.27 238.464 274.721 245.216H274.724Z" fill="#004238"/>
<path d="M279.529 247.86C279.529 247.86 286.198 251.876 291.727 239.073C292.011 238.413 291.453 237.7 290.745 237.822C287.125 238.451 278.616 240.7 279.529 247.858V247.86Z" fill="#0A705C"/>
<path d="M278.308 243.991C277.792 245.06 276.232 244.942 275.877 243.808C274.295 238.757 271.644 228.048 277.132 226.819C283.29 225.441 281.228 237.948 278.306 243.991H278.308Z" fill="#0A705C"/>
<path d="M277.043 244.676C277.043 244.676 277.039 244.676 277.037 244.676C276.941 244.671 276.868 244.591 276.872 244.498L277.452 230.18C277.457 230.084 277.537 230.011 277.63 230.015C277.726 230.02 277.799 230.1 277.794 230.193L277.214 244.511C277.21 244.602 277.134 244.676 277.043 244.676Z" fill="#004238"/>
<path d="M279.715 247.88C279.666 247.88 279.617 247.858 279.582 247.818C279.522 247.744 279.533 247.636 279.606 247.578L287.535 241.089C287.608 241.029 287.717 241.04 287.775 241.113C287.835 241.186 287.824 241.295 287.75 241.353L279.822 247.842C279.791 247.869 279.751 247.88 279.713 247.88H279.715Z" fill="#004238"/>
<path d="M285.435 249.843L284.993 251.869L284.866 252.454L284.848 252.531L284.597 253.687L284.544 253.929L284.468 254.269L284.399 254.592L282.502 263.258L282.373 263.843L282.104 265.076L281.975 265.658L281.38 268.381H273.286L272.691 265.658L272.562 265.076L272.293 263.843L272.164 263.258L270.266 254.592L270.195 254.269L270.122 253.929L270.069 253.687L269.815 252.531L269.8 252.454L269.671 251.869L269.229 249.843H285.435Z" fill="#FF671F"/>
<path d="M284.993 251.869L284.866 252.453H269.8L269.671 251.869H284.993Z" fill="#FFC649"/>
<path d="M284.597 253.687L284.544 253.929L284.468 254.269H270.195L270.122 253.929L270.068 253.687H284.597Z" fill="#FFC649"/>
<path d="M282.503 263.258L282.374 263.843H272.294L272.165 263.258H282.503Z" fill="#FFC649"/>
<path d="M282.104 265.076L281.975 265.659H272.69L272.562 265.076H282.104Z" fill="#FFC649"/>
<path d="M96.1755 268.381C96.1755 268.816 91.8838 269.168 86.5878 269.168C81.2917 269.168 77 268.816 77 268.381C77 267.946 81.2917 267.594 86.5878 267.594C91.8838 267.594 96.1755 267.946 96.1755 268.381Z" fill="#EDD9CC"/>
<path d="M92.384 260.698H80.4338C80.3577 260.698 80.2959 260.76 80.2959 260.836V261.529C80.2959 261.605 80.3577 261.667 80.4338 261.667H92.384C92.4602 261.667 92.522 261.605 92.522 261.529V260.836C92.522 260.76 92.4602 260.698 92.384 260.698Z" fill="#531F00"/>
<path d="M92.0086 249.967H80.8311C80.6455 249.967 80.4951 250.117 80.4951 250.303V251.677C80.4951 251.862 80.6455 252.013 80.8311 252.013H92.0086C92.1941 252.013 92.3445 251.862 92.3445 251.677V250.303C92.3445 250.117 92.1941 249.967 92.0086 249.967Z" fill="#1A1A1A"/>
<path d="M86.3252 239.225C86.3252 239.225 80.2794 225.885 86.2386 224.847C90.7937 224.054 90.2897 233.243 86.3252 239.225Z" fill="#0A705C"/>
<path d="M86.225 247.81C86.1702 247.81 86.126 247.764 86.126 247.71C86.1737 243.151 86.5079 230.355 86.5115 230.226C86.5115 230.171 86.5574 230.127 86.614 230.129C86.6688 230.129 86.7131 230.176 86.7113 230.231C86.7077 230.36 86.3735 243.153 86.3258 247.711C86.3258 247.766 86.2816 247.81 86.2268 247.81H86.225Z" fill="#004238"/>
<path d="M84.9487 242.776C84.9487 242.776 75.849 234.141 79.1292 230.739C82.7471 226.988 85.5092 236.635 84.9487 242.776Z" fill="#0A705C"/>
<path d="M85.921 247.033C85.8697 247.033 85.8255 246.994 85.8219 246.941C85.5337 243.284 81.8928 235.275 81.8556 235.196C81.8326 235.146 81.8556 235.086 81.9051 235.063C81.9547 235.04 82.0148 235.063 82.036 235.112C82.0731 235.194 85.73 243.235 86.02 246.925C86.0235 246.98 85.9829 247.028 85.928 247.031C85.9245 247.031 85.9227 247.031 85.921 247.031V247.033Z" fill="#004238"/>
<path d="M87.7524 242.549C87.7524 242.549 97.2606 234.365 94.1484 230.808C90.7178 226.886 87.4889 236.388 87.7524 242.549Z" fill="#0A705C"/>
<path d="M86.5803 246.753C86.5803 246.753 86.5715 246.753 86.5679 246.753C86.5131 246.746 86.4742 246.697 86.4813 246.642C86.9499 242.969 90.994 235.116 91.0347 235.036C91.0594 234.986 91.1196 234.969 91.1691 234.994C91.2186 235.018 91.2363 235.078 91.2115 235.128C91.1708 235.206 87.1444 243.029 86.6793 246.668C86.6723 246.718 86.6298 246.755 86.5803 246.755V246.753Z" fill="#004238"/>
<path d="M91.5377 244.529L91.3963 244.902L91.3078 245.139L91.0532 245.816L90.9648 246.053L90.7031 246.748L90.6147 246.983L89.4918 249.967H83.354L82.2311 246.983L82.1427 246.748L81.881 246.053L81.7926 245.816L81.538 245.139L81.4495 244.902L81.3081 244.529C81.2108 244.273 81.4 244 81.6741 244H91.1752C91.4475 244 91.6368 244.273 91.5413 244.529H91.5377Z" fill="#FF671F"/>
<path d="M91.3956 244.902L91.3072 245.139H81.5337L81.4453 244.902H91.3956Z" fill="#FFC649"/>
<path d="M91.0522 245.817L90.9638 246.052H81.8783L81.7881 245.817H91.0522Z" fill="#FFC649"/>
<path d="M90.7018 246.749L90.6116 246.984H82.2281L82.1396 246.749H90.7018Z" fill="#FFC649"/>
<path d="M84.7768 252.012L84.4356 253.109L79.6983 268.38H78.7734L81.7778 253.422L82.0607 252.012H84.7768Z" fill="#1A1A1A"/>
<path d="M82.0612 252.012H84.7774L84.4361 253.109L81.7783 253.422L82.0612 252.012Z" fill="#531F00"/>
<path d="M94.0952 268.38H93.1704L88.2916 252.658L88.0918 252.012H90.8079L90.8769 252.354L94.0952 268.38Z" fill="#1A1A1A"/>
<path d="M90.8769 252.354L88.2916 252.658L88.0918 252.012H90.8079L90.8769 252.354Z" fill="#531F00"/>
<path d="M92.1612 258.591H80.6566C80.4574 258.591 80.2959 258.752 80.2959 258.952V259.199C80.2959 259.398 80.4574 259.56 80.6566 259.56H92.1612C92.3605 259.56 92.522 259.398 92.522 259.199V258.952C92.522 258.752 92.3605 258.591 92.1612 258.591Z" fill="#1A1A1A"/>
<path d="M38.3125 36.8125L40.2812 32.5781H43.625L39.8672 39.5391V44H36.7578V39.6328L33 32.5781H36.3594L38.3125 36.8125ZM55.5469 38.2734C55.5469 39.1536 55.4401 39.9557 55.2266 40.6797C55.0182 41.3984 54.6901 42.0182 54.2422 42.5391C53.7943 43.0599 53.2188 43.4609 52.5156 43.7422C51.8125 44.0182 50.9714 44.1562 49.9922 44.1562C49.0339 44.1562 48.2031 44.0182 47.5 43.7422C46.8021 43.4609 46.2266 43.0625 45.7734 42.5469C45.3203 42.026 44.9844 41.4036 44.7656 40.6797C44.5469 39.9557 44.4375 39.1484 44.4375 38.2578C44.4375 37.0703 44.6328 36.0391 45.0234 35.1641C45.4193 34.2839 46.0286 33.6042 46.8516 33.125C47.6745 32.6406 48.7266 32.3984 50.0078 32.3984C51.3099 32.3984 52.3672 32.6406 53.1797 33.125C53.9974 33.6094 54.5964 34.2917 54.9766 35.1719C55.3568 36.0521 55.5469 37.0859 55.5469 38.2734ZM47.6875 38.2734C47.6875 38.9609 47.7656 39.5521 47.9219 40.0469C48.0781 40.5417 48.3255 40.9219 48.6641 41.1875C49.0026 41.4531 49.4453 41.5859 49.9922 41.5859C50.5599 41.5859 51.0104 41.4531 51.3438 41.1875C51.6823 40.9219 51.9245 40.5417 52.0703 40.0469C52.2214 39.5521 52.2969 38.9609 52.2969 38.2734C52.2969 37.2422 52.125 36.4271 51.7812 35.8281C51.4375 35.2292 50.8464 34.9297 50.0078 34.9297C49.4505 34.9297 49 35.0651 48.6562 35.3359C48.3177 35.6068 48.0703 35.9922 47.9141 36.4922C47.763 36.9922 47.6875 37.5859 47.6875 38.2734ZM67.3203 32.5781V39.4531C67.3203 40.4115 67.138 41.2448 66.7734 41.9531C66.4089 42.6562 65.862 43.2005 65.1328 43.5859C64.4036 43.9661 63.4896 44.1562 62.3906 44.1562C60.8177 44.1562 59.6172 43.7526 58.7891 42.9453C57.9609 42.138 57.5469 40.9974 57.5469 39.5234V32.5781H60.6484V39.2812C60.6484 40.0885 60.7995 40.6745 61.1016 41.0391C61.4036 41.4036 61.849 41.5859 62.4375 41.5859C62.8594 41.5859 63.2031 41.5078 63.4688 41.3516C63.7344 41.1901 63.9271 40.9375 64.0469 40.5938C64.1719 40.25 64.2344 39.8073 64.2344 39.2656V32.5781H67.3203ZM73.4609 32.5781C74.4974 32.5781 75.3594 32.7057 76.0469 32.9609C76.7344 33.2109 77.25 33.5859 77.5938 34.0859C77.9427 34.5859 78.1172 35.2083 78.1172 35.9531C78.1172 36.4167 78.0391 36.8385 77.8828 37.2188C77.7266 37.599 77.5026 37.9401 77.2109 38.2422C76.9245 38.5391 76.5807 38.7995 76.1797 39.0234L79.5078 44H76.0078L73.5859 39.8438H72.8047V44H69.7188V32.5781H73.4609ZM73.4141 34.9141H72.8047V37.5234H73.3828C73.8568 37.5234 74.2448 37.4193 74.5469 37.2109C74.849 37.0026 75 36.6302 75 36.0938C75 35.724 74.875 35.4349 74.625 35.2266C74.375 35.0182 73.9714 34.9141 73.4141 34.9141ZM83.8047 47.5859C83.4557 47.5859 83.151 47.5677 82.8906 47.5312C82.625 47.5 82.3958 47.4635 82.2031 47.4219V45.0234C82.3698 45.0547 82.5469 45.0885 82.7344 45.125C82.9219 45.1667 83.125 45.1875 83.3438 45.1875C83.7135 45.1875 84 45.112 84.2031 44.9609C84.4115 44.8099 84.5573 44.5833 84.6406 44.2812C84.724 43.9792 84.7656 43.6016 84.7656 43.1484V32.5781H87.8672V42.8828C87.8672 44.0286 87.6953 44.9453 87.3516 45.6328C87.0078 46.3203 86.5312 46.8177 85.9219 47.125C85.3125 47.4323 84.6068 47.5859 83.8047 47.5859ZM101.031 38.2734C101.031 39.1536 100.924 39.9557 100.711 40.6797C100.503 41.3984 100.174 42.0182 99.7266 42.5391C99.2786 43.0599 98.7031 43.4609 98 43.7422C97.2969 44.0182 96.4557 44.1562 95.4766 44.1562C94.5182 44.1562 93.6875 44.0182 92.9844 43.7422C92.2865 43.4609 91.7109 43.0625 91.2578 42.5469C90.8047 42.026 90.4688 41.4036 90.25 40.6797C90.0312 39.9557 89.9219 39.1484 89.9219 38.2578C89.9219 37.0703 90.1172 36.0391 90.5078 35.1641C90.9036 34.2839 91.513 33.6042 92.3359 33.125C93.1589 32.6406 94.2109 32.3984 95.4922 32.3984C96.7943 32.3984 97.8516 32.6406 98.6641 33.125C99.4818 33.6094 100.081 34.2917 100.461 35.1719C100.841 36.0521 101.031 37.0859 101.031 38.2734ZM93.1719 38.2734C93.1719 38.9609 93.25 39.5521 93.4062 40.0469C93.5625 40.5417 93.8099 40.9219 94.1484 41.1875C94.487 41.4531 94.9297 41.5859 95.4766 41.5859C96.0443 41.5859 96.4948 41.4531 96.8281 41.1875C97.1667 40.9219 97.4089 40.5417 97.5547 40.0469C97.7057 39.5521 97.7812 38.9609 97.7812 38.2734C97.7812 37.2422 97.6094 36.4271 97.2656 35.8281C96.9219 35.2292 96.3307 34.9297 95.4922 34.9297C94.9349 34.9297 94.4844 35.0651 94.1406 35.3359C93.8021 35.6068 93.5547 35.9922 93.3984 36.4922C93.2474 36.9922 93.1719 37.5859 93.1719 38.2734ZM112.805 32.5781V39.4531C112.805 40.4115 112.622 41.2448 112.258 41.9531C111.893 42.6562 111.346 43.2005 110.617 43.5859C109.888 43.9661 108.974 44.1562 107.875 44.1562C106.302 44.1562 105.102 43.7526 104.273 42.9453C103.445 42.138 103.031 40.9974 103.031 39.5234V32.5781H106.133V39.2812C106.133 40.0885 106.284 40.6745 106.586 41.0391C106.888 41.4036 107.333 41.5859 107.922 41.5859C108.344 41.5859 108.688 41.5078 108.953 41.3516C109.219 41.1901 109.411 40.9375 109.531 40.5938C109.656 40.25 109.719 39.8073 109.719 39.2656V32.5781H112.805ZM118.945 32.5781C119.982 32.5781 120.844 32.7057 121.531 32.9609C122.219 33.2109 122.734 33.5859 123.078 34.0859C123.427 34.5859 123.602 35.2083 123.602 35.9531C123.602 36.4167 123.523 36.8385 123.367 37.2188C123.211 37.599 122.987 37.9401 122.695 38.2422C122.409 38.5391 122.065 38.7995 121.664 39.0234L124.992 44H121.492L119.07 39.8438H118.289V44H115.203V32.5781H118.945ZM118.898 34.9141H118.289V37.5234H118.867C119.341 37.5234 119.729 37.4193 120.031 37.2109C120.333 37.0026 120.484 36.6302 120.484 36.0938C120.484 35.724 120.359 35.4349 120.109 35.2266C119.859 35.0182 119.456 34.9141 118.898 34.9141ZM136.906 44H132.859L128.688 35.9531H128.617C128.643 36.1979 128.667 36.4922 128.688 36.8359C128.708 37.1797 128.727 37.5312 128.742 37.8906C128.758 38.2448 128.766 38.5651 128.766 38.8516V44H126.031V32.5781H130.062L134.219 40.5156H134.266C134.25 40.2656 134.234 39.9766 134.219 39.6484C134.203 39.3151 134.188 38.9792 134.172 38.6406C134.161 38.3021 134.156 38.0026 134.156 37.7422V32.5781H136.906V44ZM146.156 44H139.375V32.5781H146.156V35.0547H142.461V36.8516H145.883V39.3281H142.461V41.4844H146.156V44ZM152.234 36.8125L154.203 32.5781H157.547L153.789 39.5391V44H150.68V39.6328L146.922 32.5781H150.281L152.234 36.8125ZM161.438 41.6641L161.547 41.8438C161.453 42.224 161.331 42.6823 161.18 43.2188C161.034 43.75 160.872 44.2839 160.695 44.8203C160.523 45.362 160.349 45.8307 160.172 46.2266H157.992C158.096 45.737 158.198 45.2214 158.297 44.6797C158.396 44.138 158.487 43.6068 158.57 43.0859C158.654 42.5651 158.719 42.0911 158.766 41.6641H161.438ZM38.3125 56.8125L40.2812 52.5781H43.625L39.8672 59.5391V64H36.7578V59.6328L33 52.5781H36.3594L38.3125 56.8125ZM55.5469 58.2734C55.5469 59.1536 55.4401 59.9557 55.2266 60.6797C55.0182 61.3984 54.6901 62.0182 54.2422 62.5391C53.7943 63.0599 53.2188 63.4609 52.5156 63.7422C51.8125 64.0182 50.9714 64.1562 49.9922 64.1562C49.0339 64.1562 48.2031 64.0182 47.5 63.7422C46.8021 63.4609 46.2266 63.0625 45.7734 62.5469C45.3203 62.026 44.9844 61.4036 44.7656 60.6797C44.5469 59.9557 44.4375 59.1484 44.4375 58.2578C44.4375 57.0703 44.6328 56.0391 45.0234 55.1641C45.4193 54.2839 46.0286 53.6042 46.8516 53.125C47.6745 52.6406 48.7266 52.3984 50.0078 52.3984C51.3099 52.3984 52.3672 52.6406 53.1797 53.125C53.9974 53.6094 54.5964 54.2917 54.9766 55.1719C55.3568 56.0521 55.5469 57.0859 55.5469 58.2734ZM47.6875 58.2734C47.6875 58.9609 47.7656 59.5521 47.9219 60.0469C48.0781 60.5417 48.3255 60.9219 48.6641 61.1875C49.0026 61.4531 49.4453 61.5859 49.9922 61.5859C50.5599 61.5859 51.0104 61.4531 51.3438 61.1875C51.6823 60.9219 51.9245 60.5417 52.0703 60.0469C52.2214 59.5521 52.2969 58.9609 52.2969 58.2734C52.2969 57.2422 52.125 56.4271 51.7812 55.8281C51.4375 55.2292 50.8464 54.9297 50.0078 54.9297C49.4505 54.9297 49 55.0651 48.6562 55.3359C48.3177 55.6068 48.0703 55.9922 47.9141 56.4922C47.763 56.9922 47.6875 57.5859 47.6875 58.2734ZM67.3203 52.5781V59.4531C67.3203 60.4115 67.138 61.2448 66.7734 61.9531C66.4089 62.6562 65.862 63.2005 65.1328 63.5859C64.4036 63.9661 63.4896 64.1562 62.3906 64.1562C60.8177 64.1562 59.6172 63.7526 58.7891 62.9453C57.9609 62.138 57.5469 60.9974 57.5469 59.5234V52.5781H60.6484V59.2812C60.6484 60.0885 60.7995 60.6745 61.1016 61.0391C61.4036 61.4036 61.849 61.5859 62.4375 61.5859C62.8594 61.5859 63.2031 61.5078 63.4688 61.3516C63.7344 61.1901 63.9271 60.9375 64.0469 60.5938C64.1719 60.25 64.2344 59.8073 64.2344 59.2656V52.5781H67.3203ZM73.4609 52.5781C74.4974 52.5781 75.3594 52.7057 76.0469 52.9609C76.7344 53.2109 77.25 53.5859 77.5938 54.0859C77.9427 54.5859 78.1172 55.2083 78.1172 55.9531C78.1172 56.4167 78.0391 56.8385 77.8828 57.2188C77.7266 57.599 77.5026 57.9401 77.2109 58.2422C76.9245 58.5391 76.5807 58.7995 76.1797 59.0234L79.5078 64H76.0078L73.5859 59.8438H72.8047V64H69.7188V52.5781H73.4609ZM73.4141 54.9141H72.8047V57.5234H73.3828C73.8568 57.5234 74.2448 57.4193 74.5469 57.2109C74.849 57.0026 75 56.6302 75 56.0938C75 55.724 74.875 55.4349 74.625 55.2266C74.375 55.0182 73.9714 54.9141 73.4141 54.9141ZM87.7422 64H84.7031V52.5781H91.4531V55.0547H87.7422V57.2344H91.1641V59.7109H87.7422V64ZM103.039 52.5781V59.4531C103.039 60.4115 102.857 61.2448 102.492 61.9531C102.128 62.6562 101.581 63.2005 100.852 63.5859C100.122 63.9661 99.2083 64.1562 98.1094 64.1562C96.5365 64.1562 95.3359 63.7526 94.5078 62.9453C93.6797 62.138 93.2656 60.9974 93.2656 59.5234V52.5781H96.3672V59.2812C96.3672 60.0885 96.5182 60.6745 96.8203 61.0391C97.1224 61.4036 97.5677 61.5859 98.1562 61.5859C98.5781 61.5859 98.9219 61.5078 99.1875 61.3516C99.4531 61.1901 99.6458 60.9375 99.7656 60.5938C99.8906 60.25 99.9531 59.8073 99.9531 59.2656V52.5781H103.039ZM110.477 64H107.391V55.1016H104.602V52.5781H113.258V55.1016H110.477V64ZM124.602 52.5781V59.4531C124.602 60.4115 124.419 61.2448 124.055 61.9531C123.69 62.6562 123.143 63.2005 122.414 63.5859C121.685 63.9661 120.771 64.1562 119.672 64.1562C118.099 64.1562 116.898 63.7526 116.07 62.9453C115.242 62.138 114.828 60.9974 114.828 59.5234V52.5781H117.93V59.2812C117.93 60.0885 118.081 60.6745 118.383 61.0391C118.685 61.4036 119.13 61.5859 119.719 61.5859C120.141 61.5859 120.484 61.5078 120.75 61.3516C121.016 61.1901 121.208 60.9375 121.328 60.5938C121.453 60.25 121.516 59.8073 121.516 59.2656V52.5781H124.602ZM130.742 52.5781C131.779 52.5781 132.641 52.7057 133.328 52.9609C134.016 53.2109 134.531 53.5859 134.875 54.0859C135.224 54.5859 135.398 55.2083 135.398 55.9531C135.398 56.4167 135.32 56.8385 135.164 57.2188C135.008 57.599 134.784 57.9401 134.492 58.2422C134.206 58.5391 133.862 58.7995 133.461 59.0234L136.789 64H133.289L130.867 59.8438H130.086V64H127V52.5781H130.742ZM130.695 54.9141H130.086V57.5234H130.664C131.138 57.5234 131.526 57.4193 131.828 57.2109C132.13 57.0026 132.281 56.6302 132.281 56.0938C132.281 55.724 132.156 55.4349 131.906 55.2266C131.656 55.0182 131.253 54.9141 130.695 54.9141ZM144.609 64H137.828V52.5781H144.609V55.0547H140.914V56.8516H144.336V59.3281H140.914V61.4844H144.609V64ZM150.766 64V52.5781H153.852V61.5078H158.25V64H150.766ZM166.859 64H160.078V52.5781H166.859V55.0547H163.164V56.8516H166.586V59.3281H163.164V61.4844H166.859V64ZM173.898 64H170.812V55.1016H168.023V52.5781H176.68V55.1016H173.898V64ZM180.805 52.5938L180.922 52.7656C180.828 53.151 180.706 53.612 180.555 54.1484C180.404 54.6797 180.24 55.2135 180.062 55.75C179.891 56.2865 179.716 56.7526 179.539 57.1484H177.367C177.445 56.7839 177.521 56.4036 177.594 56.0078C177.672 55.6068 177.745 55.2057 177.812 54.8047C177.88 54.4036 177.94 54.0156 177.992 53.6406C178.049 53.2604 178.096 52.9115 178.133 52.5938H180.805ZM189.781 60.5312C189.781 61.151 189.625 61.7396 189.312 62.2969C189 62.849 188.513 63.2969 187.852 63.6406C187.195 63.9844 186.346 64.1562 185.305 64.1562C184.784 64.1562 184.326 64.1328 183.93 64.0859C183.539 64.0391 183.174 63.9635 182.836 63.8594C182.497 63.75 182.146 63.6094 181.781 63.4375V60.6875C182.401 61 183.026 61.2396 183.656 61.4062C184.286 61.5677 184.857 61.6484 185.367 61.6484C185.674 61.6484 185.924 61.612 186.117 61.5391C186.315 61.4661 186.461 61.3672 186.555 61.2422C186.648 61.112 186.695 60.9635 186.695 60.7969C186.695 60.599 186.625 60.4323 186.484 60.2969C186.349 60.1562 186.13 60.0104 185.828 59.8594C185.526 59.7083 185.128 59.5208 184.633 59.2969C184.211 59.099 183.828 58.8958 183.484 58.6875C183.146 58.4792 182.854 58.2422 182.609 57.9766C182.37 57.7057 182.185 57.3906 182.055 57.0312C181.924 56.6719 181.859 56.2474 181.859 55.7578C181.859 55.0234 182.039 54.4089 182.398 53.9141C182.763 53.4141 183.268 53.0391 183.914 52.7891C184.565 52.5391 185.315 52.4141 186.164 52.4141C186.909 52.4141 187.578 52.4974 188.172 52.6641C188.771 52.8307 189.307 53.0208 189.781 53.2344L188.836 55.6172C188.346 55.3932 187.865 55.2161 187.391 55.0859C186.917 54.9505 186.477 54.8828 186.07 54.8828C185.805 54.8828 185.586 54.9167 185.414 54.9844C185.247 55.0469 185.122 55.1328 185.039 55.2422C184.961 55.3516 184.922 55.4766 184.922 55.6172C184.922 55.7943 184.99 55.9531 185.125 56.0938C185.266 56.2344 185.497 56.388 185.82 56.5547C186.148 56.7161 186.594 56.9271 187.156 57.1875C187.714 57.4375 188.188 57.7083 188.578 58C188.969 58.2865 189.266 58.6328 189.469 59.0391C189.677 59.4401 189.781 59.9375 189.781 60.5312ZM303.625 62.7031C303.625 62.151 303.786 61.763 304.109 61.5391C304.438 61.3151 304.831 61.2031 305.289 61.2031C305.721 61.2031 306.096 61.3151 306.414 61.5391C306.732 61.763 306.891 62.151 306.891 62.7031C306.891 63.2292 306.732 63.6094 306.414 63.8438C306.096 64.0781 305.721 64.1953 305.289 64.1953C304.831 64.1953 304.438 64.0781 304.109 63.8438C303.786 63.6094 303.625 63.2292 303.625 62.7031Z" fill="#1A1A1A"/>
<path d="M200.68 64L198.344 55.7734H198.273C198.294 55.987 198.315 56.276 198.336 56.6406C198.362 57.0052 198.385 57.3984 198.406 57.8203C198.427 58.2422 198.438 58.6484 198.438 59.0391V64H195.703V52.5781H199.812L202.195 60.6875H202.258L204.594 52.5781H208.711V64H205.875V58.9922C205.875 58.6328 205.88 58.2474 205.891 57.8359C205.906 57.4193 205.922 57.0286 205.938 56.6641C205.958 56.2943 205.977 56.0026 205.992 55.7891H205.922L203.617 64H200.68ZM218.18 64L217.617 61.8594H213.906L213.328 64H209.938L213.664 52.5312H217.781L221.555 64H218.18ZM216.977 59.3281L216.484 57.4531C216.432 57.25 216.357 56.9609 216.258 56.5859C216.159 56.2057 216.06 55.8151 215.961 55.4141C215.867 55.0078 215.794 54.6745 215.742 54.4141C215.695 54.6745 215.628 54.9974 215.539 55.3828C215.456 55.763 215.367 56.1406 215.273 56.5156C215.185 56.8906 215.107 57.2031 215.039 57.4531L214.547 59.3281H216.977ZM232.555 64H229.07L226.812 59.6328L225.898 60.1797V64H222.797V52.5781H225.898V57.5391C226.029 57.2891 226.177 57.0391 226.344 56.7891C226.516 56.5391 226.682 56.3021 226.844 56.0781L229.242 52.5781H232.617L229.016 57.6953L232.555 64ZM240.578 64H233.797V52.5781H240.578V55.0547H236.883V56.8516H240.305V59.3281H236.883V61.4844H240.578V64ZM246.734 64V52.5781H249.836V64H246.734ZM257.352 64H254.266V55.1016H251.477V52.5781H260.133V55.1016H257.352V64ZM273.391 60.5312C273.391 61.151 273.234 61.7396 272.922 62.2969C272.609 62.849 272.122 63.2969 271.461 63.6406C270.805 63.9844 269.956 64.1562 268.914 64.1562C268.393 64.1562 267.935 64.1328 267.539 64.0859C267.148 64.0391 266.784 63.9635 266.445 63.8594C266.107 63.75 265.755 63.6094 265.391 63.4375V60.6875C266.01 61 266.635 61.2396 267.266 61.4062C267.896 61.5677 268.466 61.6484 268.977 61.6484C269.284 61.6484 269.534 61.612 269.727 61.5391C269.924 61.4661 270.07 61.3672 270.164 61.2422C270.258 61.112 270.305 60.9635 270.305 60.7969C270.305 60.599 270.234 60.4323 270.094 60.2969C269.958 60.1562 269.74 60.0104 269.438 59.8594C269.135 59.7083 268.737 59.5208 268.242 59.2969C267.82 59.099 267.438 58.8958 267.094 58.6875C266.755 58.4792 266.464 58.2422 266.219 57.9766C265.979 57.7057 265.794 57.3906 265.664 57.0312C265.534 56.6719 265.469 56.2474 265.469 55.7578C265.469 55.0234 265.648 54.4089 266.008 53.9141C266.372 53.4141 266.878 53.0391 267.523 52.7891C268.174 52.5391 268.924 52.4141 269.773 52.4141C270.518 52.4141 271.188 52.4974 271.781 52.6641C272.38 52.8307 272.917 53.0208 273.391 53.2344L272.445 55.6172C271.956 55.3932 271.474 55.2161 271 55.0859C270.526 54.9505 270.086 54.8828 269.68 54.8828C269.414 54.8828 269.195 54.9167 269.023 54.9844C268.857 55.0469 268.732 55.1328 268.648 55.2422C268.57 55.3516 268.531 55.4766 268.531 55.6172C268.531 55.7943 268.599 55.9531 268.734 56.0938C268.875 56.2344 269.107 56.388 269.43 56.5547C269.758 56.7161 270.203 56.9271 270.766 57.1875C271.323 57.4375 271.797 57.7083 272.188 58C272.578 58.2865 272.875 58.6328 273.078 59.0391C273.286 59.4401 273.391 59.9375 273.391 60.5312ZM282.164 64L281.602 61.8594H277.891L277.312 64H273.922L277.648 52.5312H281.766L285.539 64H282.164ZM280.961 59.3281L280.469 57.4531C280.417 57.25 280.341 56.9609 280.242 56.5859C280.143 56.2057 280.044 55.8151 279.945 55.4141C279.852 55.0078 279.779 54.6745 279.727 54.4141C279.68 54.6745 279.612 54.9974 279.523 55.3828C279.44 55.763 279.352 56.1406 279.258 56.5156C279.169 56.8906 279.091 57.2031 279.023 57.4531L278.531 59.3281H280.961ZM289.82 64H286.781V52.5781H293.531V55.0547H289.82V57.2344H293.242V59.7109H289.82V64ZM302.188 64H295.406V52.5781H302.188V55.0547H298.492V56.8516H301.914V59.3281H298.492V61.4844H302.188V64Z" fill="#FF671F"/>
<path opacity="0.6" fill-rule="evenodd" clip-rule="evenodd" d="M315.85 -7.00623C316.194 -10.2651 316.859 -13.4965 317.846 -16.6489L350.351 -49.1537C353.503 -50.1408 356.735 -50.8061 359.994 -51.1498L315.85 -7.00623ZM331.148 34.3458C332.478 35.6023 333.861 36.7713 335.288 37.8529L404.853 -31.7121C403.771 -33.1395 402.602 -34.5217 401.346 -35.8516L331.148 34.3458ZM345.429 43.7847C343.699 43.0328 342.002 42.1777 340.349 41.2193L408.219 -26.6513C409.178 -24.9981 410.033 -23.3013 410.785 -21.5705L345.429 43.7847ZM351.639 46.0022C353.712 46.59 355.816 47.0405 357.936 47.3537L414.354 -9.0645C414.041 -11.1845 413.59 -13.2881 413.002 -15.3609L351.639 46.0022ZM374.304 47.0586C371.504 47.5762 368.668 47.852 365.83 47.886L414.886 -1.16963C414.852 1.66844 414.576 4.50417 414.059 7.30397L374.304 47.0586ZM386.826 42.9637C391.712 40.6047 396.292 37.3986 400.345 33.3453C404.399 29.2919 407.605 24.7122 409.964 19.8261L386.826 42.9637ZM397.003 -39.9358L327.064 30.0029C325.885 28.5896 324.797 27.1263 323.799 25.6205L392.621 -43.201C394.126 -42.2034 395.59 -41.115 397.003 -39.9358ZM381.902 -48.556C383.726 -47.9075 385.52 -47.1491 387.273 -46.2807L320.719 20.2731C319.851 18.5198 319.092 16.726 318.444 14.9018L381.902 -48.556ZM316.604 8.31514L375.315 -50.3965C373.091 -50.8555 370.842 -51.1609 368.584 -51.3127L315.687 1.58377C315.839 3.84162 316.145 6.09107 316.604 8.31514Z" fill="#FFC649"/>
<path opacity="0.3" fill-rule="evenodd" clip-rule="evenodd" d="M-40.8763 136.885C-40.629 134.54 -40.1502 132.215 -39.44 129.947L-16.0534 106.56C-13.7851 105.85 -11.46 105.371 -9.11512 105.124L-40.8763 136.885ZM-29.8697 166.637C-28.9128 167.541 -27.9183 168.382 -26.8912 169.16L23.1605 119.109C22.3822 118.082 21.5411 117.087 20.637 116.13L-29.8697 166.637ZM-19.5942 173.428C-20.8396 172.887 -22.0605 172.272 -23.2501 171.582L25.5826 122.75C26.2722 123.939 26.8876 125.16 27.4286 126.406L-19.5942 173.428ZM-15.1264 175.024C-13.6352 175.447 -12.1219 175.771 -10.5969 175.996L29.9964 135.403C29.771 133.878 29.4469 132.365 29.0241 130.873L-15.1264 175.024ZM1.18043 175.784C-0.834144 176.157 -2.87456 176.355 -4.91666 176.379L30.3795 141.083C30.3551 143.125 30.1567 145.166 29.7843 147.18L1.18043 175.784ZM10.1897 172.838C13.7055 171.141 17.0009 168.834 19.9175 165.917C22.8341 163.001 25.141 159.705 26.8382 156.19L10.1897 172.838ZM17.5123 113.192L-32.8082 163.512C-33.6565 162.495 -34.4395 161.443 -35.1572 160.359L14.3594 110.843C15.4427 111.56 16.4955 112.343 17.5123 113.192ZM6.64719 106.99C7.95974 107.456 9.25046 108.002 10.512 108.627L-37.3731 156.512C-37.9979 155.25 -38.5436 153.96 -39.0102 152.647L6.64719 106.99ZM-40.3343 147.908L1.90807 105.666C0.308007 105.335 -1.31031 105.116 -2.93467 105.006L-40.9935 143.065C-40.8842 144.69 -40.6645 146.308 -40.3343 147.908Z" fill="#FF671F"/>
</g>
<defs>
<linearGradient id="paint0_linear_324_820" x1="195" y1="105" x2="195" y2="249" gradientUnits="userSpaceOnUse">
<stop stop-color="white"/>
<stop offset="1" stop-color="white" stop-opacity="0"/>
</linearGradient>
<clipPath id="clip0_324_820">
<rect width="33.7128" height="29.1279" fill="white" transform="translate(258.755 183.424)"/>
</clipPath>
<clipPath id="clip1_324_820">
<rect width="54.7833" height="122.592" fill="white" transform="translate(102.834 144.348)"/>
</clipPath>
</defs>
</svg>
