<svg width="122" height="18" viewBox="0 0 122 18" fill="none" xmlns="http://www.w3.org/2000/svg">
<path d="M0.172656 18V0.274999H3.39766L10.1977 10.55H8.67266L15.4477 0.274999H18.6727V18H14.2477V7.675L14.9477 7.875L10.8727 14H7.97266L3.92266 7.875L4.62266 7.675V18H0.172656ZM27.2529 11.65L20.4779 0.274999H25.6029L30.7779 9.5H27.1779L32.3529 0.274999H37.3779L30.5529 11.65H27.2529ZM26.7279 18V9.825H31.2029V18H26.7279ZM46.6426 10.825V7.625H50.0176C50.7509 7.625 51.3092 7.45 51.6926 7.1C52.0926 6.73333 52.2926 6.24167 52.2926 5.625C52.2926 5.025 52.0926 4.54167 51.6926 4.175C51.3092 3.79167 50.7509 3.6 50.0176 3.6H46.6426V0.274999H50.6426C51.8426 0.274999 52.8926 0.499999 53.7926 0.949999C54.7092 1.4 55.4259 2.01667 55.9426 2.8C56.4592 3.58333 56.7176 4.5 56.7176 5.55C56.7176 6.6 56.4509 7.525 55.9176 8.325C55.4009 9.10833 54.6759 9.725 53.7426 10.175C52.8092 10.6083 51.7176 10.825 50.4676 10.825H46.6426ZM43.0926 18V0.274999H47.5676V18H43.0926ZM52.6926 18L47.5426 10.4L51.5676 9.425L57.8676 18H52.6926ZM77.1258 18V0.274999H81.6008V18H77.1258ZM80.6758 11.375V7.6H89.4508V11.375H80.6758ZM80.6758 4.05V0.274999H89.8508V4.05H80.6758ZM110.532 18L103.832 8.75L110.257 0.274999H115.707L108.382 9.475V7.9L115.982 18H110.532ZM99.782 18V0.274999H104.257V18H99.782ZM117.36 18V0.274999H121.835V18H117.36Z" fill="#1A1A1A"/>
<path d="M57.4664 18L64.3414 0.274999H68.6664L75.4664 18H70.7914L65.6664 3.1H67.2914L62.0414 18H57.4664ZM61.6414 14.9V11.35H71.4164V14.9H61.6414ZM92.1648 18V0.274999H96.6398V18H92.1648Z" fill="#FF671F"/>
</svg>
