<svg width="80" height="80" viewBox="0 0 80 80" fill="none" xmlns="http://www.w3.org/2000/svg">
<rect width="80" height="80" rx="40" fill="url(#paint0_linear_14_3004)"/>
<g opacity="0.66" filter="url(#filter0_f_14_3004)">
<ellipse cx="42.3948" cy="55.3415" rx="12.9469" ry="1.52317" fill="#842A00"/>
</g>
<g clip-path="url(#clip0_14_3004)">
<path d="M45.0645 26.5689C44.6688 26.5272 44.265 26.5057 43.8561 26.5057C38.3705 26.5057 33.9232 30.3851 33.9232 35.1708V48.5018C33.9232 48.8217 33.9484 49.1361 33.9969 49.4444C32.0067 49.0657 30.2275 48.1935 28.8377 46.9809C26.9451 45.3304 25.7745 43.0488 25.7745 40.5293L19.8019 40.6414L25.7745 34.3464V29.4826C25.7745 27.0895 26.8865 24.9233 28.684 23.3546C30.4808 21.7865 32.9637 20.8164 35.7068 20.8164C40.0212 20.8164 43.6935 23.2161 45.0645 26.5689Z" fill="#0008FF"/>
<path d="M45.6395 29.4822V42.8132C45.6395 46.5909 42.1297 49.6529 37.7989 49.6529H36.2327C35.4654 49.6529 34.7169 49.5809 33.9968 49.4441C33.9483 49.1363 33.9231 48.8213 33.9231 48.5014V35.1705C33.9231 30.3847 38.3704 26.5054 43.856 26.5054C44.2648 26.5054 44.6681 26.5274 45.0643 26.5686C45.4367 27.4788 45.6395 28.4599 45.6395 29.4817V29.4822Z" fill="#FFC649"/>
<path d="M59.7608 46.33L53.7882 46.2179C53.7882 48.7374 52.6177 51.0184 50.7251 52.669C48.8325 54.3201 46.2179 55.3414 43.3299 55.3414H41.763C37.7996 55.3414 34.5229 52.7756 33.9962 49.4443C34.7163 49.5811 35.4647 49.6531 36.2321 49.6531H37.7983C42.1291 49.6531 45.6389 46.5911 45.6389 42.8134V29.4824C45.6389 28.4606 45.4361 27.4795 45.0637 26.5693C47.3236 26.8084 49.3491 27.7098 50.8788 29.0438C52.6762 30.6119 53.7876 32.7786 53.7876 35.1712V40.035L59.7602 46.33H59.7608Z" fill="#FF671F"/>
<circle cx="37.1592" cy="36.3765" r="1.69385" fill="white"/>
<circle cx="42.8991" cy="36.2564" r="1.69385" fill="white"/>
</g>
<defs>
<filter id="filter0_f_14_3004" x="19.4479" y="43.8184" width="45.8938" height="23.0464" filterUnits="userSpaceOnUse" color-interpolation-filters="sRGB">
<feFlood flood-opacity="0" result="BackgroundImageFix"/>
<feBlend mode="normal" in="SourceGraphic" in2="BackgroundImageFix" result="shape"/>
<feGaussianBlur stdDeviation="5" result="effect1_foregroundBlur_14_3004"/>
</filter>
<linearGradient id="paint0_linear_14_3004" x1="40" y1="0" x2="40" y2="80" gradientUnits="userSpaceOnUse">
<stop stop-color="#FFFDF6"/>
<stop offset="1" stop-color="#FFF1D4"/>
</linearGradient>
<clipPath id="clip0_14_3004">
<rect width="39.9596" height="34.5251" fill="white" transform="translate(19.8012 20.8164)"/>
</clipPath>
</defs>
</svg>
