<svg width="80" height="81" viewBox="0 0 80 81" fill="none" xmlns="http://www.w3.org/2000/svg">
<g opacity="0.34" filter="url(#filter0_f_36_625)">
<ellipse cx="44.5" cy="68" rx="25.5" ry="3" fill="#842A00"/>
</g>
<g clip-path="url(#clip0_36_625)">
<path d="M49.7581 11.3301C48.9788 11.2478 48.1834 11.2056 47.3781 11.2056C36.5738 11.2056 27.8145 18.8463 27.8145 28.2722V54.5286C27.8145 55.1587 27.8641 55.7779 27.9597 56.3852C24.0397 55.6393 20.5355 53.9213 17.7981 51.5332C14.0706 48.2822 11.765 43.7885 11.765 38.8261L0.00152588 39.0469L11.765 26.6483V17.0687C11.765 12.3553 13.9552 8.0889 17.4954 4.99927C21.0343 1.91072 25.9246 0 31.3274 0C39.8249 0 47.058 4.72646 49.7581 11.3301Z" fill="#0033AE"/>
<path d="M50.8908 17.0677V43.3242C50.8908 50.7646 43.9778 56.7956 35.4481 56.7956H32.3633C30.8519 56.7956 29.3777 56.6538 27.9594 56.3842C27.8638 55.778 27.8142 55.1577 27.8142 54.5276V28.2712C27.8142 18.8453 36.5735 11.2046 47.3778 11.2046C48.1832 11.2046 48.9773 11.2479 49.7578 11.3291C50.4912 13.1218 50.8908 15.0542 50.8908 17.0667V17.0677Z" fill="#FFC649"/>
<path d="M78.7037 50.2513L66.9402 50.0304C66.9402 54.9929 64.6347 59.4855 60.9071 62.7365C57.1795 65.9885 52.0299 67.9999 46.3417 67.9999H43.2556C35.4493 67.9999 28.9955 62.9465 27.9581 56.3851C29.3764 56.6546 30.8506 56.7965 32.362 56.7965H35.4468C43.9766 56.7965 50.8895 50.7655 50.8895 43.3251V17.0686C50.8895 15.0561 50.4899 13.1238 49.7566 11.3311C54.2076 11.802 58.197 13.5774 61.2098 16.2047C64.7501 19.2933 66.939 23.5608 66.939 28.2731V37.8527L78.7025 50.2513H78.7037Z" fill="#FF671F"/>
<ellipse cx="34.188" cy="30.6462" rx="3.33618" ry="3.33618" fill="white"/>
<ellipse cx="45.493" cy="30.4102" rx="3.33618" ry="3.33618" fill="white"/>
</g>
<defs>
<filter id="filter0_f_36_625" x="9" y="55" width="71" height="26" filterUnits="userSpaceOnUse" color-interpolation-filters="sRGB">
<feFlood flood-opacity="0" result="BackgroundImageFix"/>
<feBlend mode="normal" in="SourceGraphic" in2="BackgroundImageFix" result="shape"/>
<feGaussianBlur stdDeviation="5" result="effect1_foregroundBlur_36_625"/>
</filter>
<clipPath id="clip0_36_625">
<rect width="78.7037" height="68" fill="white"/>
</clipPath>
</defs>
</svg>
