<svg width="45" height="45" viewBox="0 0 45 45" fill="none" xmlns="http://www.w3.org/2000/svg">
<rect width="45" height="45" rx="22.5" fill="#F5F5F5"/>
<g clip-path="url(#clip0_106_2089)">
<path d="M32.8291 18.6157C32.6181 15.8624 31.1863 14.3422 28.4382 14.1811C24.5246 13.9496 20.5758 13.9345 16.6571 14.166C13.7935 14.3322 12.3366 15.9127 12.1456 18.7768C11.9547 21.6107 11.9497 24.4848 12.1607 27.3187C12.3667 30.0872 13.7684 31.5016 16.5114 31.8187C18.4909 32.0452 20.5155 31.864 22.52 31.864C22.52 31.9043 22.52 31.9496 22.52 31.9899C24.1528 31.9899 25.7856 32.0201 27.4184 31.9848C30.6638 31.9144 32.6232 30.364 32.8492 27.2835C33.0602 24.4093 33.0452 21.4949 32.8291 18.6207V18.6157ZM20.0081 30.057C18.7169 30.057 17.466 30.1677 16.2452 30.0268C14.9691 29.8758 13.9543 28.6426 13.9291 27.2734C13.8739 24.4295 13.8689 21.5805 13.9291 18.7365C13.9643 17.1358 15.0746 16.0687 16.7476 15.9328C17.7775 15.8473 18.8224 15.9177 20.0031 15.9177V30.062L20.0081 30.057ZM31.0909 27.0922C31.0557 28.8842 29.8349 30.0671 28.0715 30.0922C26.077 30.1224 24.0825 30.0973 22.0126 30.0973V15.9328C24.2131 15.9328 26.3382 15.8322 28.4533 15.963C30.0811 16.0637 31.0657 17.2516 31.0959 18.9278C31.1411 21.6459 31.1461 24.3691 31.0959 27.0922H31.0909Z" fill="#1A1A1A"/>
<path d="M16.9486 18.0571C16.2402 18.0571 15.6675 18.631 15.6675 19.3407C15.6675 20.0504 16.2402 20.6242 16.9486 20.6242C17.657 20.6242 18.2297 20.0504 18.2297 19.3407C18.2297 18.631 17.657 18.0571 16.9486 18.0571Z" fill="#1A1A1A"/>
<path d="M16.9486 21.7163C16.2402 21.7163 15.6675 22.2901 15.6675 22.9999C15.6675 23.7096 16.2402 24.2834 16.9486 24.2834C17.657 24.2834 18.2297 23.7096 18.2297 22.9999C18.2297 22.2901 17.657 21.7163 16.9486 21.7163Z" fill="#1A1A1A"/>
</g>
<defs>
<clipPath id="clip0_106_2089">
<rect width="21" height="18" fill="white" transform="translate(12 14)"/>
</clipPath>
</defs>
</svg>
