<svg width="217" height="166" viewBox="0 0 217 166" fill="none" xmlns="http://www.w3.org/2000/svg">
<circle cx="118" cy="72" r="72" fill="url(#paint0_linear_55_1494)"/>
<g clip-path="url(#clip0_55_1494)">
<path d="M203.069 83.2772C202.735 83.242 202.395 83.2239 202.05 83.2239C197.422 83.2239 193.67 86.4968 193.67 90.5344V101.781C193.67 102.051 193.691 102.316 193.732 102.577C192.053 102.257 190.552 101.521 189.379 100.498C187.782 99.1057 186.795 97.1808 186.795 95.0551L181.756 95.1497L186.795 89.8388V85.7354C186.795 83.7163 187.733 81.8888 189.249 80.5654C190.765 79.2424 192.86 78.424 195.174 78.424C198.814 78.424 201.913 80.4485 203.069 83.2772Z" fill="#0033AE"/>
<path d="M203.554 85.7349V96.9818C203.554 100.169 200.593 102.752 196.939 102.752H195.618C194.97 102.752 194.339 102.692 193.731 102.576C193.69 102.316 193.669 102.051 193.669 101.781V90.5339C193.669 86.4963 197.421 83.2234 202.049 83.2234C202.394 83.2234 202.734 83.2419 203.069 83.2767C203.383 84.0446 203.554 84.8724 203.554 85.7344V85.7349Z" fill="#FFC649"/>
<path d="M215.467 99.9492L210.428 99.8546C210.428 101.98 209.441 103.905 207.844 105.297C206.247 106.69 204.042 107.552 201.605 107.552H200.283C196.939 107.552 194.175 105.387 193.73 102.577C194.338 102.692 194.969 102.753 195.617 102.753H196.938C200.592 102.753 203.553 100.169 203.553 96.9824V85.7354C203.553 84.8734 203.382 84.0456 203.068 83.2777C204.974 83.4794 206.683 84.2399 207.974 85.3654C209.49 86.6883 210.428 88.5163 210.428 90.5349V94.6383L215.467 99.9492H215.467Z" fill="#FF671F"/>
<ellipse cx="196.4" cy="91.5514" rx="1.42906" ry="1.42905" fill="white"/>
<ellipse cx="201.243" cy="91.4502" rx="1.42906" ry="1.42905" fill="white"/>
</g>
<path d="M20.4697 163.089C20.4697 164.357 64.4642 165.388 118.735 165.388C173.006 165.388 217 164.361 217 163.089C217 161.818 173.006 160.791 118.735 160.791C64.4642 160.791 20.4697 161.818 20.4697 163.089Z" fill="#EDD9CC"/>
<path d="M159.517 40.98C159.36 26.1321 150.759 23.6516 141.861 23.0479C138.107 22.7941 126.107 22.8685 118.215 22.956C110.323 22.8729 98.323 22.7941 94.5695 23.0479C85.6712 23.6516 75.4124 26.7358 75.2549 41.5838C75.2549 41.5838 75.6092 148.284 77.101 154.79C78.5928 161.295 82.4295 164.445 92.6533 164.655H143.777C154.005 164.445 157.837 161.295 159.329 154.79C160.821 148.284 159.513 40.98 159.513 40.98H159.517Z" fill="#280101"/>
<path d="M155.754 40.7745C155.636 29.9075 150.688 27.5233 141.602 26.924C140.495 26.8496 137.809 26.7621 131.295 26.7621C127.642 26.7621 123.259 26.7883 118.254 26.8408H118.171C113.17 26.7883 108.782 26.7621 105.13 26.7621C98.6199 26.7621 95.9338 26.8496 94.8226 26.924C83.8419 27.6502 79.1128 31.9681 79.0078 41.3125C79.1478 82.5534 79.734 145.642 80.7621 150.41C81.6414 154.129 83.0807 156.99 92.7227 157.183H143.693C153.339 156.99 154.774 154.129 155.649 150.424C156.66 145.568 156.244 80.5936 155.746 40.7745H155.754Z" fill="white"/>
<path d="M107.401 29.7593C106.5 29.7593 105.656 30.2712 105.323 31.0936C105.201 31.3955 105.152 31.728 105.24 32.0823C105.559 33.3466 106.093 33.4516 108.447 33.3466C110.49 33.2548 126.676 33.4779 130.714 33.5041C131.633 33.5085 131.839 32.8698 132.18 32.0298C132.311 31.7061 132.372 31.3342 132.28 30.9274C131.961 29.4531 129.66 29.8731 128.802 29.7681C128.054 29.6762 111.771 29.7462 107.392 29.7681L107.401 29.7593Z" fill="#4A1434"/>
<path d="M177.796 95.0698C177.796 95.0698 93.3834 93.8191 92.9368 95.0698C91.2313 99.8938 90.9714 130.649 91.7917 131.94C92.6119 133.232 176.537 133.386 177.357 130.284C178.178 127.181 177.796 102.476 177.796 102.476C177.796 102.476 181.889 94.8911 181.751 95.0698C181.613 95.2484 177.796 95.0698 177.796 95.0698Z" fill="#BBF1E4"/>
<path opacity="0.2" d="M168.57 108.299H103.819C103.819 108.299 103.405 106.098 103.819 105.619C104.233 105.14 168.245 105.367 168.57 105.952C168.887 106.537 168.57 108.299 168.57 108.299Z" fill="#357968"/>
<path opacity="0.2" d="M168.944 116.007H104.193C104.193 116.007 103.779 113.806 104.193 113.327C104.607 112.848 168.619 113.075 168.944 113.66C169.269 114.244 168.944 116.007 168.944 116.007Z" fill="#357968"/>
<path opacity="0.2" d="M168.57 122.675H103.819C103.819 122.675 103.405 120.474 103.819 119.995C104.233 119.515 168.245 119.743 168.57 120.328C168.887 120.912 168.57 122.675 168.57 122.675Z" fill="#357968"/>
<path d="M106.559 47.3153C106.559 47.3153 152.03 46.6416 152.271 47.3153C153.19 49.9139 152.748 65.5712 152.306 66.2668C151.864 66.9624 107.237 67.9554 106.795 66.2843C106.353 64.6131 106.559 51.3051 106.559 51.3051C106.559 51.3051 104.354 47.2191 104.429 47.3153C104.503 47.4115 106.559 47.3153 106.559 47.3153Z" fill="#FAF4EC"/>
<path opacity="0.2" d="M111.528 54.4373H146.408C146.408 54.4373 146.631 53.2517 146.408 52.9936C146.185 52.7355 111.703 52.858 111.528 53.173C111.357 53.488 111.528 54.4373 111.528 54.4373Z" fill="#9F7D50"/>
<path opacity="0.2" d="M111.329 58.5935H146.209C146.209 58.5935 146.432 57.408 146.209 57.1499C145.986 56.8917 111.504 57.0142 111.329 57.3292C111.154 57.6442 111.329 58.5935 111.329 58.5935Z" fill="#9F7D50"/>
<path opacity="0.2" d="M111.529 62.1851H130.262C130.262 62.1851 130.485 60.9995 130.262 60.7414C130.039 60.4833 111.704 60.6058 111.529 60.9208C111.354 61.2358 111.529 62.1851 111.529 62.1851Z" fill="#9F7D50"/>
<path d="M105.619 72.4787C105.619 72.4787 151.09 71.805 151.331 72.4787C152.249 75.0774 151.807 87.3048 151.366 88.0004C150.924 88.696 106.297 89.6891 105.855 88.0179C105.413 86.3468 105.619 76.4685 105.619 76.4685C105.619 76.4685 103.414 72.3825 103.488 72.4787C103.563 72.575 105.619 72.4787 105.619 72.4787Z" fill="#FAF4EC"/>
<path opacity="0.2" d="M110.59 79.6057H145.47C145.47 79.6057 145.693 78.4202 145.47 78.1621C145.246 77.904 110.764 78.0265 110.59 78.3414C110.419 78.6564 110.59 79.6057 110.59 79.6057Z" fill="#9F7D50"/>
<path opacity="0.2" d="M110.387 83.7572H145.267C145.267 83.7572 145.49 82.5717 145.267 82.3136C145.044 82.0554 110.562 82.1779 110.387 82.4929C110.212 82.8079 110.387 83.7572 110.387 83.7572Z" fill="#9F7D50"/>
<path d="M102.135 52.3153C102.135 55.1327 99.5759 57.3288 96.7586 57.3288C93.9412 57.3288 91.7451 54.9096 91.7451 52.0966C91.7451 49.2793 94.125 47.2975 96.9423 47.2975C99.7597 47.2975 102.135 49.498 102.135 52.3153Z" fill="#0033AE"/>
<path d="M95.1846 53.9428C95.7183 54.9971 97.8751 54.8178 98.6494 54.0609C98.6494 54.0609 98.6275 52.8754 97.1663 52.7485C96.5057 52.6916 95.3946 52.9322 95.1846 53.9428Z" fill="white"/>
<path d="M98.268 51.1564C98.1937 52.0926 97.5243 52.3026 96.82 52.3026C96.1156 52.3026 95.7744 51.7951 95.7744 51.1564C95.7744 50.5177 96.2863 49.9971 96.9906 49.9971C97.6949 49.9971 98.3161 50.5177 98.268 51.1564Z" fill="white"/>
<path d="M119.032 153.434C120.627 153.434 121.919 152.141 121.919 150.547C121.919 148.952 120.627 147.659 119.032 147.659C117.437 147.659 116.145 148.952 116.145 150.547C116.145 152.141 117.437 153.434 119.032 153.434Z" fill="#560505"/>
<path d="M100.982 147.708C101.428 147.581 101.512 147.944 101.538 148.412C101.612 149.777 101.726 152.796 101.293 153.36C100.934 153.824 96.7299 151.247 96.8218 150.67C96.8918 150.228 99.5429 148.119 100.982 147.712V147.708Z" fill="#560505"/>
<path d="M141.436 147.449H136.817C136.619 147.449 136.458 147.61 136.458 147.808V152.427C136.458 152.626 136.619 152.786 136.817 152.786H141.436C141.635 152.786 141.795 152.626 141.795 152.427V147.808C141.795 147.61 141.635 147.449 141.436 147.449Z" fill="#560505"/>
<g clip-path="url(#clip1_55_1494)">
<path d="M44.234 60.076C44.4677 60.8262 45.2165 61.6415 46.2769 62.1966C47.8524 63.0118 49.5145 62.9381 49.9863 62.0275C50.5317 60.9737 49.4756 60.011 48.77 59.3692C48.3286 58.9659 48.0299 58.606 47.8308 58.0249C47.623 57.4134 47.5495 56.7586 47.4889 56.1168C47.4629 55.8523 47.4499 55.5878 47.4196 55.3276C47.4196 55.3103 47.3417 54.9503 47.3244 54.972L44.749 57.9642L44.5673 58.7101C44.4504 58.8098 44.3508 58.9269 44.2773 59.0613C44.1258 59.3605 44.1171 59.7118 44.2297 60.076H44.234Z" fill="#2C2A2B"/>
<path d="M32.452 45.4881C33.9409 46.659 36.0964 46.3988 37.2694 44.907C38.438 43.4153 38.1783 41.2557 36.6894 40.0805C35.2005 38.9097 33.045 39.1699 31.872 40.6616C30.7034 42.1534 30.9631 44.3129 32.452 45.4881Z" fill="#000001"/>
<path d="M46.8652 68.0637C46.8955 68.1158 48.1248 72.4609 49.3843 76.9231C49.8518 78.584 50.3192 80.2579 50.7347 81.7366C50.83 82.0662 51.0334 82.3481 51.1156 82.6646C51.7649 85.1451 53.2798 86.6325 55.4569 85.7869L59.5472 84.0133L52.0808 63.5625C52.0808 63.5625 49.5964 61.6804 48.0382 62.2745C45.9346 63.0854 45.636 66.1687 46.8652 68.0594V68.0637Z" fill="#0033AE"/>
<path d="M49.3848 76.9232C49.8522 78.5841 50.3197 80.258 50.7352 81.7367C50.8304 82.0663 50.9559 82.3785 51.1161 82.6647C50.9992 80.0238 52.4319 77.088 52.3497 76.9883L50.5664 76.0386L49.3848 76.9232Z" fill="#2C2A2B"/>
<path d="M41.1997 58.619C40.9746 58.7231 40.8448 58.7838 40.8448 58.7838L41.8879 62.6172L44.9653 63.736L48.4626 63.22C48.5059 63.0509 45.7963 62.1315 46.7745 58.7968C46.7745 58.7968 46.7745 58.7881 46.7745 58.7838C46.7745 58.6103 46.9563 58.3285 47.0126 58.1593C47.0948 57.9295 47.1598 57.691 47.2247 57.4525C47.3502 56.9451 47.4454 56.4291 47.506 55.9044C47.7441 53.8098 47.506 51.4682 46.5798 49.5471C46.5711 49.5298 46.5581 49.5037 46.5408 49.469C46.4413 49.2392 46.1772 48.6408 45.8742 48.0727C45.5583 47.4656 45.1947 46.8932 44.948 46.8281C44.7402 46.7718 44.5671 47.0753 44.3853 47.3181C44.2728 47.4699 44.1516 47.6 44.0261 47.6C43.6192 47.6 43.2297 47.7301 42.8661 47.9686C42.8185 47.999 42.7709 48.0337 42.7276 48.064C41.3988 49.0614 40.4639 51.5419 40.4639 54.443C40.4639 56.0128 40.7409 57.4612 41.204 58.619H41.1997Z" fill="#000001"/>
<path d="M31.1791 64.4602C33.2913 66.3813 34.4426 70.1497 34.1742 72.5174L33.9059 76.2077L33.8972 76.2814C33.8756 76.5069 33.854 76.7368 33.8323 76.9709C33.802 77.2832 33.776 77.6431 33.7414 78.029C33.5293 78.029 32.9493 86.4288 31.8153 90.6048C35.4251 90.6698 39.0436 90.6178 42.6534 90.44C43.0819 90.6135 43.5277 90.7783 43.9865 90.93C48.1417 92.283 52.4613 90.7349 52.4613 90.7349C52.6518 90.1451 52.3964 89.0957 51.8987 88.3455C51.1369 87.1963 50.6088 86.2943 50.4487 85.0931C50.2496 83.5884 50.1457 82.075 50.1197 80.5442C50.202 80.0411 50.2799 79.5208 50.3664 78.9874C50.3664 78.9657 50.3664 78.9397 50.3751 78.918C50.4097 78.905 50.427 78.9007 50.427 78.9007C52.0155 78.2068 52.6951 77.1877 52.7383 75.9952C52.6951 75.1713 52.3704 73.9527 51.7602 72.8513C51.7428 72.8166 51.7212 72.7862 51.7039 72.7559C51.613 72.5998 51.5178 72.4436 51.4139 72.2875C51.1585 71.9016 50.8772 71.507 50.5655 71.1167C50.479 68.5712 52.1843 64.3171 52.0934 63.6493C52.0891 63.6319 52.0804 63.6059 52.0761 63.5886C51.9549 63.3154 51.7818 63.1159 51.5524 63.0162C50.0894 62.3787 48.3321 61.7716 47.1981 61.3683L42.1253 67.834L34.7196 61.854C34.4902 61.5634 34.1959 61.3336 33.828 61.1775C33.828 61.1775 29.9758 62.834 29.6382 63.4151C29.4694 63.8488 30.11 63.5018 31.1747 64.4689L31.1791 64.4602Z" fill="white"/>
<path d="M44.9561 51.1065C46.4287 49.4862 45.863 46.5675 43.6925 44.5874C41.5221 42.6073 38.5687 42.3156 37.0961 43.9359C35.6235 45.5562 36.1892 48.4749 38.3597 50.455C40.5302 52.4351 43.4835 52.7268 44.9561 51.1065Z" fill="#000001"/>
<path d="M32.1923 75.5703C32.1923 75.6006 32.2009 75.631 32.2052 75.6613C32.2528 75.9475 32.3005 76.2207 32.3437 76.5069C32.5299 77.6691 33.8457 85.7133 33.8457 85.7133C34.6377 86.3507 36.3258 88.8832 39.3426 88.9049C40.8272 85.4704 40.3814 79.9544 38.8449 79.8243C33.5167 79.3777 34.3867 72.1705 34.3261 72.0837L32.2702 75.1193L32.1836 75.5703H32.1923Z" fill="#2C2A2B"/>
<path d="M34.7846 45.2149C33.3908 45.8697 33.0705 48.129 34.0704 50.2625C35.0702 52.3961 37.0093 53.5929 38.403 52.9381C39.7967 52.2833 40.117 50.024 39.1172 47.8905C38.1174 45.7569 36.1783 44.5601 34.7846 45.2149Z" fill="#000001"/>
<path d="M39.7279 62.7603C42.472 62.7603 44.8656 62.1098 46.1511 61.1385C46.216 61.0908 46.2723 61.0431 46.3329 60.9954L47.3241 61.3987L47.2851 61.442L42.1258 68.1679L34.3262 62.1662C35.2654 62.357 38.6155 62.7603 39.7236 62.7603H39.7279Z" fill="#0033AE"/>
<path d="M31.4395 90.7132C31.4395 90.891 31.5909 91.0645 31.8766 91.2293C32.0065 91.3073 32.1709 91.3767 32.3571 91.4504C34.0018 92.0792 37.6765 92.5215 41.9529 92.5215C42.6974 92.5215 43.4289 92.5085 44.13 92.4825C47.4542 92.3611 50.1983 91.9665 51.5531 91.4504C52.1417 91.2249 52.4707 90.9734 52.4707 90.7132C52.4707 90.3663 51.895 90.0367 50.8995 89.7635C49.298 89.3169 46.6102 89.0046 43.4721 88.9266C42.9744 88.9136 42.4723 88.9049 41.9529 88.9049C38.1743 88.9049 34.8588 89.2475 33.0063 89.7635C32.8072 89.8199 32.6254 89.8763 32.4609 89.9327C31.803 90.1712 31.4395 90.4357 31.4395 90.7132Z" fill="#2C2A2B"/>
<path d="M35.6328 61.3943L36.624 62.4611C37.5632 62.6519 38.615 62.7603 39.7274 62.7603C42.6057 62.7603 45.1031 62.0405 46.3324 60.9954L45.7784 60.7699C44.904 60.4099 44.2634 59.6684 44.0167 58.7881C43.9388 58.5236 43.9042 58.246 43.9042 57.9598V52.188H37.9355V58.2937C37.9355 59.3518 37.3858 60.3319 36.4812 60.8826L35.6371 61.3987L35.6328 61.3943Z" fill="#FFB287"/>
<path d="M39.2168 55.7179C39.2168 55.7179 40.4028 57.8905 44.0126 58.7838C43.9346 58.5193 43.8957 58.2417 43.8957 57.9555V56.2816L39.2168 55.7179Z" fill="#2C2A2B"/>
<path d="M29.8771 85.4704L32.236 83.7271C32.6559 83.0723 32.9545 82.3308 33.1709 81.5676C33.647 79.8894 33.7293 78.1244 33.8375 76.9492C33.8591 76.7151 33.8808 76.4852 33.9024 76.2597L33.9111 76.186L34.1794 72.4957C34.4478 70.128 33.6687 66.1644 31.5781 64.2174C30.5566 63.2633 29.8078 63.2243 29.6477 63.3848C29.5005 63.6406 27.2585 69.7464 25.8648 81.7974C25.5964 84.1088 27.2931 85.4531 29.8814 85.4617L29.8771 85.4704Z" fill="#0033AE"/>
<path d="M42.5782 56.8982L42.4793 56.9102C40.1974 57.1852 38.1225 55.5528 37.8479 53.2666L36.9696 45.9517L44.7434 45.0147L45.6926 52.9195C45.9279 54.8784 44.5329 56.6583 42.5776 56.8939L42.5782 56.8982Z" fill="#FFB287"/>
<path d="M42.645 48.2635C43.3115 47.3745 45.1338 47.3355 45.4887 48.502C45.4973 48.5367 45.4584 48.567 45.4237 48.554C44.9909 48.3849 44.6187 48.4153 44.1945 48.476C43.7703 48.5237 43.3548 48.6798 42.948 48.7535C42.6753 48.8142 42.4718 48.4716 42.6407 48.2591L42.645 48.2635Z" fill="#2C2A2B"/>
<path d="M40.6718 48.9746C40.1265 49.1004 39.5248 49.2175 39.0184 49.4863C38.8453 49.5817 38.6592 49.7032 38.499 49.894C38.4817 49.9157 38.4514 49.9157 38.4341 49.8983C38.3172 49.6208 38.4254 49.2955 38.5769 49.0527C39.066 48.3459 40.0269 47.9946 40.8406 48.3632C41.1566 48.5497 41.0224 48.9313 40.6762 48.979L40.6718 48.9746Z" fill="#2C2A2B"/>
<path d="M39.4203 51.1558C39.4203 51.1558 39.3986 51.1558 39.3856 51.1515C39.3294 51.1342 39.2991 51.0734 39.3164 51.0171C39.325 50.9954 39.4852 50.4967 39.8791 50.2192C39.9483 50.1671 40.0176 50.1324 40.0912 50.1064C40.2989 50.024 40.5153 50.0197 40.7101 50.0891C40.9135 50.1541 41.0607 50.2799 41.1299 50.3406L41.1559 50.3623C41.2122 50.3796 41.2295 50.436 41.2122 50.4924C41.1949 50.5487 41.1213 50.5747 41.065 50.5574C41.039 50.5487 41.0217 50.5314 40.9871 50.5054C40.9265 50.4533 40.8053 50.3492 40.6408 50.2929C40.4894 50.2365 40.3292 50.2452 40.1647 50.3102C40.1085 50.3319 40.0522 50.3579 40.0003 50.4013C39.667 50.6355 39.5198 51.0821 39.5155 51.0864C39.5025 51.1298 39.4592 51.1602 39.4116 51.1602L39.4203 51.1558Z" fill="#2C2A2B"/>
<path d="M42.9564 50.7265C42.9564 50.7265 42.9348 50.7265 42.9218 50.7222C42.8655 50.7048 42.8352 50.6441 42.8525 50.5877C42.8612 50.5661 43.0213 50.0674 43.4152 49.7942C43.4844 49.7421 43.5537 49.7074 43.6273 49.6771C43.8394 49.5947 44.0515 49.5904 44.2462 49.6597C44.4497 49.7248 44.5925 49.8505 44.6661 49.9113L44.692 49.9329C44.7483 49.9503 44.77 50.0067 44.7483 50.063C44.731 50.1194 44.6574 50.1454 44.6012 50.1281C44.5752 50.1194 44.5579 50.1021 44.5232 50.076C44.467 50.024 44.3415 49.9199 44.177 49.8636C44.0255 49.8115 43.8653 49.8159 43.7009 49.8809C43.6446 49.9026 43.5927 49.9286 43.5364 49.972C43.2031 50.2061 43.0559 50.6528 43.0516 50.6571C43.0386 50.7005 42.9954 50.7308 42.9477 50.7308L42.9564 50.7265Z" fill="#2C2A2B"/>
<path d="M43.7703 50.3233C43.8006 50.5575 44.0083 50.7266 44.2377 50.7006C44.4671 50.6745 44.6316 50.4577 44.6056 50.2235C44.5753 49.9894 44.3676 49.8203 44.1382 49.8463C43.9088 49.8723 43.7443 50.0891 43.7703 50.3233Z" fill="#2C2A2B"/>
<path d="M40.2908 50.7439C40.3211 50.9781 40.5288 51.1472 40.7582 51.1212C40.9876 51.0952 41.1521 50.8784 41.1261 50.6442C41.0958 50.41 40.8881 50.2409 40.6587 50.2669C40.4293 50.2929 40.2648 50.5098 40.2908 50.7439Z" fill="#2C2A2B"/>
<path d="M42.0176 52.4395C42.0176 52.4395 41.9829 52.4395 41.9743 52.4395C41.9137 52.4395 41.8661 52.3918 41.8704 52.3311C41.8704 52.2704 41.918 52.227 41.9786 52.227C41.9916 52.227 42.0089 52.227 42.0219 52.227C42.2599 52.227 42.6278 52.201 42.8053 52.1316C42.762 51.8237 42.4461 50.436 42.2383 49.5687C42.2253 49.5124 42.2599 49.4517 42.3162 49.4386C42.3725 49.4256 42.4331 49.4603 42.4461 49.5167C43.0866 52.214 43.052 52.2357 42.9698 52.2877C42.7404 52.4265 42.1864 52.4395 42.0176 52.4395Z" fill="#A55930"/>
<path d="M38.3474 79.9588C38.2955 79.9588 38.2479 79.9588 38.1959 79.9588C38.1354 79.9588 38.0877 79.9111 38.0921 79.8503C38.0921 79.7896 38.1483 79.7376 38.2003 79.7463C39.8926 79.7636 41.0699 79.3777 41.0786 79.3733C43.2341 78.4323 43.8401 76.7975 42.8748 74.5208C42.8532 74.4644 42.8748 74.4037 42.9311 74.3821C42.9874 74.3604 43.048 74.3821 43.0696 74.4384C44.0781 76.8148 43.4116 78.5884 41.1522 79.5771C41.0959 79.5945 39.9922 79.9674 38.3431 79.9674L38.3474 79.9588Z" fill="#2C2A2B"/>
<path d="M42.143 47.6303C42.2166 47.6866 42.2902 47.7473 42.3811 47.8167C42.4893 47.8991 42.6061 47.9815 42.7187 48.0639C43.7488 48.7881 44.9434 49.4212 46.5362 49.4733C46.4367 49.2434 46.1727 48.645 45.8697 48.0769C45.32 47.7473 44.753 47.4785 44.3764 47.3224C44.3245 47.2964 44.2769 47.279 44.2379 47.2617C43.9133 47.1359 43.58 47.0839 43.251 47.1272C42.8442 47.1749 42.4763 47.3527 42.1387 47.6346L42.143 47.6303Z" fill="#2C2A2B"/>
<path d="M36.9965 44.7986L39.8575 43.8706L41.1214 44.5558C41.1214 44.5558 41.1603 44.5124 41.1863 44.495L40.6582 42.9946C41.4979 43.1551 42.3419 43.3199 43.1816 43.4803C44.5364 43.7405 45.9561 43.914 47.194 44.5601C48.0899 45.0284 49.0335 46.1906 48.6266 47.162C48.0856 48.4542 46.6573 49.1047 44.3416 48.606C43.4024 48.4022 42.5713 48.0423 41.9351 47.5956C41.9351 47.5956 41.9264 47.587 41.9091 47.5739C41.6407 47.3875 39.4593 45.9217 38.1262 47.0579C36.7065 48.2721 38.1565 51.4334 38.1565 51.4334C38.1565 51.4334 36.9099 52.3874 36.8623 52.253C36.8147 52.1186 34.4688 47.3398 34.4688 47.3398L37.0051 44.7943L36.9965 44.7986Z" fill="#000001"/>
<path d="M31.7292 66.9537C31.6859 67.1098 31.4955 67.5261 31.37 67.8817H33.0797C33.2788 67.2442 33.4259 66.5374 33.4908 65.7525C33.5038 65.6093 33.6207 66.546 33.5861 67.8817H36.6981C37.2738 66.8799 37.8538 65.4793 37.9966 63.736C38.0139 63.5278 38.2563 65.6094 37.923 67.8817H40.1088C40.9182 65.2061 40.507 62.2052 39.36 59.6944C38.6891 58.2287 38.2347 56.802 38.1957 55.1715L38.2953 51.4681L33.4995 48.0466C33.5731 49.7205 33.4216 51.4594 33.335 51.8367C32.9195 53.6537 32.5732 54.6771 31.8634 56.3336C31.7639 56.5721 31.6643 56.8106 31.5734 57.0535C30.7683 59.174 31.6903 60.8522 31.9716 62.9424C32.1534 64.278 32.0452 65.6831 31.7336 66.958L31.7292 66.9537Z" fill="#000001"/>
<path d="M36.789 53.0813C37.5205 53.658 38.4294 53.7231 38.819 53.2287C39.2085 52.7344 38.9272 51.8627 38.1957 51.286C37.4642 50.7092 36.5553 50.6442 36.1657 51.1385C35.7762 51.6329 36.0575 52.5045 36.789 53.0813Z" fill="#FFB287"/>
<path d="M31.7119 61.572C31.7682 61.8279 31.8374 62.0707 31.9283 62.3049C32.0192 62.5391 32.1188 62.7689 32.2356 62.9814C32.1577 62.6995 32.0755 62.435 31.9759 62.1791C31.8937 61.9666 31.8115 61.7628 31.7119 61.572Z" fill="#6B3217"/>
<path d="M37.4385 45.9261C37.4169 45.9261 37.3909 45.9174 37.3736 45.9044C37.3563 45.8914 35.7158 44.6251 34.6511 45.41C34.6035 45.4447 34.5385 45.4361 34.4996 45.3884C34.465 45.3407 34.4736 45.2756 34.5212 45.2366C35.7115 44.3563 37.4298 45.6789 37.4991 45.7353C37.5467 45.77 37.5554 45.8393 37.5164 45.887C37.4948 45.9131 37.4645 45.9304 37.4342 45.9304L37.4385 45.9261Z" fill="#2C2A2B"/>
<path d="M30.3393 96.6715H53.5693L51.5566 91.4548L50.8987 89.7635C49.2973 89.3169 46.6094 89.0046 43.4714 88.9266C42.9736 88.9136 42.4715 88.9049 41.9521 88.9049C38.1735 88.9049 34.858 89.2475 33.0055 89.7635L32.352 91.4548L30.335 96.6715H30.3393Z" fill="#FFC649"/>
<path d="M34.5898 112.196C38.3381 112.847 42.463 107.101 43.7961 99.3601C43.9562 98.4451 44.0688 97.5474 44.1337 96.6671C44.2462 95.1971 44.2419 93.7921 44.1337 92.4824C44.0212 91.1815 43.7961 89.9846 43.4715 88.9222C42.9737 88.9092 42.4716 88.9005 41.9522 88.9005C38.1736 88.9005 34.8581 89.2431 33.0056 89.7591C32.8065 89.8155 32.6247 89.8719 32.4603 89.9283C32.2525 90.3446 32.0577 90.7782 31.8759 91.2292C31.1618 92.9464 30.5948 94.8979 30.2312 97.001C28.8894 104.742 30.8415 111.541 34.5898 112.192V112.196Z" fill="#FFC649"/>
<path d="M27.3576 86.8104C26.5872 85.9821 25.7345 84.6075 25.86 83.042C26.1197 79.7723 29.5954 77.7558 32.5862 79.4384C34.8802 80.3881 37.6373 81.3508 37.6373 81.3638C37.7715 81.3725 37.7672 81.4982 37.897 81.5329C40.2343 82.2007 40.3772 86.4938 39.2042 90.2926C38.1264 93.7748 35.932 97.1529 33.7722 97.1746C33.5774 97.1746 33.3783 97.1529 33.1835 97.0965C32.5992 96.9317 32.162 96.5328 31.8504 95.969C30.9718 94.6724 30.5216 92.3654 30.1797 90.787C29.8637 89.3472 28.6258 88.0029 27.8987 87.3091C27.7082 87.1617 27.5308 87.0012 27.3663 86.8277C27.3663 86.8277 27.3576 86.8191 27.3576 86.8147V86.8104Z" fill="#0033AE"/>
<path d="M53.3927 78.7402L57.946 75.8564C60.4305 74.2823 62.9149 72.7081 65.3994 71.1383C65.9491 70.7871 68.4119 69.1522 68.4119 69.1522C69.7407 69.2476 71.8659 74.6075 72.4199 76.9319C72.909 78.9873 73.6621 81.8711 72.593 83.8572C72.0001 84.9587 70.7535 85.0974 69.6368 84.8806C68.8144 84.7202 68.0613 84.3429 67.2735 84.0784C66.4165 83.7878 65.5725 83.7401 64.6809 83.8962L56.1368 86.2423C54.2324 86.6586 52.7045 85.917 51.9297 84.7288C50.9948 83.2935 51.6224 79.8286 53.3883 78.7445L53.3927 78.7402Z" fill="#0033AE"/>
<path d="M67.2693 77.0837C67.2823 77.2398 67.2996 77.3959 67.3213 77.5607C67.8926 82.0836 70.0741 85.1322 71.7318 84.6768C73.4025 84.2042 73.5194 80.9778 72.4503 76.9015C72.2079 75.9172 71.9352 74.9501 71.6452 74.0568C71.0869 72.3309 70.455 70.8608 69.8187 69.9849C69.4248 69.4385 69.0353 69.1176 68.6587 69.1089C68.0744 69.0872 67.6113 70.0022 67.3559 71.4549C67.0962 72.9207 67.0442 74.9284 67.2736 77.0923L67.2693 77.0837Z" fill="#2C2A2B"/>
<path d="M33.9803 97.1485C35.4562 97.348 37.8022 94.7721 39.2911 90.4356C39.8408 88.8138 40.0659 87.2353 40.0313 85.865C39.988 84.1304 39.5249 82.7297 38.7847 81.9752C38.5293 81.715 38.248 81.5328 37.932 81.4374C37.7546 81.3854 37.5858 81.3594 37.4126 81.3594C36.1055 81.3594 34.9888 82.8858 34.2184 85.3012C33.9673 86.0861 33.7596 86.9664 33.5907 87.9161C32.7684 92.1355 31.0327 96.7495 33.9803 97.1485Z" fill="#2C2A2B"/>
<path d="M35.3347 67.9163C35.3087 67.9163 35.287 67.9076 35.2654 67.8903C35.2221 67.8513 35.2135 67.7862 35.2524 67.7385C35.9233 66.9319 36.8799 64.5512 35.5424 62.3266C35.5121 62.2746 35.5294 62.2095 35.577 62.1792C35.629 62.1488 35.6939 62.1662 35.7242 62.2139C37.1222 64.5339 36.1224 67.0273 35.4169 67.873C35.3952 67.899 35.365 67.912 35.3347 67.912V67.9163Z" fill="#2C2A2B"/>
<path d="M31.7247 95.8693C31.6901 95.8693 31.6598 95.8519 31.6381 95.8259C30.279 93.9439 30.2271 91.4157 30.1925 89.5727C30.1708 88.558 30.1535 87.6777 29.9068 87.3351C29.8722 87.2874 29.8808 87.2224 29.9284 87.1833C29.9761 87.1486 30.041 87.1573 30.0799 87.205C30.3699 87.5996 30.3872 88.4669 30.4089 89.5641C30.4435 91.381 30.4955 93.8658 31.8156 95.6958C31.8502 95.7435 31.8416 95.8086 31.7896 95.8433C31.7723 95.8563 31.7507 95.865 31.7247 95.865V95.8693Z" fill="#2C2A2B"/>
<path d="M39.2475 96.7018L39.6024 97.374L40.507 99.0825L48.5923 114.377L51.3927 119.676L51.2629 121.619L48.9386 156.094L50.7997 157.148L66.637 156.094L64.0876 118.271C64.0054 117.101 63.6981 115.956 63.1744 114.902L51.4966 91.3159L39.2432 96.7018H39.2475Z" fill="#FFC649"/>
<path d="M48.5921 114.377L51.3925 119.676L51.2627 121.619L51.2886 121.611C51.5224 119.013 51.7258 118.302 52.0894 117.621C51.518 117.343 49.9685 116.979 45.5147 106.038C43.6752 101.511 44.0647 98.341 44.0257 98.2283L40.5068 99.0826L48.5921 114.377Z" fill="#2C2A2B"/>
<path d="M48.9385 156.094C49.1159 156.901 50.4707 157.434 52.9032 157.66C54.0805 157.764 55.5132 157.807 57.1882 157.772C57.7985 157.759 58.3828 157.746 58.9412 157.72C59.8674 157.686 60.7115 157.642 61.4862 157.586C62.4558 157.508 63.2998 157.417 64.0096 157.295C65.6068 157.022 66.5157 156.636 66.6412 156.09C66.8144 155.309 65.148 154.511 61.1227 155.084C60.283 155.201 59.3437 155.383 58.2963 155.63C56.8982 155.964 55.7036 156.198 54.6821 156.35C54.3359 156.406 54.0069 156.45 53.7039 156.48C53.4356 156.515 53.1845 156.541 52.9422 156.558C49.6137 156.84 48.9471 156.086 48.9471 156.086L48.9385 156.094Z" fill="#2C2A2B"/>
<path d="M32.7377 161.242L34.2959 161.775C34.9581 162.005 35.6809 161.992 36.3388 161.749L37.9533 161.151C38.6761 160.882 39.1479 160.188 39.1349 159.42L39.1003 157.334C39.399 156.328 38.4251 155.413 37.4426 155.778C37.4426 155.778 32.6165 156.467 31.9067 157.144L31.5085 159.086C31.318 160.01 31.8461 160.934 32.7377 161.237V161.242Z" fill="#2C2A2B"/>
<path d="M35.4427 158.679C38.0094 157.538 39.0266 156.771 39.0266 156.771L32.4346 156.805L35.4427 158.679Z" fill="#FFB287"/>
<path d="M26.0205 156.22C26.0075 156.25 25.9902 156.281 25.9902 156.315C25.9902 157.126 29.942 157.79 34.8113 157.79C39.6807 157.79 43.2515 157.191 43.5978 156.432H43.6497L43.1866 117.513L44.2211 95.6003L29.8078 101.901L29.89 103.549L29.903 103.796C29.903 103.835 29.903 103.874 29.903 103.913L29.9333 104.477V104.499L30.5176 116.29C30.5696 117.317 30.5306 118.349 30.4094 119.373L30.1021 121.927C30.1021 121.927 30.1021 121.94 30.1021 121.944L25.9902 156.216H26.0205V156.22Z" fill="#FFC649"/>
<path d="M43.4633 111.784C43.4027 111.784 43.3594 111.732 43.3594 111.676C43.3983 110.392 43.7403 99.1347 43.987 98.5362C44.2467 97.9074 45.6101 97.2787 45.6664 97.2526C45.7183 97.2266 45.7832 97.2526 45.8092 97.3047C45.8352 97.3567 45.8092 97.4218 45.7573 97.4478C45.385 97.6169 44.3722 98.1633 44.1861 98.6186C44.0086 99.0436 43.723 106.663 43.5758 111.68C43.5758 111.736 43.5282 111.784 43.4676 111.784H43.4633Z" fill="#2C2A2B"/>
<path d="M44.1215 94.4989C44.0609 94.4989 44.0176 94.4469 44.0176 94.3862C44.0349 93.9135 44.0479 93.3715 44.0565 92.8121C44.0782 91.4374 44.0609 89.8806 44.0392 88.9483C44.0392 88.8875 44.0825 88.8398 44.1431 88.8398C44.1994 88.8398 44.247 88.8875 44.2513 88.9439C44.2729 89.8806 44.2903 91.4374 44.2686 92.8164C44.26 93.3758 44.247 93.9222 44.2297 94.3949C44.2297 94.4512 44.1821 94.4989 44.1215 94.4989Z" fill="#2C2A2B"/>
<path d="M52.0894 92.6125H51.9639C51.2757 92.6125 50.0421 92.5908 49.2111 92.5735H48.8908C48.5705 92.5605 48.3671 92.5561 48.3628 92.5561C48.3108 92.5561 48.2675 92.5171 48.2589 92.4651L47.7395 89.23C47.7308 89.1737 47.7698 89.1173 47.8261 89.1086C47.8866 89.1 47.9386 89.139 47.9472 89.1997L48.4537 92.348C48.5445 92.348 48.696 92.3523 48.8908 92.3566H49.2111C50.0378 92.374 51.2714 92.3957 51.9596 92.4H52.0851C52.1457 92.4 52.1933 92.4477 52.1933 92.5084C52.1933 92.5691 52.1457 92.6168 52.0851 92.6168L52.0894 92.6125Z" fill="#2C2A2B"/>
<path d="M35.8497 92.6125C35.6246 92.6125 35.4774 92.6125 35.4471 92.6039C35.3909 92.5908 35.3519 92.5345 35.3606 92.4781C35.3736 92.4217 35.4298 92.3827 35.4861 92.3914C35.6246 92.413 37.9186 92.374 39.4768 92.3437L40.0308 88.9092C40.0395 88.8485 40.0957 88.8138 40.152 88.8181C40.2083 88.8268 40.2516 88.8832 40.2386 88.9395L39.6716 92.4608C39.6629 92.5128 39.6196 92.5518 39.5677 92.5518C39.0353 92.5605 36.7803 92.6039 35.8453 92.6039L35.8497 92.6125Z" fill="#2C2A2B"/>
<path d="M51.0548 124.846C51.0548 124.846 51.0505 124.846 51.0461 124.846C50.9855 124.846 50.9423 124.789 50.9466 124.733C51.0332 123.458 51.1067 122.434 51.1803 121.602C51.414 119.022 51.6175 118.271 51.994 117.573C52.0416 117.482 52.0936 117.391 52.1499 117.291C52.1802 117.239 52.2451 117.222 52.297 117.252C52.349 117.283 52.3663 117.348 52.336 117.4C52.284 117.491 52.2321 117.578 52.1888 117.669C51.8252 118.345 51.6261 119.074 51.3967 121.619C51.3231 122.452 51.2496 123.475 51.163 124.746C51.163 124.802 51.1111 124.846 51.0548 124.846Z" fill="#2C2A2B"/>
<path d="M30.5218 116.294C30.5738 117.322 30.5348 118.354 30.4136 119.377L30.1063 121.931C30.2015 121.628 31.6212 118.415 31.2273 114.841C30.8594 111.52 30.1279 107.344 29.9375 104.503L30.5218 116.294Z" fill="#2C2A2B"/>
<path d="M53.6953 156.489C54.6562 156.745 56.6905 157.274 58.9412 157.725C61.2049 158.184 63.724 158.562 65.5419 158.471C65.5419 158.471 64.8883 157.972 64.0053 157.3C63.1353 156.632 62.0403 155.791 61.1184 155.088C60.2787 155.205 59.3394 155.387 58.292 155.635C56.4178 156.086 54.9072 156.35 53.6953 156.489Z" fill="#FFB287"/>
<path d="M58.4742 160.708V159.26L62.902 160.708H69.9788C70.667 160.708 71.3379 160.539 71.9439 160.209C72.2815 160.023 72.1949 159.507 71.814 159.451L61.4867 157.59L54.6783 156.359C54.332 156.415 54.003 156.458 53.7001 156.489C53.4317 156.523 53.1807 156.549 52.9383 156.567L52.908 157.664L52.8301 160.708H58.4785H58.4742Z" fill="#2C2A2B"/>
<path d="M36.3256 81.8972C35.9187 82.1053 37.966 83.8919 38.4638 83.3976C40.5241 81.3551 42.3419 79.1435 42.2207 78.493C42.2294 78.3629 42.0822 78.2849 41.9784 78.3629C41.9784 78.3629 39.3381 80.362 36.3256 81.9015V81.8972Z" fill="#FFB287"/>
<path d="M39.9576 85.362C39.897 85.6916 39.9749 86.0255 40.174 86.2944L40.2519 86.3984L42.4983 74.8938C42.468 74.0438 42.7277 73.8357 43.0263 73.84L53.3147 73.8573L53.0074 73.5841C52.8473 73.3543 52.5876 73.2199 52.3062 73.2155L42.6454 73.1678C42.3641 73.1678 42.1217 73.3673 42.0698 73.6449L39.9489 85.3577L39.9576 85.362Z" fill="#2C2A2B"/>
<path d="M42.2863 74.1522L40.1135 86.0124C40.0659 86.2726 40.265 86.5155 40.5333 86.5155H50.3846C50.6616 86.5155 50.8996 86.3203 50.9559 86.0515L53.4101 74.2216C53.4663 73.957 53.2629 73.7099 52.9945 73.7099L42.862 73.6752C42.5806 73.6752 42.3383 73.8746 42.2863 74.1522Z" fill="#FF671F"/>
<path d="M46.4585 78.1418C46.4888 78.5928 46.965 78.9311 47.519 78.8964C48.073 78.8573 48.5015 78.4627 48.4712 78.0074C48.4409 77.5521 47.9648 77.2181 47.4108 77.2528C46.8567 77.2919 46.4282 77.6865 46.4585 78.1418Z" fill="#2C2A2B"/>
<path d="M67.2692 77.0836L71.6408 74.0524L72.619 73.3716L70.2644 69.7073L69.8099 69.9805L67.3471 71.4505C67.0874 72.9163 67.0355 74.9241 67.2649 77.088L67.2692 77.0836Z" fill="#FFB287"/>
<path d="M70.2734 69.9154L71.6412 74.0307C71.6412 74.0307 76.069 73.2935 76.9823 72.4653C77.6619 71.8452 75.528 69.0785 75.528 69.0785L70.2734 69.9154Z" fill="#FFB287"/>
<path d="M68.6714 70.7394C68.3338 71.0516 70.7923 72.2094 71.1385 71.598C72.5625 69.0698 73.7052 66.4463 73.4152 65.8478C73.3892 65.7221 73.2248 65.683 73.1469 65.7871C73.1469 65.7871 71.1515 68.4367 68.6757 70.7394H68.6714Z" fill="#FFB287"/>
<path d="M75.4624 70.2883C75.5274 70.271 75.6053 70.2406 75.6615 70.2146L75.7524 70.1626C75.8173 70.1235 75.852 70.0975 75.9039 70.0628C75.9948 69.9978 76.0814 69.9327 76.1636 69.8677C76.3281 69.7376 76.4796 69.6032 76.6311 69.4687C76.9297 69.1955 77.2154 68.9137 77.4881 68.6188C77.9296 68.1418 78.5658 67.3439 79.0203 66.6977C79.1285 66.5416 78.9987 66.3335 78.8125 66.3638C78.4749 66.4202 78.1676 66.598 77.9425 66.8538C77.6006 67.2441 77.2457 67.565 76.8258 67.951C76.5488 68.2025 76.2632 68.4453 75.9688 68.6708C75.8217 68.7836 75.6745 68.892 75.523 68.9917C75.4494 69.0438 75.3759 69.0871 75.3066 69.1305C75.2763 69.1478 75.233 69.1739 75.2114 69.1825L75.1768 69.1999C75.1768 69.1999 75.2157 69.1782 75.2417 69.1782L75.4624 70.284V70.2883Z" fill="#FFB287"/>
<path d="M75.5055 71.0603C75.5704 71.0429 75.6483 71.0169 75.7003 70.9909L75.7955 70.9432C75.8648 70.9085 75.9124 70.8782 75.973 70.8478C76.0855 70.7828 76.1894 70.7177 76.2933 70.657C76.501 70.5269 76.7044 70.3925 76.9035 70.2537C77.3017 69.9762 77.687 69.6856 78.0635 69.3734C78.7387 68.8097 79.5655 67.951 80.1281 67.1661C80.2017 67.0664 80.1281 66.9233 80.0026 66.9233C79.5784 66.919 79.1672 67.0881 78.8816 67.4046C78.4747 67.86 78.0419 68.2329 77.4879 68.6319C77.12 68.9007 76.7347 69.1522 76.3452 69.3864C76.1504 69.5035 75.9513 69.6162 75.7522 69.7247C75.6527 69.7767 75.5531 69.8287 75.4579 69.8764C75.4103 69.8981 75.3583 69.9241 75.3194 69.9415L75.2588 69.9675C75.2588 69.9675 75.2761 69.9588 75.2848 69.9588L75.5055 71.0646V71.0603Z" fill="#FFB287"/>
<path d="M75.7222 72.1878C75.7785 72.1661 75.8391 72.1444 75.8824 72.1227L75.9819 72.0707C76.0512 72.036 76.1031 72.0013 76.1637 71.971C76.2806 71.9016 76.3931 71.8365 76.5013 71.7671C76.7221 71.6284 76.9385 71.4853 77.1462 71.3335C77.5661 71.0343 77.9773 70.7221 78.3668 70.3838C79.0464 69.7984 79.964 68.9007 80.5742 68.1028C80.6781 67.9684 80.5699 67.7733 80.3968 67.7863H80.3319C79.938 67.8253 79.5787 68.0204 79.3147 68.3153C78.8602 68.8183 78.3841 69.2 77.7825 69.6553C77.3973 69.9458 76.9904 70.219 76.5792 70.4749C76.3715 70.6006 76.1637 70.7221 75.9559 70.8391C75.8521 70.8955 75.7439 70.9519 75.64 71.0039C75.588 71.0256 75.5318 71.056 75.4885 71.0776L75.4192 71.108C75.4192 71.108 75.4106 71.108 75.4062 71.1123L75.7179 72.1965L75.7222 72.1878Z" fill="#FFB287"/>
<path d="M75.7834 73.0161L75.9219 72.977L76.0128 72.9423L76.1859 72.8729C76.2595 72.8426 76.3287 72.8122 76.4023 72.7775C76.5452 72.7125 76.688 72.6474 76.8265 72.5781C77.3459 72.3135 77.848 72.0273 78.3241 71.6934C78.9906 71.2338 79.8563 70.4185 80.4233 69.677C80.5272 69.5425 80.4363 69.3474 80.2675 69.3344C79.9472 69.3127 79.6312 69.4341 79.4105 69.6683C78.9603 70.1496 78.4063 70.5529 77.822 70.8999C77.3589 71.1774 76.8698 71.4116 76.3764 71.6197C76.2508 71.6717 76.121 71.7194 75.9955 71.7671C75.9305 71.7888 75.8656 71.8148 75.805 71.8365L75.6622 71.8799L75.5929 71.9016C75.5929 71.9016 75.5756 71.9016 75.5713 71.9059L75.792 73.0117L75.7834 73.0161Z" fill="#FFB287"/>
<path d="M41.3506 83.1807C41.4242 83.1981 41.5151 83.2111 41.58 83.2154H41.6969C41.7834 83.2154 41.831 83.2024 41.9003 83.1981C42.0258 83.1851 42.1383 83.1677 42.2552 83.146C42.4846 83.107 42.701 83.0593 42.9218 83.0073C43.3589 82.9032 43.7831 82.7774 44.2029 82.6387C44.8868 82.4088 45.9299 81.9795 46.7134 81.5936C46.9038 81.5025 46.8865 81.2293 46.6874 81.1599C46.3281 81.0342 45.9386 81.0428 45.5793 81.1729C45.0383 81.3681 44.5232 81.4938 43.9129 81.6413C43.5104 81.7367 43.1036 81.8191 42.701 81.8841C42.4976 81.9145 41.4372 82.0576 41.4588 82.0706L41.3549 83.1807H41.3506Z" fill="#FFB287"/>
<path d="M41.8223 83.9135C41.8915 83.9266 41.9738 83.9352 42.03 83.9352H42.1426C42.2205 83.9309 42.2767 83.9222 42.346 83.9179C42.4802 83.9092 42.6014 83.8919 42.7269 83.8789C42.9736 83.8485 43.2203 83.8095 43.4627 83.7661C43.9518 83.6837 44.4322 83.5796 44.9127 83.4495C45.7783 83.2197 46.9124 82.7817 47.7694 82.3004C47.8819 82.2397 47.8732 82.0749 47.7564 82.0228C47.3668 81.8364 46.9124 81.8147 46.5141 81.9838C45.9428 82.231 45.3845 82.3871 44.7006 82.5172C44.2461 82.6083 43.783 82.6733 43.3199 82.721C43.0905 82.747 42.8567 82.7644 42.6273 82.7774C42.5148 82.7817 42.3979 82.7904 42.2897 82.7904C42.2378 82.7904 42.1772 82.7904 42.1339 82.7904H42.0647C42.0647 82.7904 42.0863 82.7904 42.0949 82.7904L41.8266 83.9092L41.8223 83.9135Z" fill="#FFB287"/>
<path d="M41.1172 84.989C41.1778 84.9933 41.247 84.9977 41.2946 84.9977H41.4072C41.4851 84.989 41.5457 84.9847 41.6193 84.976C41.7578 84.963 41.8876 84.95 42.0218 84.9326C42.2858 84.8979 42.5455 84.8589 42.8052 84.8112C43.3246 84.7158 43.8354 84.6031 44.3418 84.46C45.2204 84.2128 46.454 83.7791 47.3629 83.3021C47.5188 83.2197 47.5014 82.9942 47.337 82.9335L47.272 82.9118C46.8911 82.7731 46.4756 82.7991 46.1077 82.9552C45.4715 83.2241 44.8655 83.3715 44.1167 83.5319C43.6319 83.636 43.1428 83.7097 42.6537 83.7705C42.407 83.8008 42.1646 83.8225 41.9179 83.8355C41.7967 83.8442 41.6755 83.8485 41.5587 83.8528C41.5024 83.8528 41.4375 83.8528 41.3899 83.8528H41.312C41.312 83.8528 41.3033 83.8485 41.299 83.8528L41.1215 84.989H41.1172Z" fill="#FFB287"/>
<path d="M40.7061 85.5527L40.8489 85.5701H40.9484L41.1346 85.5831C41.2168 85.5831 41.2947 85.5831 41.3726 85.5831C41.5328 85.5831 41.6886 85.5831 41.8487 85.5701C42.4417 85.5354 43.026 85.4747 43.6103 85.3619C44.4197 85.2058 45.5624 84.8025 46.3934 84.3428C46.5449 84.2604 46.5406 84.0393 46.3891 83.9612C46.0991 83.8095 45.7529 83.7921 45.4542 83.9222C44.8353 84.1867 44.1557 84.3385 43.4675 84.4209C42.9221 84.4903 42.3725 84.5076 41.8228 84.4946C41.6843 84.4946 41.5457 84.4816 41.4072 84.4729C41.338 84.4686 41.2687 84.4643 41.1995 84.4556L41.048 84.4382L40.9787 84.4296C40.9787 84.4296 40.9614 84.4252 40.9528 84.4252L40.7061 85.5484V85.5527Z" fill="#FFB287"/>
<path d="M34.2178 85.3013L36.2434 85.7696C37.0182 85.9474 37.8146 86.0211 38.611 85.9734C39.0308 85.9474 39.5286 85.9127 40.035 85.8694C41.3032 85.761 42.645 85.5745 43.1427 85.2926C43.9132 84.846 42.2598 82.0359 42.2598 82.0359L38.7885 81.9795L38.3816 81.9709L38.4335 81.7194C38.4335 81.7194 38.0224 81.5719 37.4164 81.3638C36.1092 81.3638 34.9925 82.8902 34.2221 85.3056L34.2178 85.3013Z" fill="#FFB287"/>
<path d="M42.2257 84.1001C42.1694 84.1001 42.1261 84.0567 42.1175 84.0004C42.1132 83.9397 42.1564 83.8876 42.2127 83.8833C45.0824 83.6361 47.1297 82.5476 47.6923 82.2224L47.7659 82.3048L47.8006 82.4089C47.2292 82.7428 45.1473 83.8486 42.2344 84.1001C42.2344 84.1001 42.23 84.1001 42.2257 84.1001Z" fill="#A55930"/>
<path d="M42.3078 85.1061C42.2558 85.1061 42.2082 85.0671 42.1995 85.0107C42.1952 84.95 42.2342 84.898 42.2948 84.8937C44.7792 84.6335 47.281 83.2285 47.3026 83.2111C47.3546 83.1807 47.4195 83.1981 47.4498 83.2501C47.4801 83.3022 47.4628 83.3672 47.4108 83.3976C47.3849 83.4106 44.8441 84.8416 42.3164 85.1061C42.3164 85.1061 42.3078 85.1061 42.3034 85.1061H42.3078Z" fill="#A55930"/>
<path d="M42.2257 83.1634C42.1694 83.1634 42.1218 83.12 42.1175 83.0636C42.1132 83.0029 42.1564 82.9552 42.217 82.9465C43.3987 82.8555 44.537 82.4218 44.55 82.4175C44.6063 82.3958 44.6669 82.4262 44.6885 82.4782C44.7101 82.5346 44.6798 82.5953 44.6279 82.617C44.5803 82.6343 43.4463 83.0636 42.2343 83.159C42.2343 83.159 42.23 83.159 42.2257 83.159V83.1634Z" fill="#A55930"/>
<path d="M71.2292 71.3768C71.1989 71.3768 71.1686 71.3638 71.1469 71.3378C71.108 71.2901 71.1166 71.2251 71.1599 71.186C71.4975 70.9085 71.9477 70.0802 72.3978 68.9181C72.4108 68.8877 72.4195 68.866 72.4195 68.8617C72.4454 68.8096 72.5104 68.7836 72.5623 68.8096C72.6142 68.8357 72.6402 68.8964 72.6142 68.9527L72.5969 68.9961C72.3242 69.6986 71.7962 70.9389 71.2984 71.3508C71.2768 71.3682 71.2552 71.3768 71.2292 71.3768Z" fill="#A55930"/>
<path d="M72.7877 72.088C72.766 72.088 72.7444 72.0793 72.7228 72.0663C72.199 71.6717 71.0693 71.5763 70.5932 72.0143C70.55 72.0533 70.4807 72.049 70.4417 72.0056C70.4028 71.9622 70.4071 71.8929 70.4504 71.8538C71.0131 71.3421 72.264 71.4462 72.8526 71.8929C72.9002 71.9275 72.9089 71.9969 72.8742 72.0446C72.8526 72.0706 72.8223 72.088 72.7877 72.088Z" fill="#A55930"/>
<path d="M37.9445 52.1056C37.9099 52.1056 37.8753 52.0882 37.8536 52.0579C37.832 52.0232 37.3299 51.2556 36.5075 51.6199C36.4513 51.6416 36.3907 51.6199 36.3647 51.5635C36.3431 51.5071 36.3647 51.4464 36.421 51.4204C37.4122 50.9867 38.0268 51.9321 38.0354 51.9408C38.0657 51.9885 38.0527 52.0579 38.0008 52.0882C37.9835 52.1012 37.9618 52.1056 37.9445 52.1056Z" fill="#A55930"/>
<path d="M42.8569 53.8619C42.8569 53.8966 42.8569 53.9356 42.844 53.9659C42.7574 54.3042 42.2337 54.456 41.6796 54.3085C41.1256 54.1654 40.7491 53.7708 40.8356 53.4326C40.8486 53.3979 40.8573 53.3675 40.8746 53.3372C41.1343 53.4803 41.4632 53.6147 41.8355 53.7101C42.2077 53.8055 42.5583 53.8532 42.8569 53.8619Z" fill="#2C2A2B"/>
<path d="M42.8574 53.8618C42.5587 53.8575 42.2081 53.8054 41.8359 53.71C41.4636 53.6146 41.139 53.4802 40.875 53.3371C41.0308 53.0639 41.5026 52.9555 42.0004 53.0856C42.4938 53.2113 42.8487 53.5409 42.853 53.8575L42.8574 53.8618Z" fill="white"/>
</g>
<path d="M208.318 163.424C208.318 163.971 204.749 164.413 200.344 164.413C195.94 164.413 192.371 163.971 192.371 163.424C192.371 162.878 195.94 162.436 200.344 162.436C204.749 162.436 208.318 162.878 208.318 163.424Z" fill="#EDD9CC"/>
<path d="M201.685 146.138C201.514 146.138 201.374 146 201.372 145.829C201.312 142.56 203.932 141.144 204.043 141.086C204.197 141.006 204.388 141.064 204.468 141.218C204.548 141.371 204.49 141.56 204.337 141.642C204.337 141.642 203.725 141.971 203.137 142.651C202.361 143.551 201.977 144.615 201.999 145.818C202.001 145.991 201.863 146.133 201.69 146.138C201.69 146.138 201.685 146.138 201.683 146.138H201.685Z" fill="#0A705C"/>
<path d="M200.673 138.022C200.673 138.022 197.027 131.144 210.109 126.319C210.784 126.07 211.467 126.666 211.304 127.368C210.48 130.948 207.771 139.322 200.673 138.022Z" fill="#004238"/>
<path d="M197.084 145.515C197.068 145.515 197.053 145.515 197.039 145.513C196.868 145.489 196.748 145.329 196.773 145.157C197.679 138.899 202.342 135.988 202.87 135.677C203.019 135.588 203.215 135.637 203.304 135.786C203.393 135.935 203.346 136.126 203.197 136.215L203.19 136.219C202.97 136.348 201.806 137.068 200.555 138.473C198.828 140.411 197.766 142.691 197.395 145.249C197.373 145.404 197.237 145.517 197.084 145.517V145.515Z" fill="#004238"/>
<path d="M199.005 145.515C199.005 145.515 198.996 145.515 198.99 145.515C198.816 145.506 198.683 145.36 198.69 145.186C198.816 142.509 197.116 140.066 197.099 140.042C196.999 139.9 197.032 139.704 197.174 139.604C197.316 139.504 197.512 139.537 197.612 139.68C197.688 139.786 199.452 142.324 199.316 145.215C199.308 145.384 199.17 145.515 199.003 145.515H199.005Z" fill="#004238"/>
<path d="M199.906 145.975C199.906 145.975 199.9 145.975 199.898 145.975C199.724 145.971 199.586 145.826 199.591 145.653L199.858 135.468C199.862 135.295 200.006 135.159 200.18 135.162C200.353 135.166 200.491 135.311 200.486 135.484L200.22 145.669C200.215 145.84 200.075 145.975 199.906 145.975Z" fill="#0A705C"/>
<path d="M197.724 140.216C197.724 140.216 190.304 142.574 187.897 128.84C187.773 128.131 188.482 127.567 189.142 127.851C192.517 129.304 200.27 133.464 197.721 140.216H197.724Z" fill="#004238"/>
<path d="M202.529 142.86C202.529 142.86 209.198 146.876 214.727 134.073C215.011 133.413 214.453 132.7 213.745 132.822C210.125 133.451 201.616 135.7 202.529 142.858V142.86Z" fill="#0A705C"/>
<path d="M201.308 138.991C200.792 140.06 199.232 139.942 198.877 138.808C197.295 133.757 194.644 123.048 200.132 121.819C206.29 120.441 204.228 132.948 201.306 138.991H201.308Z" fill="#0A705C"/>
<path d="M200.043 139.676C200.043 139.676 200.039 139.676 200.037 139.676C199.941 139.671 199.868 139.591 199.872 139.498L200.452 125.18C200.457 125.084 200.537 125.011 200.63 125.015C200.726 125.02 200.799 125.1 200.794 125.193L200.214 139.511C200.21 139.602 200.134 139.676 200.043 139.676Z" fill="#004238"/>
<path d="M202.715 142.88C202.666 142.88 202.617 142.858 202.582 142.818C202.522 142.744 202.533 142.636 202.606 142.578L210.535 136.089C210.608 136.029 210.717 136.04 210.775 136.113C210.835 136.186 210.824 136.295 210.75 136.353L202.822 142.842C202.791 142.869 202.751 142.88 202.713 142.88H202.715Z" fill="#004238"/>
<path d="M208.435 144.843L207.993 146.869L207.866 147.454L207.848 147.531L207.597 148.687L207.544 148.929L207.468 149.269L207.399 149.592L205.502 158.258L205.373 158.843L205.104 160.076L204.975 160.658L204.38 163.381H196.286L195.691 160.658L195.562 160.076L195.293 158.843L195.164 158.258L193.266 149.592L193.195 149.269L193.122 148.929L193.069 148.687L192.815 147.531L192.8 147.454L192.671 146.869L192.229 144.843H208.435Z" fill="#FF671F"/>
<path d="M207.993 146.869L207.866 147.453H192.8L192.671 146.869H207.993Z" fill="#FFC649"/>
<path d="M207.597 148.687L207.544 148.929L207.468 149.269H193.195L193.122 148.929L193.068 148.687H207.597Z" fill="#FFC649"/>
<path d="M205.503 158.258L205.374 158.843H195.294L195.165 158.258H205.503Z" fill="#FFC649"/>
<path d="M205.104 160.076L204.975 160.659H195.69L195.562 160.076H205.104Z" fill="#FFC649"/>
<path d="M19.1755 163.381C19.1755 163.816 14.8838 164.168 9.58775 164.168C4.29168 164.168 0 163.816 0 163.381C0 162.946 4.29168 162.594 9.58775 162.594C14.8838 162.594 19.1755 162.946 19.1755 163.381Z" fill="#EDD9CC"/>
<path d="M15.384 155.698H3.43383C3.35765 155.698 3.2959 155.76 3.2959 155.836V156.529C3.2959 156.605 3.35765 156.667 3.43383 156.667H15.384C15.4602 156.667 15.522 156.605 15.522 156.529V155.836C15.522 155.76 15.4602 155.698 15.384 155.698Z" fill="#531F00"/>
<path d="M15.0086 144.967H3.8311C3.64554 144.967 3.49512 145.117 3.49512 145.303V146.677C3.49512 146.862 3.64554 147.013 3.8311 147.013H15.0086C15.1941 147.013 15.3445 146.862 15.3445 146.677V145.303C15.3445 145.117 15.1941 144.967 15.0086 144.967Z" fill="#1A1A1A"/>
<path d="M9.3252 134.225C9.3252 134.225 3.27936 120.885 9.23855 119.847C13.7937 119.054 13.2897 128.243 9.3252 134.225Z" fill="#0A705C"/>
<path d="M9.225 142.81C9.17018 142.81 9.12598 142.764 9.12598 142.71C9.17372 138.151 9.50793 125.355 9.51147 125.226C9.51147 125.171 9.55744 125.127 9.61403 125.129C9.66885 125.129 9.71305 125.176 9.71129 125.231C9.70775 125.36 9.37354 138.153 9.3258 142.711C9.3258 142.766 9.28159 142.81 9.22677 142.81H9.225Z" fill="#004238"/>
<path d="M7.94865 137.776C7.94865 137.776 -1.15105 129.141 2.12916 125.739C5.74711 121.988 8.50921 131.635 7.94865 137.776Z" fill="#0A705C"/>
<path d="M8.92097 142.033C8.86968 142.033 8.82548 141.994 8.82194 141.941C8.53371 138.284 4.89277 130.275 4.85563 130.196C4.83264 130.146 4.85563 130.086 4.90514 130.063C4.95466 130.04 5.01478 130.063 5.036 130.112C5.07313 130.194 8.72999 138.235 9.01999 141.925C9.02353 141.98 8.98286 142.028 8.92804 142.031C8.9245 142.031 8.92273 142.031 8.92097 142.031V142.033Z" fill="#004238"/>
<path d="M10.7524 137.549C10.7524 137.549 20.2606 129.365 17.1484 125.808C13.7178 121.886 10.4889 131.388 10.7524 137.549Z" fill="#0A705C"/>
<path d="M9.58032 141.753C9.58032 141.753 9.57148 141.753 9.56795 141.753C9.51313 141.746 9.47423 141.697 9.4813 141.642C9.9499 137.969 13.994 130.116 14.0347 130.036C14.0594 129.986 14.1196 129.969 14.1691 129.994C14.2186 130.018 14.2363 130.078 14.2115 130.128C14.1708 130.206 10.1444 138.029 9.67935 141.668C9.67228 141.718 9.62984 141.755 9.58032 141.755V141.753Z" fill="#004238"/>
<path d="M14.5377 139.529L14.3963 139.902L14.3078 140.139L14.0532 140.816L13.9648 141.053L13.7031 141.748L13.6147 141.983L12.4918 144.967H6.35401L5.23113 141.983L5.14272 141.748L4.88101 141.053L4.79259 140.816L4.53796 140.139L4.44954 139.902L4.30808 139.529C4.21082 139.273 4.40003 139 4.67412 139H14.1752C14.4475 139 14.6368 139.273 14.5413 139.529H14.5377Z" fill="#FF671F"/>
<path d="M14.3956 139.902L14.3072 140.139H4.53373L4.44531 139.902H14.3956Z" fill="#FFC649"/>
<path d="M14.0522 140.817L13.9638 141.052H4.87827L4.78809 140.817H14.0522Z" fill="#FFC649"/>
<path d="M13.7018 141.749L13.6116 141.984H5.22806L5.13965 141.749H13.7018Z" fill="#FFC649"/>
<path d="M7.77683 147.012L7.43555 148.109L2.69826 163.38H1.77344L4.77779 148.422L5.06072 147.012H7.77683Z" fill="#1A1A1A"/>
<path d="M5.06125 147.012H7.77737L7.43608 148.109L4.77832 148.422L5.06125 147.012Z" fill="#531F00"/>
<path d="M17.0952 163.38H16.1704L11.2916 147.658L11.0918 147.012H13.8079L13.8769 147.354L17.0952 163.38Z" fill="#1A1A1A"/>
<path d="M13.8769 147.354L11.2916 147.658L11.0918 147.012H13.8079L13.8769 147.354Z" fill="#531F00"/>
<path d="M15.1612 153.591H3.65663C3.4574 153.591 3.2959 153.752 3.2959 153.952V154.199C3.2959 154.398 3.4574 154.56 3.65663 154.56H15.1612C15.3605 154.56 15.522 154.398 15.522 154.199V153.952C15.522 153.752 15.3605 153.591 15.1612 153.591Z" fill="#1A1A1A"/>
<defs>
<linearGradient id="paint0_linear_55_1494" x1="118" y1="0" x2="118" y2="144" gradientUnits="userSpaceOnUse">
<stop stop-color="white"/>
<stop offset="1" stop-color="white" stop-opacity="0"/>
</linearGradient>
<clipPath id="clip0_55_1494">
<rect width="33.7128" height="29.1279" fill="white" transform="translate(181.755 78.424)"/>
</clipPath>
<clipPath id="clip1_55_1494">
<rect width="54.7833" height="122.592" fill="white" transform="translate(25.834 39.3477)"/>
</clipPath>
</defs>
</svg>
