<svg width="345" height="97" viewBox="0 0 345 97" fill="none" xmlns="http://www.w3.org/2000/svg">
<path d="M11.6211 10.2773L15.9277 1.01465H23.2422L15.022 16.2417V26H8.22021V16.4468L0 1.01465H7.34863L11.6211 10.2773ZM49.3213 13.4731C49.3213 15.3986 49.0877 17.1532 48.6206 18.7368C48.1649 20.3091 47.4471 21.6649 46.4673 22.8042C45.4875 23.9435 44.2285 24.8208 42.6904 25.436C41.1523 26.0399 39.3123 26.3418 37.1704 26.3418C35.0741 26.3418 33.2568 26.0399 31.7188 25.436C30.1921 24.8208 28.9331 23.9492 27.9419 22.8213C26.9507 21.682 26.2158 20.3205 25.7373 18.7368C25.2588 17.1532 25.0195 15.3872 25.0195 13.439C25.0195 10.8413 25.4468 8.58545 26.3013 6.67139C27.1672 4.74593 28.5002 3.25911 30.3003 2.21094C32.1004 1.15137 34.4019 0.621582 37.2046 0.621582C40.0529 0.621582 42.3657 1.15137 44.1431 2.21094C45.9318 3.27051 47.242 4.76302 48.0737 6.68848C48.9054 8.61393 49.3213 10.8755 49.3213 13.4731ZM32.1289 13.4731C32.1289 14.9771 32.2998 16.2702 32.6416 17.3525C32.9834 18.4349 33.5246 19.2666 34.2651 19.8477C35.0057 20.4287 35.9741 20.7192 37.1704 20.7192C38.4123 20.7192 39.3978 20.4287 40.127 19.8477C40.8675 19.2666 41.3973 18.4349 41.7163 17.3525C42.0467 16.2702 42.2119 14.9771 42.2119 13.4731C42.2119 11.2173 41.8359 9.43424 41.084 8.12402C40.332 6.8138 39.0389 6.15869 37.2046 6.15869C35.9855 6.15869 35 6.45492 34.248 7.04736C33.5075 7.63981 32.9663 8.48291 32.6245 9.57666C32.2941 10.6704 32.1289 11.9692 32.1289 13.4731ZM75.0757 1.01465V16.0537C75.0757 18.1501 74.6769 19.973 73.8794 21.5225C73.0819 23.0605 71.8856 24.2511 70.2905 25.0942C68.6955 25.9259 66.696 26.3418 64.292 26.3418C60.8512 26.3418 58.2251 25.4588 56.4136 23.6929C54.6021 21.9269 53.6963 19.4318 53.6963 16.2075V1.01465H60.481V15.6777C60.481 17.4437 60.8114 18.7254 61.4722 19.5229C62.133 20.3205 63.1071 20.7192 64.3945 20.7192C65.3174 20.7192 66.0693 20.5483 66.6504 20.2065C67.2314 19.8534 67.653 19.3008 67.915 18.5488C68.1885 17.7969 68.3252 16.8285 68.3252 15.6436V1.01465H75.0757ZM88.5083 1.01465C90.7756 1.01465 92.6611 1.29378 94.165 1.85205C95.6689 2.39893 96.7969 3.21924 97.5488 4.31299C98.3122 5.40674 98.6938 6.76823 98.6938 8.39746C98.6938 9.41146 98.5229 10.3343 98.1812 11.166C97.8394 11.9977 97.3494 12.744 96.7114 13.4048C96.0848 14.0542 95.3328 14.6239 94.4556 15.1138L101.736 26H94.0796L88.7817 16.9082H87.0728V26H80.3223V1.01465H88.5083ZM88.4058 6.12451H87.0728V11.8325H88.3374C89.3742 11.8325 90.223 11.6047 90.8838 11.1489C91.5446 10.6932 91.875 9.87858 91.875 8.70508C91.875 7.89616 91.6016 7.26383 91.0547 6.80811C90.5078 6.35238 89.6248 6.12451 88.4058 6.12451ZM111.135 33.8442C110.372 33.8442 109.705 33.8044 109.136 33.7246C108.555 33.6562 108.053 33.5765 107.632 33.4854V28.2388C107.996 28.3071 108.384 28.3812 108.794 28.4609C109.204 28.5521 109.648 28.5977 110.127 28.5977C110.936 28.5977 111.562 28.4325 112.007 28.1021C112.463 27.7716 112.782 27.276 112.964 26.6152C113.146 25.9544 113.237 25.1284 113.237 24.1372V1.01465H120.022V23.5562C120.022 26.0627 119.646 28.0679 118.894 29.5718C118.142 31.0757 117.1 32.1637 115.767 32.8359C114.434 33.5081 112.89 33.8442 111.135 33.8442ZM148.818 13.4731C148.818 15.3986 148.585 17.1532 148.118 18.7368C147.662 20.3091 146.944 21.6649 145.964 22.8042C144.985 23.9435 143.726 24.8208 142.188 25.436C140.649 26.0399 138.809 26.3418 136.667 26.3418C134.571 26.3418 132.754 26.0399 131.216 25.436C129.689 24.8208 128.43 23.9492 127.439 22.8213C126.448 21.682 125.713 20.3205 125.234 18.7368C124.756 17.1532 124.517 15.3872 124.517 13.439C124.517 10.8413 124.944 8.58545 125.798 6.67139C126.664 4.74593 127.997 3.25911 129.797 2.21094C131.597 1.15137 133.899 0.621582 136.702 0.621582C139.55 0.621582 141.863 1.15137 143.64 2.21094C145.429 3.27051 146.739 4.76302 147.571 6.68848C148.403 8.61393 148.818 10.8755 148.818 13.4731ZM131.626 13.4731C131.626 14.9771 131.797 16.2702 132.139 17.3525C132.48 18.4349 133.022 19.2666 133.762 19.8477C134.503 20.4287 135.471 20.7192 136.667 20.7192C137.909 20.7192 138.895 20.4287 139.624 19.8477C140.365 19.2666 140.894 18.4349 141.213 17.3525C141.544 16.2702 141.709 14.9771 141.709 13.4731C141.709 11.2173 141.333 9.43424 140.581 8.12402C139.829 6.8138 138.536 6.15869 136.702 6.15869C135.483 6.15869 134.497 6.45492 133.745 7.04736C133.005 7.63981 132.463 8.48291 132.122 9.57666C131.791 10.6704 131.626 11.9692 131.626 13.4731ZM174.573 1.01465V16.0537C174.573 18.1501 174.174 19.973 173.376 21.5225C172.579 23.0605 171.383 24.2511 169.788 25.0942C168.193 25.9259 166.193 26.3418 163.789 26.3418C160.348 26.3418 157.722 25.4588 155.911 23.6929C154.099 21.9269 153.193 19.4318 153.193 16.2075V1.01465H159.978V15.6777C159.978 17.4437 160.308 18.7254 160.969 19.5229C161.63 20.3205 162.604 20.7192 163.892 20.7192C164.814 20.7192 165.566 20.5483 166.147 20.2065C166.729 19.8534 167.15 19.3008 167.412 18.5488C167.686 17.7969 167.822 16.8285 167.822 15.6436V1.01465H174.573ZM188.005 1.01465C190.273 1.01465 192.158 1.29378 193.662 1.85205C195.166 2.39893 196.294 3.21924 197.046 4.31299C197.809 5.40674 198.191 6.76823 198.191 8.39746C198.191 9.41146 198.02 10.3343 197.678 11.166C197.336 11.9977 196.847 12.744 196.208 13.4048C195.582 14.0542 194.83 14.6239 193.953 15.1138L201.233 26H193.577L188.279 16.9082H186.57V26H179.819V1.01465H188.005ZM187.903 6.12451H186.57V11.8325H187.834C188.871 11.8325 189.72 11.6047 190.381 11.1489C191.042 10.6932 191.372 9.87858 191.372 8.70508C191.372 7.89616 191.099 7.26383 190.552 6.80811C190.005 6.35238 189.122 6.12451 187.903 6.12451ZM227.295 26H218.442L209.316 8.39746H209.163C209.22 8.93294 209.271 9.57666 209.316 10.3286C209.362 11.0806 209.402 11.8496 209.436 12.6357C209.47 13.4105 209.487 14.1112 209.487 14.7378V26H203.506V1.01465H212.324L221.416 18.3779H221.519C221.484 17.8311 221.45 17.1987 221.416 16.481C221.382 15.7518 221.348 15.0169 221.313 14.2764C221.291 13.5358 221.279 12.8807 221.279 12.311V1.01465H227.295V26ZM247.529 26H232.695V1.01465H247.529V6.43213H239.446V10.3628H246.931V15.7803H239.446V20.4971H247.529V26ZM260.825 10.2773L265.132 1.01465H272.446L264.226 16.2417V26H257.424V16.4468L249.204 1.01465H256.553L260.825 10.2773ZM280.957 20.8901L281.196 21.2832C280.991 22.1149 280.723 23.1175 280.393 24.291C280.074 25.4531 279.721 26.6209 279.333 27.7944C278.958 28.9793 278.576 30.0047 278.188 30.8706H273.42C273.648 29.7996 273.87 28.6717 274.087 27.4868C274.303 26.3019 274.503 25.1398 274.685 24.0005C274.867 22.8612 275.01 21.8244 275.112 20.8901H280.957ZM11.6211 45.2773L15.9277 36.0146H23.2422L15.022 51.2417V61H8.22021V51.4468L0 36.0146H7.34863L11.6211 45.2773ZM49.3213 48.4731C49.3213 50.3986 49.0877 52.1532 48.6206 53.7368C48.1649 55.3091 47.4471 56.6649 46.4673 57.8042C45.4875 58.9435 44.2285 59.8208 42.6904 60.436C41.1523 61.0399 39.3123 61.3418 37.1704 61.3418C35.0741 61.3418 33.2568 61.0399 31.7188 60.436C30.1921 59.8208 28.9331 58.9492 27.9419 57.8213C26.9507 56.682 26.2158 55.3205 25.7373 53.7368C25.2588 52.1532 25.0195 50.3872 25.0195 48.439C25.0195 45.8413 25.4468 43.5854 26.3013 41.6714C27.1672 39.7459 28.5002 38.2591 30.3003 37.2109C32.1004 36.1514 34.4019 35.6216 37.2046 35.6216C40.0529 35.6216 42.3657 36.1514 44.1431 37.2109C45.9318 38.2705 47.242 39.763 48.0737 41.6885C48.9054 43.6139 49.3213 45.8755 49.3213 48.4731ZM32.1289 48.4731C32.1289 49.9771 32.2998 51.2702 32.6416 52.3525C32.9834 53.4349 33.5246 54.2666 34.2651 54.8477C35.0057 55.4287 35.9741 55.7192 37.1704 55.7192C38.4123 55.7192 39.3978 55.4287 40.127 54.8477C40.8675 54.2666 41.3973 53.4349 41.7163 52.3525C42.0467 51.2702 42.2119 49.9771 42.2119 48.4731C42.2119 46.2173 41.8359 44.4342 41.084 43.124C40.332 41.8138 39.0389 41.1587 37.2046 41.1587C35.9855 41.1587 35 41.4549 34.248 42.0474C33.5075 42.6398 32.9663 43.4829 32.6245 44.5767C32.2941 45.6704 32.1289 46.9692 32.1289 48.4731ZM75.0757 36.0146V51.0537C75.0757 53.1501 74.6769 54.973 73.8794 56.5225C73.0819 58.0605 71.8856 59.2511 70.2905 60.0942C68.6955 60.9259 66.696 61.3418 64.292 61.3418C60.8512 61.3418 58.2251 60.4588 56.4136 58.6929C54.6021 56.9269 53.6963 54.4318 53.6963 51.2075V36.0146H60.481V50.6777C60.481 52.4437 60.8114 53.7254 61.4722 54.5229C62.133 55.3205 63.1071 55.7192 64.3945 55.7192C65.3174 55.7192 66.0693 55.5483 66.6504 55.2065C67.2314 54.8534 67.653 54.3008 67.915 53.5488C68.1885 52.7969 68.3252 51.8285 68.3252 50.6436V36.0146H75.0757ZM88.5083 36.0146C90.7756 36.0146 92.6611 36.2938 94.165 36.8521C95.6689 37.3989 96.7969 38.2192 97.5488 39.313C98.3122 40.4067 98.6938 41.7682 98.6938 43.3975C98.6938 44.4115 98.5229 45.3343 98.1812 46.166C97.8394 46.9977 97.3494 47.744 96.7114 48.4048C96.0848 49.0542 95.3328 49.6239 94.4556 50.1138L101.736 61H94.0796L88.7817 51.9082H87.0728V61H80.3223V36.0146H88.5083ZM88.4058 41.1245H87.0728V46.8325H88.3374C89.3742 46.8325 90.223 46.6047 90.8838 46.1489C91.5446 45.6932 91.875 44.8786 91.875 43.7051C91.875 42.8962 91.6016 42.2638 91.0547 41.8081C90.5078 41.3524 89.6248 41.1245 88.4058 41.1245ZM119.749 61H113.101V36.0146H127.866V41.4321H119.749V46.2002H127.234V51.6177H119.749V61ZM153.21 36.0146V51.0537C153.21 53.1501 152.812 54.973 152.014 56.5225C151.217 58.0605 150.02 59.2511 148.425 60.0942C146.83 60.9259 144.831 61.3418 142.427 61.3418C138.986 61.3418 136.36 60.4588 134.548 58.6929C132.737 56.9269 131.831 54.4318 131.831 51.2075V36.0146H138.616V50.6777C138.616 52.4437 138.946 53.7254 139.607 54.5229C140.268 55.3205 141.242 55.7192 142.529 55.7192C143.452 55.7192 144.204 55.5483 144.785 55.2065C145.366 54.8534 145.788 54.3008 146.05 53.5488C146.323 52.7969 146.46 51.8285 146.46 50.6436V36.0146H153.21ZM169.48 61H162.729V41.5347H156.628V36.0146H175.564V41.5347H169.48V61ZM200.378 36.0146V51.0537C200.378 53.1501 199.98 54.973 199.182 56.5225C198.385 58.0605 197.188 59.2511 195.593 60.0942C193.998 60.9259 191.999 61.3418 189.595 61.3418C186.154 61.3418 183.528 60.4588 181.716 58.6929C179.905 56.9269 178.999 54.4318 178.999 51.2075V36.0146H185.784V50.6777C185.784 52.4437 186.114 53.7254 186.775 54.5229C187.436 55.3205 188.41 55.7192 189.697 55.7192C190.62 55.7192 191.372 55.5483 191.953 55.2065C192.534 54.8534 192.956 54.3008 193.218 53.5488C193.491 52.7969 193.628 51.8285 193.628 50.6436V36.0146H200.378ZM213.811 36.0146C216.078 36.0146 217.964 36.2938 219.468 36.8521C220.972 37.3989 222.1 38.2192 222.852 39.313C223.615 40.4067 223.997 41.7682 223.997 43.3975C223.997 44.4115 223.826 45.3343 223.484 46.166C223.142 46.9977 222.652 47.744 222.014 48.4048C221.388 49.0542 220.636 49.6239 219.758 50.1138L227.039 61H219.382L214.084 51.9082H212.375V61H205.625V36.0146H213.811ZM213.708 41.1245H212.375V46.8325H213.64C214.677 46.8325 215.526 46.6047 216.187 46.1489C216.847 45.6932 217.178 44.8786 217.178 43.7051C217.178 42.8962 216.904 42.2638 216.357 41.8081C215.811 41.3524 214.928 41.1245 213.708 41.1245ZM244.146 61H229.312V36.0146H244.146V41.4321H236.062V45.3628H243.547V50.7803H236.062V55.4971H244.146V61ZM2.7002 96V71.0146H9.45068V90.5483H19.0723V96H2.7002ZM37.9053 96H23.0713V71.0146H37.9053V76.4321H29.8218V80.3628H37.3071V85.7803H29.8218V90.4971H37.9053V96ZM53.3032 96H46.5527V76.5347H40.4517V71.0146H59.3872V76.5347H53.3032V96ZM68.4106 71.0488L68.667 71.4248C68.4619 72.2679 68.1942 73.2762 67.8638 74.4497C67.5334 75.6118 67.1745 76.7796 66.7871 77.9531C66.4111 79.1266 66.0295 80.1463 65.6421 81.0122H60.8911C61.062 80.2147 61.2272 79.383 61.3867 78.5171C61.5576 77.6398 61.7171 76.7625 61.8652 75.8853C62.0133 75.008 62.1444 74.1592 62.2583 73.3389C62.3836 72.5072 62.4862 71.7438 62.5659 71.0488H68.4106ZM88.0469 88.4121C88.0469 89.7679 87.7051 91.0553 87.0215 92.2744C86.3379 93.4821 85.2726 94.4619 83.8257 95.2139C82.3901 95.9658 80.533 96.3418 78.2544 96.3418C77.1151 96.3418 76.1125 96.2905 75.2466 96.188C74.3921 96.0854 73.5946 95.9202 72.854 95.6924C72.1134 95.4531 71.3444 95.1455 70.5469 94.7695V88.7539C71.9027 89.4375 73.2699 89.9616 74.6484 90.3262C76.027 90.6794 77.2746 90.856 78.3911 90.856C79.0633 90.856 79.6102 90.7762 80.0317 90.6167C80.4647 90.4572 80.7837 90.2407 80.9888 89.9673C81.1938 89.6825 81.2964 89.3577 81.2964 88.9932C81.2964 88.5602 81.1426 88.1956 80.835 87.8994C80.5387 87.5918 80.0602 87.2728 79.3994 86.9424C78.7386 86.612 77.867 86.2018 76.7847 85.7119C75.8618 85.279 75.0244 84.8346 74.2725 84.3789C73.5319 83.9232 72.8939 83.4048 72.3584 82.8237C71.8343 82.2313 71.4299 81.542 71.145 80.7559C70.8602 79.9697 70.7178 79.0412 70.7178 77.9702C70.7178 76.3638 71.1108 75.0194 71.897 73.937C72.6945 72.8433 73.7996 72.0229 75.2124 71.4761C76.6366 70.9292 78.2772 70.6558 80.1343 70.6558C81.7635 70.6558 83.2275 70.8381 84.5264 71.2026C85.8366 71.5672 87.0101 71.9831 88.0469 72.4502L85.979 77.6626C84.908 77.1727 83.8542 76.7853 82.8174 76.5005C81.7806 76.2043 80.8179 76.0562 79.9292 76.0562C79.3481 76.0562 78.8696 76.1302 78.4937 76.2783C78.1291 76.415 77.8556 76.603 77.6733 76.8423C77.5024 77.0815 77.417 77.355 77.417 77.6626C77.417 78.05 77.5651 78.3975 77.8613 78.7051C78.1689 79.0127 78.6759 79.3488 79.3823 79.7134C80.1001 80.0666 81.0742 80.528 82.3047 81.0977C83.5238 81.6445 84.5605 82.237 85.415 82.875C86.2695 83.5016 86.9189 84.2593 87.3633 85.1479C87.819 86.0252 88.0469 87.1133 88.0469 88.4121ZM337.08 93.1631C337.08 91.9554 337.433 91.1066 338.14 90.6167C338.857 90.1268 339.718 89.8818 340.72 89.8818C341.666 89.8818 342.486 90.1268 343.181 90.6167C343.876 91.1066 344.224 91.9554 344.224 93.1631C344.224 94.3138 343.876 95.1455 343.181 95.6582C342.486 96.1709 341.666 96.4272 340.72 96.4272C339.718 96.4272 338.857 96.1709 338.14 95.6582C337.433 95.1455 337.08 94.3138 337.08 93.1631Z" fill="#1A1A1A"/>
<path d="M111.887 96L106.777 78.0044H106.624C106.669 78.4715 106.715 79.1038 106.76 79.9014C106.817 80.6989 106.868 81.5591 106.914 82.4819C106.96 83.4048 106.982 84.2935 106.982 85.1479V96H101.001V71.0146H109.99L115.203 88.7539H115.339L120.449 71.0146H129.456V96H123.252V85.0454C123.252 84.2593 123.263 83.4162 123.286 82.5161C123.32 81.6047 123.354 80.7502 123.389 79.9526C123.434 79.1437 123.474 78.5057 123.508 78.0386H123.354L118.313 96H111.887ZM150.168 96L148.938 91.3174H140.82L139.556 96H132.139L140.291 70.9121H149.297L157.551 96H150.168ZM147.537 85.7803L146.46 81.6787C146.346 81.2344 146.181 80.6021 145.964 79.7817C145.748 78.95 145.531 78.0955 145.315 77.2183C145.11 76.3296 144.95 75.6004 144.836 75.0308C144.734 75.6004 144.586 76.3068 144.392 77.1499C144.21 77.9816 144.016 78.8076 143.811 79.6279C143.617 80.4482 143.446 81.1318 143.298 81.6787L142.222 85.7803H147.537ZM181.614 96H173.992L169.053 86.4468L167.053 87.6431V96H160.269V71.0146H167.053V81.8667C167.338 81.3198 167.663 80.7729 168.027 80.2261C168.403 79.6792 168.768 79.1608 169.121 78.6709L174.368 71.0146H181.75L173.872 82.2085L181.614 96ZM199.165 96H184.331V71.0146H199.165V76.4321H191.082V80.3628H198.567V85.7803H191.082V90.4971H199.165V96ZM212.632 96V71.0146H219.417V96H212.632ZM235.857 96H229.106V76.5347H223.005V71.0146H241.941V76.5347H235.857V96ZM270.942 88.4121C270.942 89.7679 270.601 91.0553 269.917 92.2744C269.233 93.4821 268.168 94.4619 266.721 95.2139C265.286 95.9658 263.429 96.3418 261.15 96.3418C260.011 96.3418 259.008 96.2905 258.142 96.188C257.288 96.0854 256.49 95.9202 255.75 95.6924C255.009 95.4531 254.24 95.1455 253.442 94.7695V88.7539C254.798 89.4375 256.165 89.9616 257.544 90.3262C258.923 90.6794 260.17 90.856 261.287 90.856C261.959 90.856 262.506 90.7762 262.927 90.6167C263.36 90.4572 263.679 90.2407 263.884 89.9673C264.089 89.6825 264.192 89.3577 264.192 88.9932C264.192 88.5602 264.038 88.1956 263.73 87.8994C263.434 87.5918 262.956 87.2728 262.295 86.9424C261.634 86.612 260.763 86.2018 259.68 85.7119C258.757 85.279 257.92 84.8346 257.168 84.3789C256.427 83.9232 255.789 83.4048 255.254 82.8237C254.73 82.2313 254.325 81.542 254.041 80.7559C253.756 79.9697 253.613 79.0412 253.613 77.9702C253.613 76.3638 254.006 75.0194 254.792 73.937C255.59 72.8433 256.695 72.0229 258.108 71.4761C259.532 70.9292 261.173 70.6558 263.03 70.6558C264.659 70.6558 266.123 70.8381 267.422 71.2026C268.732 71.5672 269.906 71.9831 270.942 72.4502L268.875 77.6626C267.804 77.1727 266.75 76.7853 265.713 76.5005C264.676 76.2043 263.713 76.0562 262.825 76.0562C262.244 76.0562 261.765 76.1302 261.389 76.2783C261.025 76.415 260.751 76.603 260.569 76.8423C260.398 77.0815 260.312 77.355 260.312 77.6626C260.312 78.05 260.461 78.3975 260.757 78.7051C261.064 79.0127 261.571 79.3488 262.278 79.7134C262.996 80.0666 263.97 80.528 265.2 81.0977C266.419 81.6445 267.456 82.237 268.311 82.875C269.165 83.5016 269.814 84.2593 270.259 85.1479C270.715 86.0252 270.942 87.1133 270.942 88.4121ZM290.134 96L288.904 91.3174H280.786L279.521 96H272.104L280.256 70.9121H289.263L297.517 96H290.134ZM287.502 85.7803L286.426 81.6787C286.312 81.2344 286.147 80.6021 285.93 79.7817C285.714 78.95 285.497 78.0955 285.281 77.2183C285.076 76.3296 284.916 75.6004 284.802 75.0308C284.7 75.6004 284.552 76.3068 284.358 77.1499C284.176 77.9816 283.982 78.8076 283.777 79.6279C283.583 80.4482 283.412 81.1318 283.264 81.6787L282.188 85.7803H287.502ZM306.882 96H300.234V71.0146H315V76.4321H306.882V81.2002H314.368V86.6177H306.882V96ZM333.936 96H319.102V71.0146H333.936V76.4321H325.852V80.3628H333.337V85.7803H325.852V90.4971H333.936V96Z" fill="#FF671F"/>
</svg>
