<svg width="178" height="167" viewBox="0 0 178 167" fill="none" xmlns="http://www.w3.org/2000/svg">
<path opacity="0.5" fill-rule="evenodd" clip-rule="evenodd" d="M1.0133 19.9373C1.93145 11.2312 3.70902 2.59863 6.34602 -5.82294L93.177 -92.654C101.599 -95.291 110.231 -97.0685 118.937 -97.9867L1.0133 19.9373ZM41.8791 130.402C45.4317 133.759 49.1243 136.882 52.9375 139.771L238.771 -46.0625C235.882 -49.8757 232.759 -53.5683 229.402 -57.1209L41.8791 130.402ZM80.0302 155.618C75.4062 153.609 70.8733 151.325 66.4565 148.764L247.764 -32.5435C250.325 -28.1267 252.609 -23.5938 254.618 -18.9698L80.0302 155.618ZM96.6183 161.542C102.155 163.112 107.773 164.315 113.436 165.152L264.152 14.4358C263.315 8.77347 262.112 3.15485 260.542 -2.38168L96.6183 161.542ZM157.163 164.364C149.683 165.747 142.107 166.484 134.525 166.574L265.574 35.5254C265.484 43.1074 264.747 50.6831 263.364 58.1628L157.163 164.364ZM190.613 153.427C203.666 147.125 215.902 138.56 226.731 127.731C237.56 116.902 246.125 104.666 252.427 91.6127L190.613 153.427ZM217.8 -68.0312L30.9688 118.8C27.8192 115.025 24.9119 111.116 22.2471 107.094L206.094 -76.7529C210.116 -74.0881 214.025 -71.1808 217.8 -68.0312ZM14.0201 92.8093L191.809 -84.9798C187.126 -87.2996 182.333 -89.3257 177.46 -91.058L7.94193 78.4603C9.67432 83.3335 11.7004 88.1257 14.0201 92.8093ZM3.02552 60.8647C1.79954 54.9239 0.983792 48.9153 0.578272 42.8843L141.884 -98.4217C147.915 -98.0162 153.924 -97.2004 159.865 -95.9745L3.02552 60.8647Z" fill="white"/>
</svg>
