<svg width="31" height="72" viewBox="0 0 31 72" fill="none" xmlns="http://www.w3.org/2000/svg">
<path opacity="0.3" fill-rule="evenodd" clip-rule="evenodd" d="M-40.8763 31.8848C-40.629 29.5399 -40.1502 27.2148 -39.44 24.9466L-16.0534 1.55995C-13.7851 0.849701 -11.46 0.370928 -9.11512 0.123635L-40.8763 31.8848ZM-29.8697 61.6369C-28.9128 62.541 -27.9183 63.3821 -26.8912 64.1604L23.1605 14.1087C22.3822 13.0817 21.5411 12.0871 20.637 11.1303L-29.8697 61.6369ZM-19.5942 68.4285C-20.8396 67.8875 -22.0605 67.2721 -23.2501 66.5825L25.5826 17.7498C26.2722 18.9395 26.8876 20.1603 27.4286 21.4057L-19.5942 68.4285ZM-15.1264 70.024C-13.6352 70.4469 -12.1219 70.771 -10.5969 70.9963L29.9964 30.4031C29.771 28.878 29.4469 27.3647 29.0241 25.8735L-15.1264 70.024ZM1.18043 70.7842C-0.834144 71.1566 -2.87456 71.355 -4.91666 71.3794L30.3795 36.0833C30.3551 38.1254 30.1567 40.1658 29.7843 42.1803L1.18043 70.7842ZM10.1897 67.8382C13.7055 66.1409 17.0009 63.834 19.9175 60.9174C22.8341 58.0008 25.141 54.7055 26.8382 51.1897L10.1897 67.8382ZM17.5123 8.19172L-32.8082 58.5122C-33.6565 57.4954 -34.4395 56.4426 -35.1572 55.3593L14.3594 5.8427C15.4427 6.56042 16.4955 7.34343 17.5123 8.19172ZM6.64719 1.98976C7.95974 2.45637 9.25046 3.00207 10.512 3.62687L-37.3731 51.5119C-37.9979 50.2504 -38.5436 48.9597 -39.0102 47.6471L6.64719 1.98976ZM-40.3343 42.908L1.90807 0.665602C0.308007 0.335401 -1.31031 0.115689 -2.93467 0.00646866L-40.9935 38.0652C-40.8842 39.6896 -40.6645 41.3079 -40.3343 42.908Z" fill="#FF671F"/>
</svg>
