<svg width="60" height="48" viewBox="0 0 60 48" fill="none" xmlns="http://www.w3.org/2000/svg">
<path opacity="0.6" fill-rule="evenodd" clip-rule="evenodd" d="M0.850176 -7.00623C1.19387 -10.2651 1.85925 -13.4965 2.84632 -16.6489L35.3511 -49.1537C38.5035 -50.1408 41.7349 -50.8061 44.9938 -51.1498L0.850176 -7.00623ZM16.1484 34.3458C17.4783 35.6023 18.8605 36.7713 20.2879 37.8529L89.8529 -31.7121C88.7713 -33.1395 87.6023 -34.5217 86.3458 -35.8516L16.1484 34.3458ZM30.4295 43.7847C28.6987 43.0328 27.002 42.1777 25.3487 41.2193L93.2193 -26.6513C94.1777 -24.9981 95.0328 -23.3013 95.7847 -21.5705L30.4295 43.7847ZM36.6391 46.0022C38.712 46.59 40.8155 47.0405 42.9355 47.3537L99.3537 -9.0645C99.0405 -11.1845 98.59 -13.2881 98.0022 -15.3609L36.6391 46.0022ZM59.304 47.0586C56.5042 47.5762 53.6685 47.852 50.8304 47.886L99.886 -1.16963C99.852 1.66844 99.5762 4.50417 99.0586 7.30397L59.304 47.0586ZM71.8261 42.9637C76.7122 40.6047 81.2919 37.3986 85.3453 33.3453C89.3986 29.2919 92.6048 24.7122 94.9637 19.8261L71.8261 42.9637ZM82.0029 -39.9358L12.0642 30.0029C10.885 28.5896 9.79666 27.1263 8.79903 25.6205L77.6205 -43.201C79.1263 -42.2034 80.5897 -41.115 82.0029 -39.9358ZM66.9018 -48.556C68.726 -47.9075 70.5199 -47.1491 72.2731 -46.2807L5.7193 20.2731C4.85093 18.5198 4.0925 16.726 3.444 14.9018L66.9018 -48.556ZM1.60353 8.31514L60.3152 -50.3965C58.0911 -50.8555 55.8416 -51.1609 53.5838 -51.3127L0.687316 1.58377C0.839128 3.84162 1.14453 6.09107 1.60353 8.31514Z" fill="#FFC649"/>
</svg>
