<svg width="69" height="60" viewBox="0 0 69 60" fill="none" xmlns="http://www.w3.org/2000/svg">
<g clip-path="url(#clip0_55_651)">
<path d="M43.3813 9.878C42.7019 9.80627 42.0084 9.76946 41.3063 9.76946C31.8867 9.76946 24.25 16.4309 24.25 24.6488V47.5401C24.25 48.0894 24.2933 48.6293 24.3766 49.1588C20.959 48.5085 17.9039 47.0106 15.5174 44.9286C12.2675 42.0943 10.2575 38.1765 10.2575 33.85L0.00160217 34.0426L10.2575 23.233V14.8812C10.2575 10.7718 12.1669 7.05221 15.2534 4.35855C18.3388 1.66584 22.6024 0 27.3127 0C34.7212 0 41.0272 4.12071 43.3813 9.878Z" fill="#0033AE"/>
<path d="M44.3685 14.8803V37.7716C44.3685 44.2585 38.3416 49.5165 30.905 49.5165H28.2155C26.8978 49.5165 25.6126 49.3929 24.3761 49.1579C24.2928 48.6293 24.2495 48.0885 24.2495 47.5392V24.6478C24.2495 16.43 31.8862 9.76855 41.3058 9.76855C42.0079 9.76855 42.7003 9.80631 43.3808 9.87709C44.0202 11.4401 44.3685 13.1248 44.3685 14.8793V14.8803Z" fill="#FFC649"/>
<path d="M68.6169 43.8111L58.3611 43.6185C58.3611 47.945 56.351 51.8618 53.1012 54.6961C49.8513 57.5313 45.3617 59.285 40.4025 59.285H37.7119C30.9061 59.285 25.2794 54.8792 24.375 49.1587C25.6115 49.3937 26.8968 49.5174 28.2145 49.5174H30.9039C38.3405 49.5174 44.3674 44.2594 44.3674 37.7725V14.8811C44.3674 13.1266 44.0191 11.4419 43.3797 9.87891C47.2603 10.2895 50.7384 11.8373 53.3651 14.128C56.4516 16.8207 58.36 20.5412 58.36 24.6497V33.0015L68.6159 43.8111H68.6169Z" fill="#FF671F"/>
<ellipse cx="29.8064" cy="26.7188" rx="2.90861" ry="2.90861" fill="white"/>
<ellipse cx="39.6626" cy="26.5129" rx="2.90861" ry="2.90861" fill="white"/>
</g>
<defs>
<clipPath id="clip0_55_651">
<rect width="68.6169" height="59.285" fill="white"/>
</clipPath>
</defs>
</svg>
